<?xml version="1.0" encoding="utf-8" standalone="no"?>
<!DOCTYPE svg PUBLIC "-//W3C//DTD SVG 1.1//EN"
  "http://www.w3.org/Graphics/SVG/1.1/DTD/svg11.dtd">
<svg xmlns:xlink="http://www.w3.org/1999/xlink" width="460.8pt" height="473.038125pt" viewBox="0 0 460.8 473.038125" xmlns="http://www.w3.org/2000/svg" version="1.1">
 <metadata>
  <rdf:RDF xmlns:dc="http://purl.org/dc/elements/1.1/" xmlns:cc="http://creativecommons.org/ns#" xmlns:rdf="http://www.w3.org/1999/02/22-rdf-syntax-ns#">
   <cc:Work>
    <dc:type rdf:resource="http://purl.org/dc/dcmitype/StillImage"/>
    <dc:date>2024-03-27T20:53:21.330206</dc:date>
    <dc:format>image/svg+xml</dc:format>
    <dc:creator>
     <cc:Agent>
      <dc:title>Matplotlib v3.8.2, https://matplotlib.org/</dc:title>
     </cc:Agent>
    </dc:creator>
   </cc:Work>
  </rdf:RDF>
 </metadata>
 <defs>
  <style type="text/css">*{stroke-linejoin: round; stroke-linecap: butt}</style>
 </defs>
 <g id="figure_1">
  <g id="patch_1">
   <path d="M 0 473.038125 
L 460.8 473.038125 
L 460.8 0 
L 0 0 
z
" style="fill: #ffffff"/>
  </g>
  <g id="axes_1">
   <g id="patch_2">
    <path d="M 7.2 465.838125 
L 453.6 465.838125 
L 453.6 22.318125 
L 7.2 22.318125 
z
" style="fill: #ffffff"/>
   </g>
   <g id="patch_3">
    <path d="M 109.941173 160.399121 
Q 100.345822 160.080161 91.644404 159.790916 
" clip-path="url(#peeab86a599)" style="fill: none; stroke: #000000; stroke-opacity: 0.3; stroke-width: 0.8; stroke-linecap: round"/>
    <path d="M 96.36202 162.349061 
L 91.644404 159.790916 
L 96.521489 157.55171 
z
" clip-path="url(#peeab86a599)" style="fill-opacity: 0.3; stroke: #000000; stroke-opacity: 0.3; stroke-width: 0.8; stroke-linecap: round"/>
   </g>
   <g id="patch_4">
    <path d="M 117.664928 167.671232 
Q 120.549621 198.535293 123.351079 228.508807 
" clip-path="url(#peeab86a599)" style="fill: none; stroke: #000000; stroke-opacity: 0.3; stroke-width: 0.8; stroke-linecap: round"/>
    <path d="M 125.293982 223.506295 
L 123.351079 228.508807 
L 120.514811 223.952978 
z
" clip-path="url(#peeab86a599)" style="fill-opacity: 0.3; stroke: #000000; stroke-opacity: 0.3; stroke-width: 0.8; stroke-linecap: round"/>
   </g>
   <g id="patch_5">
    <path d="M 114.186344 154.152157 
Q 95.836049 111.986271 77.842668 70.640514 
" clip-path="url(#peeab86a599)" style="fill: none; stroke: #000000; stroke-opacity: 0.3; stroke-width: 0.8; stroke-linecap: round"/>
    <path d="M 77.557435 75.999491 
L 77.842668 70.640514 
L 81.95871 74.084087 
z
" clip-path="url(#peeab86a599)" style="fill-opacity: 0.3; stroke: #000000; stroke-opacity: 0.3; stroke-width: 0.8; stroke-linecap: round"/>
   </g>
   <g id="patch_6">
    <path d="M 90.748598 159.761139 
Q 100.343949 160.080099 109.045367 160.369343 
" clip-path="url(#peeab86a599)" style="fill: none; stroke: #000000; stroke-opacity: 0.3; stroke-width: 0.8; stroke-linecap: round"/>
    <path d="M 104.327751 157.811199 
L 109.045367 160.369343 
L 104.168282 162.608549 
z
" clip-path="url(#peeab86a599)" style="fill-opacity: 0.3; stroke: #000000; stroke-opacity: 0.3; stroke-width: 0.8; stroke-linecap: round"/>
   </g>
   <g id="patch_7">
    <path d="M 76.655943 160.316526 
Q 58.601235 162.347098 41.435351 164.277707 
" clip-path="url(#peeab86a599)" style="fill: none; stroke: #000000; stroke-opacity: 0.3; stroke-width: 0.8; stroke-linecap: round"/>
    <path d="M 46.47351 166.126207 
L 41.435351 164.277707 
L 45.937047 161.35628 
z
" clip-path="url(#peeab86a599)" style="fill-opacity: 0.3; stroke: #000000; stroke-opacity: 0.3; stroke-width: 0.8; stroke-linecap: round"/>
   </g>
   <g id="patch_8">
    <path d="M 86.971527 165.786136 
Q 103.888114 197.983554 120.388692 229.389178 
" clip-path="url(#peeab86a599)" style="fill: none; stroke: #000000; stroke-opacity: 0.3; stroke-width: 0.8; stroke-linecap: round"/>
    <path d="M 120.280753 224.023701 
L 120.388692 229.389178 
L 116.031547 226.256242 
z
" clip-path="url(#peeab86a599)" style="fill-opacity: 0.3; stroke: #000000; stroke-opacity: 0.3; stroke-width: 0.8; stroke-linecap: round"/>
   </g>
   <g id="patch_9">
    <path d="M 83.022358 152.484154 
Q 79.173431 111.430083 75.407992 71.266534 
" clip-path="url(#peeab86a599)" style="fill: none; stroke: #000000; stroke-opacity: 0.3; stroke-width: 0.8; stroke-linecap: round"/>
    <path d="M 73.466519 76.269601 
L 75.407992 71.266534 
L 78.245562 75.821553 
z
" clip-path="url(#peeab86a599)" style="fill-opacity: 0.3; stroke: #000000; stroke-opacity: 0.3; stroke-width: 0.8; stroke-linecap: round"/>
   </g>
   <g id="patch_10">
    <path d="M 123.43445 229.400818 
Q 120.549757 198.536757 117.748299 168.563242 
" clip-path="url(#peeab86a599)" style="fill: none; stroke: #000000; stroke-opacity: 0.3; stroke-width: 0.8; stroke-linecap: round"/>
    <path d="M 115.805396 173.565755 
L 117.748299 168.563242 
L 120.584567 173.119072 
z
" clip-path="url(#peeab86a599)" style="fill-opacity: 0.3; stroke: #000000; stroke-opacity: 0.3; stroke-width: 0.8; stroke-linecap: round"/>
   </g>
   <g id="patch_11">
    <path d="M 120.803228 230.178167 
Q 103.88664 197.980749 87.386063 166.575124 
" clip-path="url(#peeab86a599)" style="fill: none; stroke: #000000; stroke-opacity: 0.3; stroke-width: 0.8; stroke-linecap: round"/>
    <path d="M 87.494001 171.940602 
L 87.386063 166.575124 
L 91.743208 169.70806 
z
" clip-path="url(#peeab86a599)" style="fill-opacity: 0.3; stroke: #000000; stroke-opacity: 0.3; stroke-width: 0.8; stroke-linecap: round"/>
   </g>
   <g id="patch_12">
    <path d="M 75.324888 70.380117 
Q 79.173816 111.434188 82.939254 151.597738 
" clip-path="url(#peeab86a599)" style="fill: none; stroke: #000000; stroke-opacity: 0.3; stroke-width: 0.8; stroke-linecap: round"/>
    <path d="M 84.880728 146.594671 
L 82.939254 151.597738 
L 80.101685 147.042719 
z
" clip-path="url(#peeab86a599)" style="fill-opacity: 0.3; stroke: #000000; stroke-opacity: 0.3; stroke-width: 0.8; stroke-linecap: round"/>
   </g>
   <g id="patch_13">
    <path d="M 152.07946 330.750078 
Q 139.091528 286.983113 126.358051 244.073617 
" clip-path="url(#peeab86a599)" style="fill: none; stroke: #000000; stroke-opacity: 0.3; stroke-width: 0.8; stroke-linecap: round"/>
    <path d="M 125.422773 249.358052 
L 126.358051 244.073617 
L 130.024432 247.9925 
z
" clip-path="url(#peeab86a599)" style="fill-opacity: 0.3; stroke: #000000; stroke-opacity: 0.3; stroke-width: 0.8; stroke-linecap: round"/>
   </g>
   <g id="patch_14">
    <path d="M 57.969846 241.870999 
Q 69.772763 204.072279 81.309084 167.127331 
" clip-path="url(#peeab86a599)" style="fill: none; stroke: #000000; stroke-opacity: 0.3; stroke-width: 0.8; stroke-linecap: round"/>
    <path d="M 77.587468 170.993799 
L 81.309084 167.127331 
L 82.169289 172.424505 
z
" clip-path="url(#peeab86a599)" style="fill-opacity: 0.3; stroke: #000000; stroke-opacity: 0.3; stroke-width: 0.8; stroke-linecap: round"/>
   </g>
   <g id="patch_15">
    <path d="M 40.546105 164.377718 
Q 58.600813 162.347146 75.766697 160.416537 
" clip-path="url(#peeab86a599)" style="fill: none; stroke: #000000; stroke-opacity: 0.3; stroke-width: 0.8; stroke-linecap: round"/>
    <path d="M 70.728538 158.568037 
L 75.766697 160.416537 
L 71.265001 163.337964 
z
" clip-path="url(#peeab86a599)" style="fill-opacity: 0.3; stroke: #000000; stroke-opacity: 0.3; stroke-width: 0.8; stroke-linecap: round"/>
   </g>
   <g id="matplotlib.axis_1">
    <g id="xtick_1"/>
    <g id="xtick_2"/>
    <g id="xtick_3"/>
    <g id="xtick_4"/>
    <g id="xtick_5"/>
    <g id="xtick_6"/>
    <g id="xtick_7"/>
    <g id="xtick_8"/>
   </g>
   <g id="matplotlib.axis_2">
    <g id="ytick_1"/>
    <g id="ytick_2"/>
    <g id="ytick_3"/>
    <g id="ytick_4"/>
    <g id="ytick_5"/>
    <g id="ytick_6"/>
    <g id="ytick_7"/>
    <g id="ytick_8"/>
   </g>
   <g id="PathCollection_1">
    <defs>
     <path id="m3968a94aa6" d="M 0 7.071068 
C 1.875269 7.071068 3.673985 6.326016 5 5 
C 6.326016 3.673985 7.071068 1.875269 7.071068 0 
C 7.071068 -1.875269 6.326016 -3.673985 5 -5 
C 3.673985 -6.326016 1.875269 -7.071068 0 -7.071068 
C -1.875269 -7.071068 -3.673985 -6.326016 -5 -5 
C -6.326016 -3.673985 -7.071068 -1.875269 -7.071068 0 
C -7.071068 1.875269 -6.326016 3.673985 -5 5 
C -3.673985 6.326016 -1.875269 7.071068 0 7.071068 
z
" style="stroke: #505050; stroke-opacity: 0.3"/>
    </defs>
    <g clip-path="url(#peeab86a599)">
     <use xlink:href="#m3968a94aa6" x="117.007197" y="160.634003" style="fill: #505050; fill-opacity: 0.3; stroke: #505050; stroke-opacity: 0.3"/>
     <use xlink:href="#m3968a94aa6" x="83.682574" y="159.526256" style="fill: #505050; fill-opacity: 0.3; stroke: #505050; stroke-opacity: 0.3"/>
     <use xlink:href="#m3968a94aa6" x="124.092181" y="236.438046" style="fill: #505050; fill-opacity: 0.3; stroke: #505050; stroke-opacity: 0.3"/>
     <use xlink:href="#m3968a94aa6" x="74.664673" y="63.338015" style="fill: #505050; fill-opacity: 0.3; stroke: #505050; stroke-opacity: 0.3"/>
     <use xlink:href="#m3968a94aa6" x="376.042191" y="42.478125" style="fill: #505050; fill-opacity: 0.3; stroke: #505050; stroke-opacity: 0.3"/>
     <use xlink:href="#m3968a94aa6" x="154.090779" y="337.527859" style="fill: #505050; fill-opacity: 0.3; stroke: #505050; stroke-opacity: 0.3"/>
     <use xlink:href="#m3968a94aa6" x="55.861716" y="248.622262" style="fill: #505050; fill-opacity: 0.3; stroke: #505050; stroke-opacity: 0.3"/>
     <use xlink:href="#m3968a94aa6" x="33.519474" y="165.167988" style="fill: #505050; fill-opacity: 0.3; stroke: #505050; stroke-opacity: 0.3"/>
     <use xlink:href="#m3968a94aa6" x="433.309091" y="445.678125" style="fill: #505050; fill-opacity: 0.3; stroke: #505050; stroke-opacity: 0.3"/>
    </g>
   </g>
   <g id="PathCollection_2">
    <defs>
     <path id="m6904886960" d="M 0 8.660254 
C 2.296726 8.660254 4.499694 7.747755 6.123724 6.123724 
C 7.747755 4.499694 8.660254 2.296726 8.660254 0 
C 8.660254 -2.296726 7.747755 -4.499694 6.123724 -6.123724 
C 4.499694 -7.747755 2.296726 -8.660254 0 -8.660254 
C -2.296726 -8.660254 -4.499694 -7.747755 -6.123724 -6.123724 
C -7.747755 -4.499694 -8.660254 -2.296726 -8.660254 0 
C -8.660254 2.296726 -7.747755 4.499694 -6.123724 6.123724 
C -4.499694 7.747755 -2.296726 8.660254 0 8.660254 
z
" style="stroke: #ff0000"/>
    </defs>
    <g clip-path="url(#peeab86a599)">
     <use xlink:href="#m6904886960" x="117.007197" y="160.634003" style="fill: #ff0000; stroke: #ff0000"/>
    </g>
   </g>
   <g id="PathCollection_3">
    <defs>
     <path id="mb23bd897e4" d="M 0 7.071068 
C 1.875269 7.071068 3.673985 6.326016 5 5 
C 6.326016 3.673985 7.071068 1.875269 7.071068 0 
C 7.071068 -1.875269 6.326016 -3.673985 5 -5 
C 3.673985 -6.326016 1.875269 -7.071068 0 -7.071068 
C -1.875269 -7.071068 -3.673985 -6.326016 -5 -5 
C -6.326016 -3.673985 -7.071068 -1.875269 -7.071068 0 
C -7.071068 1.875269 -6.326016 3.673985 -5 5 
C -3.673985 6.326016 -1.875269 7.071068 0 7.071068 
z
" style="stroke: #000000"/>
    </defs>
    <g clip-path="url(#peeab86a599)">
     <use xlink:href="#mb23bd897e4" x="376.042191" y="42.478125" style="stroke: #000000"/>
     <use xlink:href="#mb23bd897e4" x="433.309091" y="445.678125" style="stroke: #000000"/>
    </g>
   </g>
   <g id="patch_16">
    <path d="M 7.2 465.838125 
L 7.2 22.318125 
" style="fill: none; stroke: #000000; stroke-width: 0.8; stroke-linejoin: miter; stroke-linecap: square"/>
   </g>
   <g id="patch_17">
    <path d="M 453.6 465.838125 
L 453.6 22.318125 
" style="fill: none; stroke: #000000; stroke-width: 0.8; stroke-linejoin: miter; stroke-linecap: square"/>
   </g>
   <g id="patch_18">
    <path d="M 7.2 465.838125 
L 453.6 465.838125 
" style="fill: none; stroke: #000000; stroke-width: 0.8; stroke-linejoin: miter; stroke-linecap: square"/>
   </g>
   <g id="patch_19">
    <path d="M 7.2 22.318125 
L 453.6 22.318125 
" style="fill: none; stroke: #000000; stroke-width: 0.8; stroke-linejoin: miter; stroke-linecap: square"/>
   </g>
   <g id="text_1">
    <!-- The aggregate follower network of users who participated in a cascade -->
    <g transform="translate(16.726875 16.318125) scale(0.12 -0.12)">
     <defs>
      <path id="DejaVuSans-54" d="M -19 4666 
L 3928 4666 
L 3928 4134 
L 2272 4134 
L 2272 0 
L 1638 0 
L 1638 4134 
L -19 4134 
L -19 4666 
z
" transform="scale(0.015625)"/>
      <path id="DejaVuSans-68" d="M 3513 2113 
L 3513 0 
L 2938 0 
L 2938 2094 
Q 2938 2591 2744 2837 
Q 2550 3084 2163 3084 
Q 1697 3084 1428 2787 
Q 1159 2491 1159 1978 
L 1159 0 
L 581 0 
L 581 4863 
L 1159 4863 
L 1159 2956 
Q 1366 3272 1645 3428 
Q 1925 3584 2291 3584 
Q 2894 3584 3203 3211 
Q 3513 2838 3513 2113 
z
" transform="scale(0.015625)"/>
      <path id="DejaVuSans-65" d="M 3597 1894 
L 3597 1613 
L 953 1613 
Q 991 1019 1311 708 
Q 1631 397 2203 397 
Q 2534 397 2845 478 
Q 3156 559 3463 722 
L 3463 178 
Q 3153 47 2828 -22 
Q 2503 -91 2169 -91 
Q 1331 -91 842 396 
Q 353 884 353 1716 
Q 353 2575 817 3079 
Q 1281 3584 2069 3584 
Q 2775 3584 3186 3129 
Q 3597 2675 3597 1894 
z
M 3022 2063 
Q 3016 2534 2758 2815 
Q 2500 3097 2075 3097 
Q 1594 3097 1305 2825 
Q 1016 2553 972 2059 
L 3022 2063 
z
" transform="scale(0.015625)"/>
      <path id="DejaVuSans-20" transform="scale(0.015625)"/>
      <path id="DejaVuSans-61" d="M 2194 1759 
Q 1497 1759 1228 1600 
Q 959 1441 959 1056 
Q 959 750 1161 570 
Q 1363 391 1709 391 
Q 2188 391 2477 730 
Q 2766 1069 2766 1631 
L 2766 1759 
L 2194 1759 
z
M 3341 1997 
L 3341 0 
L 2766 0 
L 2766 531 
Q 2569 213 2275 61 
Q 1981 -91 1556 -91 
Q 1019 -91 701 211 
Q 384 513 384 1019 
Q 384 1609 779 1909 
Q 1175 2209 1959 2209 
L 2766 2209 
L 2766 2266 
Q 2766 2663 2505 2880 
Q 2244 3097 1772 3097 
Q 1472 3097 1187 3025 
Q 903 2953 641 2809 
L 641 3341 
Q 956 3463 1253 3523 
Q 1550 3584 1831 3584 
Q 2591 3584 2966 3190 
Q 3341 2797 3341 1997 
z
" transform="scale(0.015625)"/>
      <path id="DejaVuSans-67" d="M 2906 1791 
Q 2906 2416 2648 2759 
Q 2391 3103 1925 3103 
Q 1463 3103 1205 2759 
Q 947 2416 947 1791 
Q 947 1169 1205 825 
Q 1463 481 1925 481 
Q 2391 481 2648 825 
Q 2906 1169 2906 1791 
z
M 3481 434 
Q 3481 -459 3084 -895 
Q 2688 -1331 1869 -1331 
Q 1566 -1331 1297 -1286 
Q 1028 -1241 775 -1147 
L 775 -588 
Q 1028 -725 1275 -790 
Q 1522 -856 1778 -856 
Q 2344 -856 2625 -561 
Q 2906 -266 2906 331 
L 2906 616 
Q 2728 306 2450 153 
Q 2172 0 1784 0 
Q 1141 0 747 490 
Q 353 981 353 1791 
Q 353 2603 747 3093 
Q 1141 3584 1784 3584 
Q 2172 3584 2450 3431 
Q 2728 3278 2906 2969 
L 2906 3500 
L 3481 3500 
L 3481 434 
z
" transform="scale(0.015625)"/>
      <path id="DejaVuSans-72" d="M 2631 2963 
Q 2534 3019 2420 3045 
Q 2306 3072 2169 3072 
Q 1681 3072 1420 2755 
Q 1159 2438 1159 1844 
L 1159 0 
L 581 0 
L 581 3500 
L 1159 3500 
L 1159 2956 
Q 1341 3275 1631 3429 
Q 1922 3584 2338 3584 
Q 2397 3584 2469 3576 
Q 2541 3569 2628 3553 
L 2631 2963 
z
" transform="scale(0.015625)"/>
      <path id="DejaVuSans-74" d="M 1172 4494 
L 1172 3500 
L 2356 3500 
L 2356 3053 
L 1172 3053 
L 1172 1153 
Q 1172 725 1289 603 
Q 1406 481 1766 481 
L 2356 481 
L 2356 0 
L 1766 0 
Q 1100 0 847 248 
Q 594 497 594 1153 
L 594 3053 
L 172 3053 
L 172 3500 
L 594 3500 
L 594 4494 
L 1172 4494 
z
" transform="scale(0.015625)"/>
      <path id="DejaVuSans-66" d="M 2375 4863 
L 2375 4384 
L 1825 4384 
Q 1516 4384 1395 4259 
Q 1275 4134 1275 3809 
L 1275 3500 
L 2222 3500 
L 2222 3053 
L 1275 3053 
L 1275 0 
L 697 0 
L 697 3053 
L 147 3053 
L 147 3500 
L 697 3500 
L 697 3744 
Q 697 4328 969 4595 
Q 1241 4863 1831 4863 
L 2375 4863 
z
" transform="scale(0.015625)"/>
      <path id="DejaVuSans-6f" d="M 1959 3097 
Q 1497 3097 1228 2736 
Q 959 2375 959 1747 
Q 959 1119 1226 758 
Q 1494 397 1959 397 
Q 2419 397 2687 759 
Q 2956 1122 2956 1747 
Q 2956 2369 2687 2733 
Q 2419 3097 1959 3097 
z
M 1959 3584 
Q 2709 3584 3137 3096 
Q 3566 2609 3566 1747 
Q 3566 888 3137 398 
Q 2709 -91 1959 -91 
Q 1206 -91 779 398 
Q 353 888 353 1747 
Q 353 2609 779 3096 
Q 1206 3584 1959 3584 
z
" transform="scale(0.015625)"/>
      <path id="DejaVuSans-6c" d="M 603 4863 
L 1178 4863 
L 1178 0 
L 603 0 
L 603 4863 
z
" transform="scale(0.015625)"/>
      <path id="DejaVuSans-77" d="M 269 3500 
L 844 3500 
L 1563 769 
L 2278 3500 
L 2956 3500 
L 3675 769 
L 4391 3500 
L 4966 3500 
L 4050 0 
L 3372 0 
L 2619 2869 
L 1863 0 
L 1184 0 
L 269 3500 
z
" transform="scale(0.015625)"/>
      <path id="DejaVuSans-6e" d="M 3513 2113 
L 3513 0 
L 2938 0 
L 2938 2094 
Q 2938 2591 2744 2837 
Q 2550 3084 2163 3084 
Q 1697 3084 1428 2787 
Q 1159 2491 1159 1978 
L 1159 0 
L 581 0 
L 581 3500 
L 1159 3500 
L 1159 2956 
Q 1366 3272 1645 3428 
Q 1925 3584 2291 3584 
Q 2894 3584 3203 3211 
Q 3513 2838 3513 2113 
z
" transform="scale(0.015625)"/>
      <path id="DejaVuSans-6b" d="M 581 4863 
L 1159 4863 
L 1159 1991 
L 2875 3500 
L 3609 3500 
L 1753 1863 
L 3688 0 
L 2938 0 
L 1159 1709 
L 1159 0 
L 581 0 
L 581 4863 
z
" transform="scale(0.015625)"/>
      <path id="DejaVuSans-75" d="M 544 1381 
L 544 3500 
L 1119 3500 
L 1119 1403 
Q 1119 906 1312 657 
Q 1506 409 1894 409 
Q 2359 409 2629 706 
Q 2900 1003 2900 1516 
L 2900 3500 
L 3475 3500 
L 3475 0 
L 2900 0 
L 2900 538 
Q 2691 219 2414 64 
Q 2138 -91 1772 -91 
Q 1169 -91 856 284 
Q 544 659 544 1381 
z
M 1991 3584 
L 1991 3584 
z
" transform="scale(0.015625)"/>
      <path id="DejaVuSans-73" d="M 2834 3397 
L 2834 2853 
Q 2591 2978 2328 3040 
Q 2066 3103 1784 3103 
Q 1356 3103 1142 2972 
Q 928 2841 928 2578 
Q 928 2378 1081 2264 
Q 1234 2150 1697 2047 
L 1894 2003 
Q 2506 1872 2764 1633 
Q 3022 1394 3022 966 
Q 3022 478 2636 193 
Q 2250 -91 1575 -91 
Q 1294 -91 989 -36 
Q 684 19 347 128 
L 347 722 
Q 666 556 975 473 
Q 1284 391 1588 391 
Q 1994 391 2212 530 
Q 2431 669 2431 922 
Q 2431 1156 2273 1281 
Q 2116 1406 1581 1522 
L 1381 1569 
Q 847 1681 609 1914 
Q 372 2147 372 2553 
Q 372 3047 722 3315 
Q 1072 3584 1716 3584 
Q 2034 3584 2315 3537 
Q 2597 3491 2834 3397 
z
" transform="scale(0.015625)"/>
      <path id="DejaVuSans-70" d="M 1159 525 
L 1159 -1331 
L 581 -1331 
L 581 3500 
L 1159 3500 
L 1159 2969 
Q 1341 3281 1617 3432 
Q 1894 3584 2278 3584 
Q 2916 3584 3314 3078 
Q 3713 2572 3713 1747 
Q 3713 922 3314 415 
Q 2916 -91 2278 -91 
Q 1894 -91 1617 61 
Q 1341 213 1159 525 
z
M 3116 1747 
Q 3116 2381 2855 2742 
Q 2594 3103 2138 3103 
Q 1681 3103 1420 2742 
Q 1159 2381 1159 1747 
Q 1159 1113 1420 752 
Q 1681 391 2138 391 
Q 2594 391 2855 752 
Q 3116 1113 3116 1747 
z
" transform="scale(0.015625)"/>
      <path id="DejaVuSans-69" d="M 603 3500 
L 1178 3500 
L 1178 0 
L 603 0 
L 603 3500 
z
M 603 4863 
L 1178 4863 
L 1178 4134 
L 603 4134 
L 603 4863 
z
" transform="scale(0.015625)"/>
      <path id="DejaVuSans-63" d="M 3122 3366 
L 3122 2828 
Q 2878 2963 2633 3030 
Q 2388 3097 2138 3097 
Q 1578 3097 1268 2742 
Q 959 2388 959 1747 
Q 959 1106 1268 751 
Q 1578 397 2138 397 
Q 2388 397 2633 464 
Q 2878 531 3122 666 
L 3122 134 
Q 2881 22 2623 -34 
Q 2366 -91 2075 -91 
Q 1284 -91 818 406 
Q 353 903 353 1747 
Q 353 2603 823 3093 
Q 1294 3584 2113 3584 
Q 2378 3584 2631 3529 
Q 2884 3475 3122 3366 
z
" transform="scale(0.015625)"/>
      <path id="DejaVuSans-64" d="M 2906 2969 
L 2906 4863 
L 3481 4863 
L 3481 0 
L 2906 0 
L 2906 525 
Q 2725 213 2448 61 
Q 2172 -91 1784 -91 
Q 1150 -91 751 415 
Q 353 922 353 1747 
Q 353 2572 751 3078 
Q 1150 3584 1784 3584 
Q 2172 3584 2448 3432 
Q 2725 3281 2906 2969 
z
M 947 1747 
Q 947 1113 1208 752 
Q 1469 391 1925 391 
Q 2381 391 2643 752 
Q 2906 1113 2906 1747 
Q 2906 2381 2643 2742 
Q 2381 3103 1925 3103 
Q 1469 3103 1208 2742 
Q 947 2381 947 1747 
z
" transform="scale(0.015625)"/>
     </defs>
     <use xlink:href="#DejaVuSans-54"/>
     <use xlink:href="#DejaVuSans-68" x="61.083984"/>
     <use xlink:href="#DejaVuSans-65" x="124.462891"/>
     <use xlink:href="#DejaVuSans-20" x="185.986328"/>
     <use xlink:href="#DejaVuSans-61" x="217.773438"/>
     <use xlink:href="#DejaVuSans-67" x="279.052734"/>
     <use xlink:href="#DejaVuSans-67" x="342.529297"/>
     <use xlink:href="#DejaVuSans-72" x="406.005859"/>
     <use xlink:href="#DejaVuSans-65" x="444.869141"/>
     <use xlink:href="#DejaVuSans-67" x="506.392578"/>
     <use xlink:href="#DejaVuSans-61" x="569.869141"/>
     <use xlink:href="#DejaVuSans-74" x="631.148438"/>
     <use xlink:href="#DejaVuSans-65" x="670.357422"/>
     <use xlink:href="#DejaVuSans-20" x="731.880859"/>
     <use xlink:href="#DejaVuSans-66" x="763.667969"/>
     <use xlink:href="#DejaVuSans-6f" x="798.873047"/>
     <use xlink:href="#DejaVuSans-6c" x="860.054688"/>
     <use xlink:href="#DejaVuSans-6c" x="887.837891"/>
     <use xlink:href="#DejaVuSans-6f" x="915.621094"/>
     <use xlink:href="#DejaVuSans-77" x="976.802734"/>
     <use xlink:href="#DejaVuSans-65" x="1058.589844"/>
     <use xlink:href="#DejaVuSans-72" x="1120.113281"/>
     <use xlink:href="#DejaVuSans-20" x="1161.226562"/>
     <use xlink:href="#DejaVuSans-6e" x="1193.013672"/>
     <use xlink:href="#DejaVuSans-65" x="1256.392578"/>
     <use xlink:href="#DejaVuSans-74" x="1317.916016"/>
     <use xlink:href="#DejaVuSans-77" x="1357.125"/>
     <use xlink:href="#DejaVuSans-6f" x="1438.912109"/>
     <use xlink:href="#DejaVuSans-72" x="1500.09375"/>
     <use xlink:href="#DejaVuSans-6b" x="1541.207031"/>
     <use xlink:href="#DejaVuSans-20" x="1599.117188"/>
     <use xlink:href="#DejaVuSans-6f" x="1630.904297"/>
     <use xlink:href="#DejaVuSans-66" x="1692.085938"/>
     <use xlink:href="#DejaVuSans-20" x="1727.291016"/>
     <use xlink:href="#DejaVuSans-75" x="1759.078125"/>
     <use xlink:href="#DejaVuSans-73" x="1822.457031"/>
     <use xlink:href="#DejaVuSans-65" x="1874.556641"/>
     <use xlink:href="#DejaVuSans-72" x="1936.080078"/>
     <use xlink:href="#DejaVuSans-73" x="1977.193359"/>
     <use xlink:href="#DejaVuSans-20" x="2029.292969"/>
     <use xlink:href="#DejaVuSans-77" x="2061.080078"/>
     <use xlink:href="#DejaVuSans-68" x="2142.867188"/>
     <use xlink:href="#DejaVuSans-6f" x="2206.246094"/>
     <use xlink:href="#DejaVuSans-20" x="2267.427734"/>
     <use xlink:href="#DejaVuSans-70" x="2299.214844"/>
     <use xlink:href="#DejaVuSans-61" x="2362.691406"/>
     <use xlink:href="#DejaVuSans-72" x="2423.970703"/>
     <use xlink:href="#DejaVuSans-74" x="2465.083984"/>
     <use xlink:href="#DejaVuSans-69" x="2504.292969"/>
     <use xlink:href="#DejaVuSans-63" x="2532.076172"/>
     <use xlink:href="#DejaVuSans-69" x="2587.056641"/>
     <use xlink:href="#DejaVuSans-70" x="2614.839844"/>
     <use xlink:href="#DejaVuSans-61" x="2678.316406"/>
     <use xlink:href="#DejaVuSans-74" x="2739.595703"/>
     <use xlink:href="#DejaVuSans-65" x="2778.804688"/>
     <use xlink:href="#DejaVuSans-64" x="2840.328125"/>
     <use xlink:href="#DejaVuSans-20" x="2903.804688"/>
     <use xlink:href="#DejaVuSans-69" x="2935.591797"/>
     <use xlink:href="#DejaVuSans-6e" x="2963.375"/>
     <use xlink:href="#DejaVuSans-20" x="3026.753906"/>
     <use xlink:href="#DejaVuSans-61" x="3058.541016"/>
     <use xlink:href="#DejaVuSans-20" x="3119.820312"/>
     <use xlink:href="#DejaVuSans-63" x="3151.607422"/>
     <use xlink:href="#DejaVuSans-61" x="3206.587891"/>
     <use xlink:href="#DejaVuSans-73" x="3267.867188"/>
     <use xlink:href="#DejaVuSans-63" x="3319.966797"/>
     <use xlink:href="#DejaVuSans-61" x="3374.947266"/>
     <use xlink:href="#DejaVuSans-64" x="3436.226562"/>
     <use xlink:href="#DejaVuSans-65" x="3499.703125"/>
    </g>
   </g>
   <g id="legend_1">
    <g id="patch_20">
     <path d="M 14.2 89.030625 
L 147.065625 89.030625 
Q 149.065625 89.030625 149.065625 87.030625 
L 149.065625 29.318125 
Q 149.065625 27.318125 147.065625 27.318125 
L 14.2 27.318125 
Q 12.2 27.318125 12.2 29.318125 
L 12.2 87.030625 
Q 12.2 89.030625 14.2 89.030625 
z
" style="fill: #ffffff; opacity: 0.8; stroke: #cccccc; stroke-linejoin: miter"/>
    </g>
    <g id="line2d_1">
     <path d="M 16.2 35.416562 
L 26.2 35.416562 
L 36.2 35.416562 
" style="fill: none; stroke: #ffffff; stroke-width: 1.5; stroke-linecap: square"/>
     <defs>
      <path id="m69f6984e13" d="M 0 5 
C 1.326016 5 2.597899 4.473168 3.535534 3.535534 
C 4.473168 2.597899 5 1.326016 5 0 
C 5 -1.326016 4.473168 -2.597899 3.535534 -3.535534 
C 2.597899 -4.473168 1.326016 -5 0 -5 
C -1.326016 -5 -2.597899 -4.473168 -3.535534 -3.535534 
C -4.473168 -2.597899 -5 -1.326016 -5 0 
C -5 1.326016 -4.473168 2.597899 -3.535534 3.535534 
C -2.597899 4.473168 -1.326016 5 0 5 
z
" style="stroke: #ffffff"/>
     </defs>
     <g>
      <use xlink:href="#m69f6984e13" x="26.2" y="35.416562" style="fill: #ff0000; stroke: #ffffff"/>
     </g>
    </g>
    <g id="text_2">
     <!-- Source node -->
     <g transform="translate(44.2 38.916562) scale(0.1 -0.1)">
      <defs>
       <path id="DejaVuSans-53" d="M 3425 4513 
L 3425 3897 
Q 3066 4069 2747 4153 
Q 2428 4238 2131 4238 
Q 1616 4238 1336 4038 
Q 1056 3838 1056 3469 
Q 1056 3159 1242 3001 
Q 1428 2844 1947 2747 
L 2328 2669 
Q 3034 2534 3370 2195 
Q 3706 1856 3706 1288 
Q 3706 609 3251 259 
Q 2797 -91 1919 -91 
Q 1588 -91 1214 -16 
Q 841 59 441 206 
L 441 856 
Q 825 641 1194 531 
Q 1563 422 1919 422 
Q 2459 422 2753 634 
Q 3047 847 3047 1241 
Q 3047 1584 2836 1778 
Q 2625 1972 2144 2069 
L 1759 2144 
Q 1053 2284 737 2584 
Q 422 2884 422 3419 
Q 422 4038 858 4394 
Q 1294 4750 2059 4750 
Q 2388 4750 2728 4690 
Q 3069 4631 3425 4513 
z
" transform="scale(0.015625)"/>
      </defs>
      <use xlink:href="#DejaVuSans-53"/>
      <use xlink:href="#DejaVuSans-6f" x="63.476562"/>
      <use xlink:href="#DejaVuSans-75" x="124.658203"/>
      <use xlink:href="#DejaVuSans-72" x="188.037109"/>
      <use xlink:href="#DejaVuSans-63" x="226.900391"/>
      <use xlink:href="#DejaVuSans-65" x="281.880859"/>
      <use xlink:href="#DejaVuSans-20" x="343.404297"/>
      <use xlink:href="#DejaVuSans-6e" x="375.191406"/>
      <use xlink:href="#DejaVuSans-6f" x="438.570312"/>
      <use xlink:href="#DejaVuSans-64" x="499.751953"/>
      <use xlink:href="#DejaVuSans-65" x="563.228516"/>
     </g>
    </g>
    <g id="line2d_2">
     <path d="M 16.2 50.094687 
L 26.2 50.094687 
L 36.2 50.094687 
" style="fill: none; stroke: #ffffff; stroke-opacity: 0.4; stroke-width: 1.5; stroke-linecap: square"/>
     <defs>
      <path id="m6ac78fdf0a" d="M 0 5 
C 1.326016 5 2.597899 4.473168 3.535534 3.535534 
C 4.473168 2.597899 5 1.326016 5 0 
C 5 -1.326016 4.473168 -2.597899 3.535534 -3.535534 
C 2.597899 -4.473168 1.326016 -5 0 -5 
C -1.326016 -5 -2.597899 -4.473168 -3.535534 -3.535534 
C -4.473168 -2.597899 -5 -1.326016 -5 0 
C -5 1.326016 -4.473168 2.597899 -3.535534 3.535534 
C -2.597899 4.473168 -1.326016 5 0 5 
z
" style="stroke: #ffffff; stroke-opacity: 0.4"/>
     </defs>
     <g>
      <use xlink:href="#m6ac78fdf0a" x="26.2" y="50.094687" style="fill: #505050; fill-opacity: 0.4; stroke: #ffffff; stroke-opacity: 0.4"/>
     </g>
    </g>
    <g id="text_3">
     <!-- Retweeter (center) -->
     <g transform="translate(44.2 53.594687) scale(0.1 -0.1)">
      <defs>
       <path id="DejaVuSans-52" d="M 2841 2188 
Q 3044 2119 3236 1894 
Q 3428 1669 3622 1275 
L 4263 0 
L 3584 0 
L 2988 1197 
Q 2756 1666 2539 1819 
Q 2322 1972 1947 1972 
L 1259 1972 
L 1259 0 
L 628 0 
L 628 4666 
L 2053 4666 
Q 2853 4666 3247 4331 
Q 3641 3997 3641 3322 
Q 3641 2881 3436 2590 
Q 3231 2300 2841 2188 
z
M 1259 4147 
L 1259 2491 
L 2053 2491 
Q 2509 2491 2742 2702 
Q 2975 2913 2975 3322 
Q 2975 3731 2742 3939 
Q 2509 4147 2053 4147 
L 1259 4147 
z
" transform="scale(0.015625)"/>
       <path id="DejaVuSans-28" d="M 1984 4856 
Q 1566 4138 1362 3434 
Q 1159 2731 1159 2009 
Q 1159 1288 1364 580 
Q 1569 -128 1984 -844 
L 1484 -844 
Q 1016 -109 783 600 
Q 550 1309 550 2009 
Q 550 2706 781 3412 
Q 1013 4119 1484 4856 
L 1984 4856 
z
" transform="scale(0.015625)"/>
       <path id="DejaVuSans-29" d="M 513 4856 
L 1013 4856 
Q 1481 4119 1714 3412 
Q 1947 2706 1947 2009 
Q 1947 1309 1714 600 
Q 1481 -109 1013 -844 
L 513 -844 
Q 928 -128 1133 580 
Q 1338 1288 1338 2009 
Q 1338 2731 1133 3434 
Q 928 4138 513 4856 
z
" transform="scale(0.015625)"/>
      </defs>
      <use xlink:href="#DejaVuSans-52"/>
      <use xlink:href="#DejaVuSans-65" x="64.982422"/>
      <use xlink:href="#DejaVuSans-74" x="126.505859"/>
      <use xlink:href="#DejaVuSans-77" x="165.714844"/>
      <use xlink:href="#DejaVuSans-65" x="247.501953"/>
      <use xlink:href="#DejaVuSans-65" x="309.025391"/>
      <use xlink:href="#DejaVuSans-74" x="370.548828"/>
      <use xlink:href="#DejaVuSans-65" x="409.757812"/>
      <use xlink:href="#DejaVuSans-72" x="471.28125"/>
      <use xlink:href="#DejaVuSans-20" x="512.394531"/>
      <use xlink:href="#DejaVuSans-28" x="544.181641"/>
      <use xlink:href="#DejaVuSans-63" x="583.195312"/>
      <use xlink:href="#DejaVuSans-65" x="638.175781"/>
      <use xlink:href="#DejaVuSans-6e" x="699.699219"/>
      <use xlink:href="#DejaVuSans-74" x="763.078125"/>
      <use xlink:href="#DejaVuSans-65" x="802.287109"/>
      <use xlink:href="#DejaVuSans-72" x="863.810547"/>
      <use xlink:href="#DejaVuSans-29" x="904.923828"/>
     </g>
    </g>
    <g id="line2d_3">
     <path d="M 16.2 64.772812 
L 26.2 64.772812 
L 36.2 64.772812 
" style="fill: none; stroke: #ffffff; stroke-width: 1.5; stroke-linecap: square"/>
     <defs>
      <path id="maa83040e70" d="M 0 5 
C 1.326016 5 2.597899 4.473168 3.535534 3.535534 
C 4.473168 2.597899 5 1.326016 5 0 
C 5 -1.326016 4.473168 -2.597899 3.535534 -3.535534 
C 2.597899 -4.473168 1.326016 -5 0 -5 
C -1.326016 -5 -2.597899 -4.473168 -3.535534 -3.535534 
C -4.473168 -2.597899 -5 -1.326016 -5 0 
C -5 1.326016 -4.473168 2.597899 -3.535534 3.535534 
C -2.597899 4.473168 -1.326016 5 0 5 
z
" style="stroke: #ffffff"/>
     </defs>
     <g>
      <use xlink:href="#maa83040e70" x="26.2" y="64.772812" style="fill: #eeeeee; stroke: #ffffff"/>
     </g>
    </g>
    <g id="text_4">
     <!-- Follower (periphery) -->
     <g transform="translate(44.2 68.272812) scale(0.1 -0.1)">
      <defs>
       <path id="DejaVuSans-46" d="M 628 4666 
L 3309 4666 
L 3309 4134 
L 1259 4134 
L 1259 2759 
L 3109 2759 
L 3109 2228 
L 1259 2228 
L 1259 0 
L 628 0 
L 628 4666 
z
" transform="scale(0.015625)"/>
       <path id="DejaVuSans-79" d="M 2059 -325 
Q 1816 -950 1584 -1140 
Q 1353 -1331 966 -1331 
L 506 -1331 
L 506 -850 
L 844 -850 
Q 1081 -850 1212 -737 
Q 1344 -625 1503 -206 
L 1606 56 
L 191 3500 
L 800 3500 
L 1894 763 
L 2988 3500 
L 3597 3500 
L 2059 -325 
z
" transform="scale(0.015625)"/>
      </defs>
      <use xlink:href="#DejaVuSans-46"/>
      <use xlink:href="#DejaVuSans-6f" x="53.894531"/>
      <use xlink:href="#DejaVuSans-6c" x="115.076172"/>
      <use xlink:href="#DejaVuSans-6c" x="142.859375"/>
      <use xlink:href="#DejaVuSans-6f" x="170.642578"/>
      <use xlink:href="#DejaVuSans-77" x="231.824219"/>
      <use xlink:href="#DejaVuSans-65" x="313.611328"/>
      <use xlink:href="#DejaVuSans-72" x="375.134766"/>
      <use xlink:href="#DejaVuSans-20" x="416.248047"/>
      <use xlink:href="#DejaVuSans-28" x="448.035156"/>
      <use xlink:href="#DejaVuSans-70" x="487.048828"/>
      <use xlink:href="#DejaVuSans-65" x="550.525391"/>
      <use xlink:href="#DejaVuSans-72" x="612.048828"/>
      <use xlink:href="#DejaVuSans-69" x="653.162109"/>
      <use xlink:href="#DejaVuSans-70" x="680.945312"/>
      <use xlink:href="#DejaVuSans-68" x="744.421875"/>
      <use xlink:href="#DejaVuSans-65" x="807.800781"/>
      <use xlink:href="#DejaVuSans-72" x="869.324219"/>
      <use xlink:href="#DejaVuSans-79" x="910.4375"/>
      <use xlink:href="#DejaVuSans-29" x="969.617188"/>
     </g>
    </g>
    <g id="line2d_4">
     <path d="M 16.2 79.450937 
L 26.2 79.450937 
L 36.2 79.450937 
" style="fill: none; stroke: #e2e2e2; stroke-width: 1.5; stroke-linecap: square"/>
    </g>
    <g id="text_5">
     <!-- Followed by -->
     <g transform="translate(44.2 82.950937) scale(0.1 -0.1)">
      <defs>
       <path id="DejaVuSans-62" d="M 3116 1747 
Q 3116 2381 2855 2742 
Q 2594 3103 2138 3103 
Q 1681 3103 1420 2742 
Q 1159 2381 1159 1747 
Q 1159 1113 1420 752 
Q 1681 391 2138 391 
Q 2594 391 2855 752 
Q 3116 1113 3116 1747 
z
M 1159 2969 
Q 1341 3281 1617 3432 
Q 1894 3584 2278 3584 
Q 2916 3584 3314 3078 
Q 3713 2572 3713 1747 
Q 3713 922 3314 415 
Q 2916 -91 2278 -91 
Q 1894 -91 1617 61 
Q 1341 213 1159 525 
L 1159 0 
L 581 0 
L 581 4863 
L 1159 4863 
L 1159 2969 
z
" transform="scale(0.015625)"/>
      </defs>
      <use xlink:href="#DejaVuSans-46"/>
      <use xlink:href="#DejaVuSans-6f" x="53.894531"/>
      <use xlink:href="#DejaVuSans-6c" x="115.076172"/>
      <use xlink:href="#DejaVuSans-6c" x="142.859375"/>
      <use xlink:href="#DejaVuSans-6f" x="170.642578"/>
      <use xlink:href="#DejaVuSans-77" x="231.824219"/>
      <use xlink:href="#DejaVuSans-65" x="313.611328"/>
      <use xlink:href="#DejaVuSans-64" x="375.134766"/>
      <use xlink:href="#DejaVuSans-20" x="438.611328"/>
      <use xlink:href="#DejaVuSans-62" x="470.398438"/>
      <use xlink:href="#DejaVuSans-79" x="533.875"/>
     </g>
    </g>
   </g>
  </g>
 </g>
 <defs>
  <clipPath id="peeab86a599">
   <rect x="7.2" y="22.318125" width="446.4" height="443.52"/>
  </clipPath>
 </defs>
</svg>
