<?xml version="1.0" encoding="utf-8" standalone="no"?>
<!DOCTYPE svg PUBLIC "-//W3C//DTD SVG 1.1//EN"
  "http://www.w3.org/Graphics/SVG/1.1/DTD/svg11.dtd">
<svg xmlns:xlink="http://www.w3.org/1999/xlink" width="460.8pt" height="472.381875pt" viewBox="0 0 460.8 472.381875" xmlns="http://www.w3.org/2000/svg" version="1.1">
 <metadata>
  <rdf:RDF xmlns:dc="http://purl.org/dc/elements/1.1/" xmlns:cc="http://creativecommons.org/ns#" xmlns:rdf="http://www.w3.org/1999/02/22-rdf-syntax-ns#">
   <cc:Work>
    <dc:type rdf:resource="http://purl.org/dc/dcmitype/StillImage"/>
    <dc:date>2024-03-05T14:57:16.403367</dc:date>
    <dc:format>image/svg+xml</dc:format>
    <dc:creator>
     <cc:Agent>
      <dc:title>Matplotlib v3.8.2, https://matplotlib.org/</dc:title>
     </cc:Agent>
    </dc:creator>
   </cc:Work>
  </rdf:RDF>
 </metadata>
 <defs>
  <style type="text/css">*{stroke-linejoin: round; stroke-linecap: butt}</style>
 </defs>
 <g id="figure_1">
  <g id="patch_1">
   <path d="M 0 472.381875 
L 460.8 472.381875 
L 460.8 0 
L 0 0 
z
" style="fill: #ffffff"/>
  </g>
  <g id="axes_1">
   <g id="patch_2">
    <path d="M 7.2 465.181875 
L 453.6 465.181875 
L 453.6 21.661875 
L 7.2 21.661875 
z
" style="fill: #ffffff"/>
   </g>
   <g id="matplotlib.axis_1">
    <g id="xtick_1"/>
    <g id="xtick_2"/>
    <g id="xtick_3"/>
    <g id="xtick_4"/>
    <g id="xtick_5"/>
   </g>
   <g id="matplotlib.axis_2">
    <g id="ytick_1"/>
    <g id="ytick_2"/>
    <g id="ytick_3"/>
    <g id="ytick_4"/>
    <g id="ytick_5"/>
   </g>
   <g id="patch_3">
    <path d="M 213.982024 270.464923 
Q 244.758667 334.099933 275.145881 396.929744 
" clip-path="url(#p3ca1436332)" style="fill: none; stroke: #000000; stroke-opacity: 0.3; stroke-width: 0.8; stroke-linecap: round"/>
    <path d="M 275.181221 394.246695 
L 275.145881 396.929744 
L 273.020646 395.291643 
z
" clip-path="url(#p3ca1436332)" style="fill-opacity: 0.3; stroke: #000000; stroke-opacity: 0.3; stroke-width: 0.8; stroke-linecap: round"/>
   </g>
   <g id="patch_4">
    <path d="M 204.058787 265.873692 
Q 142.298223 281.843696 81.403605 297.589784 
" clip-path="url(#p3ca1436332)" style="fill: none; stroke: #000000; stroke-opacity: 0.3; stroke-width: 0.8; stroke-linecap: round"/>
    <path d="M 84.027595 298.150743 
L 81.403605 297.589784 
L 83.426766 295.827167 
z
" clip-path="url(#p3ca1436332)" style="fill-opacity: 0.3; stroke: #000000; stroke-opacity: 0.3; stroke-width: 0.8; stroke-linecap: round"/>
   </g>
   <g id="patch_5">
    <path d="M 213.032869 257.361372 
Q 241.469522 167.250496 269.637002 77.992583 
" clip-path="url(#p3ca1436332)" style="fill: none; stroke: #000000; stroke-opacity: 0.3; stroke-width: 0.8; stroke-linecap: round"/>
    <path d="M 267.770365 79.920189 
L 269.637002 77.992583 
L 270.059105 80.642456 
z
" clip-path="url(#p3ca1436332)" style="fill-opacity: 0.3; stroke: #000000; stroke-opacity: 0.3; stroke-width: 0.8; stroke-linecap: round"/>
   </g>
   <g id="patch_6">
    <path d="M 216.693216 268.161616 
Q 285.543153 316.43665 353.660748 364.198193 
" clip-path="url(#p3ca1436332)" style="fill: none; stroke: #000000; stroke-opacity: 0.3; stroke-width: 0.8; stroke-linecap: round"/>
    <path d="M 352.384587 361.837809 
L 353.660748 364.198193 
L 351.006744 363.802891 
z
" clip-path="url(#p3ca1436332)" style="fill-opacity: 0.3; stroke: #000000; stroke-opacity: 0.3; stroke-width: 0.8; stroke-linecap: round"/>
   </g>
   <g id="patch_7">
    <path d="M 206.935047 269.956425 
Q 164.424314 332.627607 122.415672 394.558584 
" clip-path="url(#p3ca1436332)" style="fill: none; stroke: #000000; stroke-opacity: 0.3; stroke-width: 0.8; stroke-linecap: round"/>
    <path d="M 124.756015 393.246031 
L 122.415672 394.558584 
L 122.769835 391.898778 
z
" clip-path="url(#p3ca1436332)" style="fill-opacity: 0.3; stroke: #000000; stroke-opacity: 0.3; stroke-width: 0.8; stroke-linecap: round"/>
   </g>
   <g id="patch_8">
    <path d="M 207.685636 257.8088 
Q 169.516473 183.186654 131.754619 109.360812 
" clip-path="url(#p3ca1436332)" style="fill: none; stroke: #000000; stroke-opacity: 0.3; stroke-width: 0.8; stroke-linecap: round"/>
    <path d="M 131.779189 112.043981 
L 131.754619 109.360812 
L 133.915896 110.951057 
z
" clip-path="url(#p3ca1436332)" style="fill-opacity: 0.3; stroke: #000000; stroke-opacity: 0.3; stroke-width: 0.8; stroke-linecap: round"/>
   </g>
   <g id="patch_9">
    <path d="M 197.5712 242.884704 
Q 236.504291 320.333072 275.035659 396.982304 
" clip-path="url(#p3ca1436332)" style="fill: none; stroke: #000000; stroke-opacity: 0.3; stroke-width: 0.8; stroke-linecap: round"/>
    <path d="M 275.029875 394.299029 
L 275.035659 396.982304 
L 272.885568 395.376966 
z
" clip-path="url(#p3ca1436332)" style="fill-opacity: 0.3; stroke: #000000; stroke-opacity: 0.3; stroke-width: 0.8; stroke-linecap: round"/>
   </g>
   <g id="patch_10">
    <path d="M 193.511192 229.550067 
Q 183.543287 150.470166 173.687237 72.277671 
" clip-path="url(#p3ca1436332)" style="fill: none; stroke: #000000; stroke-opacity: 0.3; stroke-width: 0.8; stroke-linecap: round"/>
    <path d="M 172.796799 74.8089 
L 173.687237 72.277671 
L 175.177958 74.508759 
z
" clip-path="url(#p3ca1436332)" style="fill-opacity: 0.3; stroke: #000000; stroke-opacity: 0.3; stroke-width: 0.8; stroke-linecap: round"/>
   </g>
   <g id="patch_11">
    <path d="M 196.324828 243.367812 
Q 220.92149 330.070856 245.274045 415.913427 
" clip-path="url(#p3ca1436332)" style="fill: none; stroke: #000000; stroke-opacity: 0.3; stroke-width: 0.8; stroke-linecap: round"/>
    <path d="M 245.773484 413.277036 
L 245.274045 415.913427 
L 243.464595 413.932041 
z
" clip-path="url(#p3ca1436332)" style="fill-opacity: 0.3; stroke: #000000; stroke-opacity: 0.3; stroke-width: 0.8; stroke-linecap: round"/>
   </g>
   <g id="patch_12">
    <path d="M 200.147373 232.45725 
Q 276.231495 178.079304 351.587937 124.221436 
" clip-path="url(#p3ca1436332)" style="fill: none; stroke: #000000; stroke-opacity: 0.3; stroke-width: 0.8; stroke-linecap: round"/>
    <path d="M 348.937608 124.640669 
L 351.587937 124.221436 
L 350.333126 126.593239 
z
" clip-path="url(#p3ca1436332)" style="fill-opacity: 0.3; stroke: #000000; stroke-opacity: 0.3; stroke-width: 0.8; stroke-linecap: round"/>
   </g>
   <g id="patch_13">
    <path d="M 190.437051 242.424069 
Q 151.011892 300.745259 112.087649 358.325448 
" clip-path="url(#p3ca1436332)" style="fill: none; stroke: #000000; stroke-opacity: 0.3; stroke-width: 0.8; stroke-linecap: round"/>
    <path d="M 114.425907 357.009184 
L 112.087649 358.325448 
L 112.437593 355.665083 
z
" clip-path="url(#p3ca1436332)" style="fill-opacity: 0.3; stroke: #000000; stroke-opacity: 0.3; stroke-width: 0.8; stroke-linecap: round"/>
   </g>
   <g id="patch_14">
    <path d="M 198.416792 242.388144 
Q 253.667212 322.360156 308.409231 401.596283 
" clip-path="url(#p3ca1436332)" style="fill: none; stroke: #000000; stroke-opacity: 0.3; stroke-width: 0.8; stroke-linecap: round"/>
    <path d="M 308.032338 398.939603 
L 308.409231 401.596283 
L 306.057751 400.30379 
z
" clip-path="url(#p3ca1436332)" style="fill-opacity: 0.3; stroke: #000000; stroke-opacity: 0.3; stroke-width: 0.8; stroke-linecap: round"/>
   </g>
   <g id="patch_15">
    <path d="M 192.035121 229.903418 
Q 166.581214 158.042977 141.425944 87.025635 
" clip-path="url(#p3ca1436332)" style="fill: none; stroke: #000000; stroke-opacity: 0.3; stroke-width: 0.8; stroke-linecap: round"/>
    <path d="M 141.096134 89.688571 
L 141.425944 87.025635 
L 143.358406 88.887244 
z
" clip-path="url(#p3ca1436332)" style="fill-opacity: 0.3; stroke: #000000; stroke-opacity: 0.3; stroke-width: 0.8; stroke-linecap: round"/>
   </g>
   <g id="patch_16">
    <path d="M 194.68147 229.501621 
Q 197.961955 148.35916 201.20631 68.110396 
" clip-path="url(#p3ca1436332)" style="fill: none; stroke: #000000; stroke-opacity: 0.3; stroke-width: 0.8; stroke-linecap: round"/>
    <path d="M 199.91034 70.459962 
L 201.20631 68.110396 
L 202.308381 70.556912 
z
" clip-path="url(#p3ca1436332)" style="fill-opacity: 0.3; stroke: #000000; stroke-opacity: 0.3; stroke-width: 0.8; stroke-linecap: round"/>
   </g>
   <g id="patch_17">
    <path d="M 188.227847 233.114289 
Q 129.409307 200.179526 71.371181 167.681746 
" clip-path="url(#p3ca1436332)" style="fill: none; stroke: #000000; stroke-opacity: 0.3; stroke-width: 0.8; stroke-linecap: round"/>
    <path d="M 72.878975 169.901331 
L 71.371181 167.681746 
L 74.051525 167.807261 
z
" clip-path="url(#p3ca1436332)" style="fill-opacity: 0.3; stroke: #000000; stroke-opacity: 0.3; stroke-width: 0.8; stroke-linecap: round"/>
   </g>
   <g id="patch_18">
    <path d="M 190.252394 230.842389 
Q 149.824634 174.977092 109.921239 119.836393 
" clip-path="url(#p3ca1436332)" style="fill: none; stroke: #000000; stroke-opacity: 0.3; stroke-width: 0.8; stroke-linecap: round"/>
    <path d="M 110.35611 122.4842 
L 109.921239 119.836393 
L 112.300408 121.07718 
z
" clip-path="url(#p3ca1436332)" style="fill-opacity: 0.3; stroke: #000000; stroke-opacity: 0.3; stroke-width: 0.8; stroke-linecap: round"/>
   </g>
   <g id="patch_19">
    <path d="M 187.73069 234.204152 
Q 130.349081 213.853524 73.810454 193.801864 
" clip-path="url(#p3ca1436332)" style="fill: none; stroke: #000000; stroke-opacity: 0.3; stroke-width: 0.8; stroke-linecap: round"/>
    <path d="M 75.671305 195.735056 
L 73.810454 193.801864 
L 76.473518 193.473098 
z
" clip-path="url(#p3ca1436332)" style="fill-opacity: 0.3; stroke: #000000; stroke-opacity: 0.3; stroke-width: 0.8; stroke-linecap: round"/>
   </g>
   <g id="patch_20">
    <path d="M 192.025464 243.226857 
Q 168.137997 310.333435 144.550477 376.597379 
" clip-path="url(#p3ca1436332)" style="fill: none; stroke: #000000; stroke-opacity: 0.3; stroke-width: 0.8; stroke-linecap: round"/>
    <path d="M 146.485831 374.738775 
L 144.550477 376.597379 
L 144.224806 373.933934 
z
" clip-path="url(#p3ca1436332)" style="fill-opacity: 0.3; stroke: #000000; stroke-opacity: 0.3; stroke-width: 0.8; stroke-linecap: round"/>
   </g>
   <g id="patch_21">
    <path d="M 259.767296 149.181828 
Q 333.624097 173.525888 406.631427 197.589951 
" clip-path="url(#p3ca1436332)" style="fill: none; stroke: #000000; stroke-opacity: 0.3; stroke-width: 0.8; stroke-linecap: round"/>
    <path d="M 404.727708 195.698958 
L 406.631427 197.589951 
L 403.976401 197.97833 
z
" clip-path="url(#p3ca1436332)" style="fill-opacity: 0.3; stroke: #000000; stroke-opacity: 0.3; stroke-width: 0.8; stroke-linecap: round"/>
   </g>
   <g id="patch_22">
    <path d="M 245.99687 146.463484 
Q 170.981972 141.094662 96.859219 135.78969 
" clip-path="url(#p3ca1436332)" style="fill: none; stroke: #000000; stroke-opacity: 0.3; stroke-width: 0.8; stroke-linecap: round"/>
    <path d="M 99.167431 137.157959 
L 96.859219 135.78969 
L 99.33876 134.764082 
z
" clip-path="url(#p3ca1436332)" style="fill-opacity: 0.3; stroke: #000000; stroke-opacity: 0.3; stroke-width: 0.8; stroke-linecap: round"/>
   </g>
   <g id="patch_23">
    <path d="M 252.785833 139.900103 
Q 251.460367 104.716925 250.168572 70.42754 
" clip-path="url(#p3ca1436332)" style="fill: none; stroke: #000000; stroke-opacity: 0.3; stroke-width: 0.8; stroke-linecap: round"/>
    <path d="M 249.059774 72.871015 
L 250.168572 70.42754 
L 251.458073 72.780663 
z
" clip-path="url(#p3ca1436332)" style="fill-opacity: 0.3; stroke: #000000; stroke-opacity: 0.3; stroke-width: 0.8; stroke-linecap: round"/>
   </g>
   <g id="patch_24">
    <path d="M 256.921062 261.077313 
Q 267.237709 329.09523 277.420228 396.228834 
" clip-path="url(#p3ca1436332)" style="fill: none; stroke: #000000; stroke-opacity: 0.3; stroke-width: 0.8; stroke-linecap: round"/>
    <path d="M 278.246754 393.676021 
L 277.420228 396.228834 
L 275.873893 394.035925 
z
" clip-path="url(#p3ca1436332)" style="fill-opacity: 0.3; stroke: #000000; stroke-opacity: 0.3; stroke-width: 0.8; stroke-linecap: round"/>
   </g>
   <g id="patch_25">
    <path d="M 255.675345 247.015767 
Q 254.456396 200.52618 253.26089 154.930712 
" clip-path="url(#p3ca1436332)" style="fill: none; stroke: #000000; stroke-opacity: 0.3; stroke-width: 0.8; stroke-linecap: round"/>
    <path d="M 252.124209 157.361341 
L 253.26089 154.930712 
L 254.523384 157.298435 
z
" clip-path="url(#p3ca1436332)" style="fill-opacity: 0.3; stroke: #000000; stroke-opacity: 0.3; stroke-width: 0.8; stroke-linecap: round"/>
   </g>
   <g id="patch_26">
    <path d="M 261.715798 250.117972 
Q 324.702056 207.425299 386.947935 165.234462 
" clip-path="url(#p3ca1436332)" style="fill: none; stroke: #000000; stroke-opacity: 0.3; stroke-width: 0.8; stroke-linecap: round"/>
    <path d="M 384.288006 165.587706 
L 386.947935 165.234462 
L 385.634573 167.574351 
z
" clip-path="url(#p3ca1436332)" style="fill-opacity: 0.3; stroke: #000000; stroke-opacity: 0.3; stroke-width: 0.8; stroke-linecap: round"/>
   </g>
   <g id="patch_27">
    <path d="M 258.982558 247.739026 
Q 295.46534 173.558955 331.553387 100.181496 
" clip-path="url(#p3ca1436332)" style="fill: none; stroke: #000000; stroke-opacity: 0.3; stroke-width: 0.8; stroke-linecap: round"/>
    <path d="M 329.417386 101.805534 
L 331.553387 100.181496 
L 331.571017 102.864719 
z
" clip-path="url(#p3ca1436332)" style="fill-opacity: 0.3; stroke: #000000; stroke-opacity: 0.3; stroke-width: 0.8; stroke-linecap: round"/>
   </g>
   <g id="patch_28">
    <path d="M 249.743958 250.54043 
Q 173.411665 206.287403 97.853167 162.482976 
" clip-path="url(#p3ca1436332)" style="fill: none; stroke: #000000; stroke-opacity: 0.3; stroke-width: 0.8; stroke-linecap: round"/>
    <path d="M 99.327613 164.724852 
L 97.853167 162.482976 
L 100.531336 162.648545 
z
" clip-path="url(#p3ca1436332)" style="fill-opacity: 0.3; stroke: #000000; stroke-opacity: 0.3; stroke-width: 0.8; stroke-linecap: round"/>
   </g>
   <g id="patch_29">
    <path d="M 262.746391 255.678815 
Q 329.164171 271.037182 394.71052 286.19404 
" clip-path="url(#p3ca1436332)" style="fill: none; stroke: #000000; stroke-opacity: 0.3; stroke-width: 0.8; stroke-linecap: round"/>
    <path d="M 392.642574 284.484185 
L 394.71052 286.19404 
L 392.101869 286.822484 
z
" clip-path="url(#p3ca1436332)" style="fill-opacity: 0.3; stroke: #000000; stroke-opacity: 0.3; stroke-width: 0.8; stroke-linecap: round"/>
   </g>
   <g id="patch_30">
    <path d="M 255.510136 261.149422 
Q 251.654013 338.829976 247.842235 415.617204 
" clip-path="url(#p3ca1436332)" style="fill: none; stroke: #000000; stroke-opacity: 0.3; stroke-width: 0.8; stroke-linecap: round"/>
    <path d="M 249.159751 413.279651 
L 247.842235 415.617204 
L 246.762702 413.160659 
z
" clip-path="url(#p3ca1436332)" style="fill-opacity: 0.3; stroke: #000000; stroke-opacity: 0.3; stroke-width: 0.8; stroke-linecap: round"/>
   </g>
   <g id="patch_31">
    <path d="M 260.13859 248.457268 
Q 306.964735 186.837704 353.249711 125.930274 
" clip-path="url(#p3ca1436332)" style="fill: none; stroke: #000000; stroke-opacity: 0.3; stroke-width: 0.8; stroke-linecap: round"/>
    <path d="M 350.842174 127.11508 
L 353.249711 125.930274 
L 352.753034 128.567187 
z
" clip-path="url(#p3ca1436332)" style="fill-opacity: 0.3; stroke: #000000; stroke-opacity: 0.3; stroke-width: 0.8; stroke-linecap: round"/>
   </g>
   <g id="patch_32">
    <path d="M 252.885655 260.503127 
Q 218.863345 333.881051 185.217269 406.447528 
" clip-path="url(#p3ca1436332)" style="fill: none; stroke: #000000; stroke-opacity: 0.3; stroke-width: 0.8; stroke-linecap: round"/>
    <path d="M 187.315484 404.774957 
L 185.217269 406.447528 
L 185.138141 403.765413 
z
" clip-path="url(#p3ca1436332)" style="fill-opacity: 0.3; stroke: #000000; stroke-opacity: 0.3; stroke-width: 0.8; stroke-linecap: round"/>
   </g>
   <g id="patch_33">
    <path d="M 252.047447 260.043075 
Q 206.098069 331.817516 160.630938 402.838672 
" clip-path="url(#p3ca1436332)" style="fill: none; stroke: #000000; stroke-opacity: 0.3; stroke-width: 0.8; stroke-linecap: round"/>
    <path d="M 162.935579 401.464398 
L 160.630938 402.838672 
L 160.914303 400.170395 
z
" clip-path="url(#p3ca1436332)" style="fill-opacity: 0.3; stroke: #000000; stroke-opacity: 0.3; stroke-width: 0.8; stroke-linecap: round"/>
   </g>
   <g id="patch_34">
    <path d="M 254.459524 261.021885 
Q 239.659218 334.275789 225.036044 406.652981 
" clip-path="url(#p3ca1436332)" style="fill: none; stroke: #000000; stroke-opacity: 0.3; stroke-width: 0.8; stroke-linecap: round"/>
    <path d="M 226.687572 404.538163 
L 225.036044 406.652981 
L 224.335106 404.062868 
z
" clip-path="url(#p3ca1436332)" style="fill-opacity: 0.3; stroke: #000000; stroke-opacity: 0.3; stroke-width: 0.8; stroke-linecap: round"/>
   </g>
   <g id="patch_35">
    <path d="M 262.167899 250.885502 
Q 332.777613 215.04883 402.589744 179.616957 
" clip-path="url(#p3ca1436332)" style="fill: none; stroke: #000000; stroke-opacity: 0.3; stroke-width: 0.8; stroke-linecap: round"/>
    <path d="M 399.906511 179.633076 
L 402.589744 179.616957 
L 400.992699 181.773215 
z
" clip-path="url(#p3ca1436332)" style="fill-opacity: 0.3; stroke: #000000; stroke-opacity: 0.3; stroke-width: 0.8; stroke-linecap: round"/>
   </g>
   <g id="patch_36">
    <path d="M 258.121241 247.38835 
Q 286.48111 163.353383 314.554978 80.165884 
" clip-path="url(#p3ca1436332)" style="fill: none; stroke: #000000; stroke-opacity: 0.3; stroke-width: 0.8; stroke-linecap: round"/>
    <path d="M 312.650558 82.05617 
L 314.554978 80.165884 
L 314.924555 82.823592 
z
" clip-path="url(#p3ca1436332)" style="fill-opacity: 0.3; stroke: #000000; stroke-opacity: 0.3; stroke-width: 0.8; stroke-linecap: round"/>
   </g>
   <g id="patch_37">
    <path d="M 262.919381 253.696923 
Q 334.371614 249.752499 404.93078 245.857375 
" clip-path="url(#p3ca1436332)" style="fill: none; stroke: #000000; stroke-opacity: 0.3; stroke-width: 0.8; stroke-linecap: round"/>
    <path d="M 402.468285 244.791487 
L 404.93078 245.857375 
L 402.600573 247.187838 
z
" clip-path="url(#p3ca1436332)" style="fill-opacity: 0.3; stroke: #000000; stroke-opacity: 0.3; stroke-width: 0.8; stroke-linecap: round"/>
   </g>
   <g id="patch_38">
    <path d="M 260.954574 249.18477 
Q 322.705786 189.761353 383.812512 130.958127 
" clip-path="url(#p3ca1436332)" style="fill: none; stroke: #000000; stroke-opacity: 0.3; stroke-width: 0.8; stroke-linecap: round"/>
    <path d="M 381.2511 131.757607 
L 383.812512 130.958127 
L 382.915248 133.486945 
z
" clip-path="url(#p3ca1436332)" style="fill-opacity: 0.3; stroke: #000000; stroke-opacity: 0.3; stroke-width: 0.8; stroke-linecap: round"/>
   </g>
   <g id="patch_39">
    <path d="M 249.195727 256.44574 
Q 161.602789 287.450215 74.853018 318.156243 
" clip-path="url(#p3ca1436332)" style="fill: none; stroke: #000000; stroke-opacity: 0.3; stroke-width: 0.8; stroke-linecap: round"/>
    <path d="M 77.515879 318.486649 
L 74.853018 318.156243 
L 76.71506 316.224198 
z
" clip-path="url(#p3ca1436332)" style="fill-opacity: 0.3; stroke: #000000; stroke-opacity: 0.3; stroke-width: 0.8; stroke-linecap: round"/>
   </g>
   <g id="patch_40">
    <path d="M 261.989618 257.614278 
Q 323.116877 292.798228 383.468946 327.535992 
" clip-path="url(#p3ca1436332)" style="fill: none; stroke: #000000; stroke-opacity: 0.3; stroke-width: 0.8; stroke-linecap: round"/>
    <path d="M 381.98752 325.298722 
L 383.468946 327.535992 
L 380.790275 327.378771 
z
" clip-path="url(#p3ca1436332)" style="fill-opacity: 0.3; stroke: #000000; stroke-opacity: 0.3; stroke-width: 0.8; stroke-linecap: round"/>
   </g>
   <g id="patch_41">
    <path d="M 254.751176 247.104685 
Q 240.692758 158.642471 226.774721 71.0636 
" clip-path="url(#p3ca1436332)" style="fill: none; stroke: #000000; stroke-opacity: 0.3; stroke-width: 0.8; stroke-linecap: round"/>
    <path d="M 225.966274 73.622196 
L 226.774721 71.0636 
L 228.33653 73.245515 
z
" clip-path="url(#p3ca1436332)" style="fill-opacity: 0.3; stroke: #000000; stroke-opacity: 0.3; stroke-width: 0.8; stroke-linecap: round"/>
   </g>
   <g id="patch_42">
    <path d="M 261.625466 258.179447 
Q 314.632479 295.813564 366.910185 332.929885 
" clip-path="url(#p3ca1436332)" style="fill: none; stroke: #000000; stroke-opacity: 0.3; stroke-width: 0.8; stroke-linecap: round"/>
    <path d="M 365.647947 330.562027 
L 366.910185 332.929885 
L 364.258555 332.518961 
z
" clip-path="url(#p3ca1436332)" style="fill-opacity: 0.3; stroke: #000000; stroke-opacity: 0.3; stroke-width: 0.8; stroke-linecap: round"/>
   </g>
   <g id="patch_43">
    <path d="M 262.901512 254.718394 
Q 335.359987 261.220506 406.927614 267.642676 
" clip-path="url(#p3ca1436332)" style="fill: none; stroke: #000000; stroke-opacity: 0.3; stroke-width: 0.8; stroke-linecap: round"/>
    <path d="M 404.644471 266.232975 
L 406.927614 267.642676 
L 404.429967 268.62337 
z
" clip-path="url(#p3ca1436332)" style="fill-opacity: 0.3; stroke: #000000; stroke-opacity: 0.3; stroke-width: 0.8; stroke-linecap: round"/>
   </g>
   <g id="patch_44">
    <path d="M 248.799887 254.442215 
Q 161.922189 258.817935 75.937786 263.148663 
" clip-path="url(#p3ca1436332)" style="fill: none; stroke: #000000; stroke-opacity: 0.3; stroke-width: 0.8; stroke-linecap: round"/>
    <path d="M 78.395111 264.226417 
L 75.937786 263.148663 
L 78.274385 261.829455 
z
" clip-path="url(#p3ca1436332)" style="fill-opacity: 0.3; stroke: #000000; stroke-opacity: 0.3; stroke-width: 0.8; stroke-linecap: round"/>
   </g>
   <g id="patch_45">
    <path d="M 256.696055 261.105634 
Q 266.131357 340.389286 275.460961 418.784779 
" clip-path="url(#p3ca1436332)" style="fill: none; stroke: #000000; stroke-opacity: 0.3; stroke-width: 0.8; stroke-linecap: round"/>
    <path d="M 276.368937 416.259788 
L 275.460961 418.784779 
L 273.985754 416.543403 
z
" clip-path="url(#p3ca1436332)" style="fill-opacity: 0.3; stroke: #000000; stroke-opacity: 0.3; stroke-width: 0.8; stroke-linecap: round"/>
   </g>
   <g id="patch_46">
    <path d="M 248.829762 254.841968 
Q 150.898865 265.363303 53.857277 275.789094 
" clip-path="url(#p3ca1436332)" style="fill: none; stroke: #000000; stroke-opacity: 0.3; stroke-width: 0.8; stroke-linecap: round"/>
    <path d="M 56.371731 276.725856 
L 53.857277 275.789094 
L 56.115359 274.339589 
z
" clip-path="url(#p3ca1436332)" style="fill-opacity: 0.3; stroke: #000000; stroke-opacity: 0.3; stroke-width: 0.8; stroke-linecap: round"/>
   </g>
   <g id="patch_47">
    <path d="M 260.244448 259.631686 
Q 298.791221 308.390801 336.783301 356.448264 
" clip-path="url(#p3ca1436332)" style="fill: none; stroke: #000000; stroke-opacity: 0.3; stroke-width: 0.8; stroke-linecap: round"/>
    <path d="M 336.236264 353.821336 
L 336.783301 356.448264 
L 334.353536 355.309737 
z
" clip-path="url(#p3ca1436332)" style="fill-opacity: 0.3; stroke: #000000; stroke-opacity: 0.3; stroke-width: 0.8; stroke-linecap: round"/>
   </g>
   <g id="patch_48">
    <path d="M 257.40772 247.18855 
Q 275.470615 166.645453 293.337784 86.975105 
" clip-path="url(#p3ca1436332)" style="fill: none; stroke: #000000; stroke-opacity: 0.3; stroke-width: 0.8; stroke-linecap: round"/>
    <path d="M 291.64168 89.054343 
L 293.337784 86.975105 
L 293.983512 89.579531 
z
" clip-path="url(#p3ca1436332)" style="fill-opacity: 0.3; stroke: #000000; stroke-opacity: 0.3; stroke-width: 0.8; stroke-linecap: round"/>
   </g>
   <g id="patch_49">
    <path d="M 248.81351 253.5428 
Q 155.066243 246.308983 62.210751 239.143979 
" clip-path="url(#p3ca1436332)" style="fill: none; stroke: #000000; stroke-opacity: 0.3; stroke-width: 0.8; stroke-linecap: round"/>
    <path d="M 64.511317 240.525064 
L 62.210751 239.143979 
L 64.695959 238.132177 
z
" clip-path="url(#p3ca1436332)" style="fill-opacity: 0.3; stroke: #000000; stroke-opacity: 0.3; stroke-width: 0.8; stroke-linecap: round"/>
   </g>
   <g id="patch_50">
    <path d="M 261.12599 249.369565 
Q 313.101918 202.805481 364.411659 156.838219 
" clip-path="url(#p3ca1436332)" style="fill: none; stroke: #000000; stroke-opacity: 0.3; stroke-width: 0.8; stroke-linecap: round"/>
    <path d="M 361.823374 157.545876 
L 364.411659 156.838219 
L 363.424814 159.333441 
z
" clip-path="url(#p3ca1436332)" style="fill-opacity: 0.3; stroke: #000000; stroke-opacity: 0.3; stroke-width: 0.8; stroke-linecap: round"/>
   </g>
   <g id="patch_51">
    <path d="M 250.041335 258.103227 
Q 168.906774 314.103537 88.508325 369.595771 
" clip-path="url(#p3ca1436332)" style="fill: none; stroke: #000000; stroke-opacity: 0.3; stroke-width: 0.8; stroke-linecap: round"/>
    <path d="M 91.165172 369.22006 
L 88.508325 369.595771 
L 89.801864 367.244866 
z
" clip-path="url(#p3ca1436332)" style="fill-opacity: 0.3; stroke: #000000; stroke-opacity: 0.3; stroke-width: 0.8; stroke-linecap: round"/>
   </g>
   <g id="patch_52">
    <path d="M 193.174706 227.858657 
Q 234.351547 312.797153 275.138216 396.930811 
" clip-path="url(#p3ca1436332)" style="fill: none; stroke: #000000; stroke-opacity: 0.3; stroke-width: 0.8; stroke-linecap: round"/>
    <path d="M 275.171076 394.24773 
L 275.138216 396.930811 
L 273.011468 395.294674 
z
" clip-path="url(#p3ca1436332)" style="fill-opacity: 0.3; stroke: #000000; stroke-opacity: 0.3; stroke-width: 0.8; stroke-linecap: round"/>
   </g>
   <g id="patch_53">
    <path d="M 193.194529 227.850418 
Q 200.498702 242.801647 207.410263 256.949223 
" clip-path="url(#p3ca1436332)" style="fill: none; stroke: #000000; stroke-opacity: 0.3; stroke-width: 0.8; stroke-linecap: round"/>
    <path d="M 207.43499 254.266055 
L 207.410263 256.949223 
L 205.278565 255.319541 
z
" clip-path="url(#p3ca1436332)" style="fill-opacity: 0.3; stroke: #000000; stroke-opacity: 0.3; stroke-width: 0.8; stroke-linecap: round"/>
   </g>
   <g id="patch_54">
    <path d="M 185.054975 226.458588 
Q 128.678471 281.996902 72.939141 336.907515 
" clip-path="url(#p3ca1436332)" style="fill: none; stroke: #000000; stroke-opacity: 0.3; stroke-width: 0.8; stroke-linecap: round"/>
    <path d="M 75.491009 336.078075 
L 72.939141 336.907515 
L 73.80671 334.368356 
z
" clip-path="url(#p3ca1436332)" style="fill-opacity: 0.3; stroke: #000000; stroke-opacity: 0.3; stroke-width: 0.8; stroke-linecap: round"/>
   </g>
   <g id="patch_55">
    <path d="M 184.709185 216.908288 
Q 139.503313 178.35943 94.978019 140.390929 
" clip-path="url(#p3ca1436332)" style="fill: none; stroke: #000000; stroke-opacity: 0.3; stroke-width: 0.8; stroke-linecap: round"/>
    <path d="M 96.025573 142.86128 
L 94.978019 140.390929 
L 97.582832 141.035097 
z
" clip-path="url(#p3ca1436332)" style="fill-opacity: 0.3; stroke: #000000; stroke-opacity: 0.3; stroke-width: 0.8; stroke-linecap: round"/>
   </g>
   <g id="patch_56">
    <path d="M 183.040613 221.002265 
Q 121.376704 216.670706 60.605024 212.401822 
" clip-path="url(#p3ca1436332)" style="fill: none; stroke: #000000; stroke-opacity: 0.3; stroke-width: 0.8; stroke-linecap: round"/>
    <path d="M 62.915038 213.767045 
L 60.605024 212.401822 
L 63.083211 211.372944 
z
" clip-path="url(#p3ca1436332)" style="fill-opacity: 0.3; stroke: #000000; stroke-opacity: 0.3; stroke-width: 0.8; stroke-linecap: round"/>
   </g>
   <g id="patch_57">
    <path d="M 195.699818 217.194374 
Q 276.176154 155.453019 355.94285 94.2561 
" clip-path="url(#p3ca1436332)" style="fill: none; stroke: #000000; stroke-opacity: 0.3; stroke-width: 0.8; stroke-linecap: round"/>
    <path d="M 353.308247 94.764891 
L 355.94285 94.2561 
L 354.769121 96.669057 
z
" clip-path="url(#p3ca1436332)" style="fill-opacity: 0.3; stroke: #000000; stroke-opacity: 0.3; stroke-width: 0.8; stroke-linecap: round"/>
   </g>
   <g id="patch_58">
    <path d="M 189.04302 214.501591 
Q 179.985394 154.031836 171.060263 94.44664 
" clip-path="url(#p3ca1436332)" style="fill: none; stroke: #000000; stroke-opacity: 0.3; stroke-width: 0.8; stroke-linecap: round"/>
    <path d="M 170.229027 96.997923 
L 171.060263 94.44664 
L 172.602548 96.642398 
z
" clip-path="url(#p3ca1436332)" style="fill-opacity: 0.3; stroke: #000000; stroke-opacity: 0.3; stroke-width: 0.8; stroke-linecap: round"/>
   </g>
   <g id="patch_59">
    <path d="M 321.063552 370.068405 
Q 361.829972 342.246553 401.857617 314.928893 
" clip-path="url(#p3ca1436332)" style="fill: none; stroke: #000000; stroke-opacity: 0.3; stroke-width: 0.8; stroke-linecap: round"/>
    <path d="M 399.198827 315.290611 
L 401.857617 314.928893 
L 400.551717 317.272955 
z
" clip-path="url(#p3ca1436332)" style="fill-opacity: 0.3; stroke: #000000; stroke-opacity: 0.3; stroke-width: 0.8; stroke-linecap: round"/>
   </g>
   <g id="patch_60">
    <path d="M 321.983222 376.133851 
Q 341.06476 382.004382 359.291413 387.611904 
" clip-path="url(#p3ca1436332)" style="fill: none; stroke: #000000; stroke-opacity: 0.3; stroke-width: 0.8; stroke-linecap: round"/>
    <path d="M 357.350383 385.759229 
L 359.291413 387.611904 
L 356.644655 388.053123 
z
" clip-path="url(#p3ca1436332)" style="fill-opacity: 0.3; stroke: #000000; stroke-opacity: 0.3; stroke-width: 0.8; stroke-linecap: round"/>
   </g>
   <g id="patch_61">
    <path d="M 308.847837 377.10542 
Q 260.505152 400.241755 212.969256 422.991969 
" clip-path="url(#p3ca1436332)" style="fill: none; stroke: #000000; stroke-opacity: 0.3; stroke-width: 0.8; stroke-linecap: round"/>
    <path d="M 215.652138 423.038318 
L 212.969256 422.991969 
L 214.616064 420.873473 
z
" clip-path="url(#p3ca1436332)" style="fill-opacity: 0.3; stroke: #000000; stroke-opacity: 0.3; stroke-width: 0.8; stroke-linecap: round"/>
   </g>
   <g id="PathCollection_1">
    <defs>
     <path id="m6e530a9f61" d="M 0 7.071068 
C 1.875269 7.071068 3.673985 6.326016 5 5 
C 6.326016 3.673985 7.071068 1.875269 7.071068 0 
C 7.071068 -1.875269 6.326016 -3.673985 5 -5 
C 3.673985 -6.326016 1.875269 -7.071068 0 -7.071068 
C -1.875269 -7.071068 -3.673985 -6.326016 -5 -5 
C -6.326016 -3.673985 -7.071068 -1.875269 -7.071068 0 
C -7.071068 1.875269 -6.326016 3.673985 -5 5 
C -3.673985 6.326016 -1.875269 7.071068 0 7.071068 
z
" style="stroke: #505050; stroke-opacity: 0.3"/>
    </defs>
    <g clip-path="url(#p3ca1436332)">
     <use xlink:href="#m6e530a9f61" x="210.905282" y="264.10333" style="fill: #505050; fill-opacity: 0.3; stroke: #505050; stroke-opacity: 0.3"/>
     <use xlink:href="#m6e530a9f61" x="278.614256" y="404.101095" style="fill: #505050; fill-opacity: 0.3; stroke: #505050; stroke-opacity: 0.3"/>
     <use xlink:href="#m6e530a9f61" x="73.690625" y="299.584201" style="fill: #505050; fill-opacity: 0.3; stroke: #505050; stroke-opacity: 0.3"/>
     <use xlink:href="#m6e530a9f61" x="272.033533" y="70.398385" style="fill: #505050; fill-opacity: 0.3; stroke: #505050; stroke-opacity: 0.3"/>
     <use xlink:href="#m6e530a9f61" x="360.184319" y="368.77228" style="fill: #505050; fill-opacity: 0.3; stroke: #505050; stroke-opacity: 0.3"/>
     <use xlink:href="#m6e530a9f61" x="117.945894" y="401.148126" style="fill: #505050; fill-opacity: 0.3; stroke: #505050; stroke-opacity: 0.3"/>
     <use xlink:href="#m6e530a9f61" x="128.126637" y="102.267972" style="fill: #505050; fill-opacity: 0.3; stroke: #505050; stroke-opacity: 0.3"/>
     <use xlink:href="#m6e530a9f61" x="194.395787" y="236.567956" style="fill: #505050; fill-opacity: 0.3; stroke: #505050; stroke-opacity: 0.3"/>
     <use xlink:href="#m6e530a9f61" x="172.691258" y="64.376119" style="fill: #505050; fill-opacity: 0.3; stroke: #505050; stroke-opacity: 0.3"/>
     <use xlink:href="#m6e530a9f61" x="247.447255" y="423.573976" style="fill: #505050; fill-opacity: 0.3; stroke: #505050; stroke-opacity: 0.3"/>
     <use xlink:href="#m6e530a9f61" x="358.067499" y="119.59044" style="fill: #505050; fill-opacity: 0.3; stroke: #505050; stroke-opacity: 0.3"/>
     <use xlink:href="#m6e530a9f61" x="107.626652" y="364.924549" style="fill: #505050; fill-opacity: 0.3; stroke: #505050; stroke-opacity: 0.3"/>
     <use xlink:href="#m6e530a9f61" x="312.938546" y="408.152224" style="fill: #505050; fill-opacity: 0.3; stroke: #505050; stroke-opacity: 0.3"/>
     <use xlink:href="#m6e530a9f61" x="138.76521" y="79.513961" style="fill: #505050; fill-opacity: 0.3; stroke: #505050; stroke-opacity: 0.3"/>
     <use xlink:href="#m6e530a9f61" x="201.528173" y="60.149148" style="fill: #505050; fill-opacity: 0.3; stroke: #505050; stroke-opacity: 0.3"/>
     <use xlink:href="#m6e530a9f61" x="64.420819" y="163.789971" style="fill: #505050; fill-opacity: 0.3; stroke: #505050; stroke-opacity: 0.3"/>
     <use xlink:href="#m6e530a9f61" x="105.248906" y="113.379908" style="fill: #505050; fill-opacity: 0.3; stroke: #505050; stroke-opacity: 0.3"/>
     <use xlink:href="#m6e530a9f61" x="66.300836" y="191.138547" style="fill: #505050; fill-opacity: 0.3; stroke: #505050; stroke-opacity: 0.3"/>
     <use xlink:href="#m6e530a9f61" x="141.880071" y="384.099297" style="fill: #505050; fill-opacity: 0.3; stroke: #505050; stroke-opacity: 0.3"/>
     <use xlink:href="#m6e530a9f61" x="253.052121" y="146.968429" style="fill: #505050; fill-opacity: 0.3; stroke: #505050; stroke-opacity: 0.3"/>
     <use xlink:href="#m6e530a9f61" x="414.196653" y="200.083538" style="fill: #505050; fill-opacity: 0.3; stroke: #505050; stroke-opacity: 0.3"/>
     <use xlink:href="#m6e530a9f61" x="88.915477" y="135.221156" style="fill: #505050; fill-opacity: 0.3; stroke: #505050; stroke-opacity: 0.3"/>
     <use xlink:href="#m6e530a9f61" x="249.86872" y="62.468283" style="fill: #505050; fill-opacity: 0.3; stroke: #505050; stroke-opacity: 0.3"/>
     <use xlink:href="#m6e530a9f61" x="255.86074" y="254.086586" style="fill: #505050; fill-opacity: 0.3; stroke: #505050; stroke-opacity: 0.3"/>
     <use xlink:href="#m6e530a9f61" x="393.541793" y="160.765083" style="fill: #505050; fill-opacity: 0.3; stroke: #505050; stroke-opacity: 0.3"/>
     <use xlink:href="#m6e530a9f61" x="335.067638" y="93.036004" style="fill: #505050; fill-opacity: 0.3; stroke: #505050; stroke-opacity: 0.3"/>
     <use xlink:href="#m6e530a9f61" x="90.961742" y="158.487728" style="fill: #505050; fill-opacity: 0.3; stroke: #505050; stroke-opacity: 0.3"/>
     <use xlink:href="#m6e530a9f61" x="402.468269" y="287.987932" style="fill: #505050; fill-opacity: 0.3; stroke: #505050; stroke-opacity: 0.3"/>
     <use xlink:href="#m6e530a9f61" x="181.866364" y="413.674621" style="fill: #505050; fill-opacity: 0.3; stroke: #505050; stroke-opacity: 0.3"/>
     <use xlink:href="#m6e530a9f61" x="156.335459" y="409.548352" style="fill: #505050; fill-opacity: 0.3; stroke: #505050; stroke-opacity: 0.3"/>
     <use xlink:href="#m6e530a9f61" x="223.457739" y="414.46478" style="fill: #505050; fill-opacity: 0.3; stroke: #505050; stroke-opacity: 0.3"/>
     <use xlink:href="#m6e530a9f61" x="409.692509" y="176.012078" style="fill: #505050; fill-opacity: 0.3; stroke: #505050; stroke-opacity: 0.3"/>
     <use xlink:href="#m6e530a9f61" x="317.102641" y="72.616739" style="fill: #505050; fill-opacity: 0.3; stroke: #505050; stroke-opacity: 0.3"/>
     <use xlink:href="#m6e530a9f61" x="412.885548" y="245.418243" style="fill: #505050; fill-opacity: 0.3; stroke: #505050; stroke-opacity: 0.3"/>
     <use xlink:href="#m6e530a9f61" x="389.552977" y="125.434057" style="fill: #505050; fill-opacity: 0.3; stroke: #505050; stroke-opacity: 0.3"/>
     <use xlink:href="#m6e530a9f61" x="67.341839" y="320.814907" style="fill: #505050; fill-opacity: 0.3; stroke: #505050; stroke-opacity: 0.3"/>
     <use xlink:href="#m6e530a9f61" x="390.375863" y="331.511512" style="fill: #505050; fill-opacity: 0.3; stroke: #505050; stroke-opacity: 0.3"/>
     <use xlink:href="#m6e530a9f61" x="225.52433" y="63.195549" style="fill: #505050; fill-opacity: 0.3; stroke: #505050; stroke-opacity: 0.3"/>
     <use xlink:href="#m6e530a9f61" x="373.408057" y="337.543269" style="fill: #505050; fill-opacity: 0.3; stroke: #505050; stroke-opacity: 0.3"/>
     <use xlink:href="#m6e530a9f61" x="414.86281" y="268.354747" style="fill: #505050; fill-opacity: 0.3; stroke: #505050; stroke-opacity: 0.3"/>
     <use xlink:href="#m6e530a9f61" x="67.984135" y="263.54926" style="fill: #505050; fill-opacity: 0.3; stroke: #505050; stroke-opacity: 0.3"/>
     <use xlink:href="#m6e530a9f61" x="276.402284" y="426.694602" style="fill: #505050; fill-opacity: 0.3; stroke: #505050; stroke-opacity: 0.3"/>
     <use xlink:href="#m6e530a9f61" x="45.93719" y="276.639999" style="fill: #505050; fill-opacity: 0.3; stroke: #505050; stroke-opacity: 0.3"/>
     <use xlink:href="#m6e530a9f61" x="341.721672" y="362.694977" style="fill: #505050; fill-opacity: 0.3; stroke: #505050; stroke-opacity: 0.3"/>
     <use xlink:href="#m6e530a9f61" x="295.080403" y="79.204703" style="fill: #505050; fill-opacity: 0.3; stroke: #505050; stroke-opacity: 0.3"/>
     <use xlink:href="#m6e530a9f61" x="54.268746" y="238.53115" style="fill: #505050; fill-opacity: 0.3; stroke: #505050; stroke-opacity: 0.3"/>
     <use xlink:href="#m6e530a9f61" x="370.347602" y="151.520339" style="fill: #505050; fill-opacity: 0.3; stroke: #505050; stroke-opacity: 0.3"/>
     <use xlink:href="#m6e530a9f61" x="81.952613" y="374.120623" style="fill: #505050; fill-opacity: 0.3; stroke: #505050; stroke-opacity: 0.3"/>
     <use xlink:href="#m6e530a9f61" x="190.090924" y="221.497512" style="fill: #505050; fill-opacity: 0.3; stroke: #505050; stroke-opacity: 0.3"/>
     <use xlink:href="#m6e530a9f61" x="67.264001" y="342.498278" style="fill: #505050; fill-opacity: 0.3; stroke: #505050; stroke-opacity: 0.3"/>
     <use xlink:href="#m6e530a9f61" x="52.658102" y="211.843593" style="fill: #505050; fill-opacity: 0.3; stroke: #505050; stroke-opacity: 0.3"/>
     <use xlink:href="#m6e530a9f61" x="362.261651" y="89.408322" style="fill: #505050; fill-opacity: 0.3; stroke: #505050; stroke-opacity: 0.3"/>
     <use xlink:href="#m6e530a9f61" x="169.880396" y="86.56971" style="fill: #505050; fill-opacity: 0.3; stroke: #505050; stroke-opacity: 0.3"/>
     <use xlink:href="#m6e530a9f61" x="315.223374" y="374.05415" style="fill: #505050; fill-opacity: 0.3; stroke: #505050; stroke-opacity: 0.3"/>
     <use xlink:href="#m6e530a9f61" x="408.438642" y="310.437542" style="fill: #505050; fill-opacity: 0.3; stroke: #505050; stroke-opacity: 0.3"/>
     <use xlink:href="#m6e530a9f61" x="366.904827" y="389.954209" style="fill: #505050; fill-opacity: 0.3; stroke: #505050; stroke-opacity: 0.3"/>
     <use xlink:href="#m6e530a9f61" x="205.787227" y="426.429218" style="fill: #505050; fill-opacity: 0.3; stroke: #505050; stroke-opacity: 0.3"/>
     <use xlink:href="#m6e530a9f61" x="415.160223" y="223.049786" style="fill: #505050; fill-opacity: 0.3; stroke: #505050; stroke-opacity: 0.3"/>
    </g>
   </g>
   <g id="PathCollection_2">
    <defs>
     <path id="mea9e4ece8d" d="M 0 8.660254 
C 2.296726 8.660254 4.499694 7.747755 6.123724 6.123724 
C 7.747755 4.499694 8.660254 2.296726 8.660254 0 
C 8.660254 -2.296726 7.747755 -4.499694 6.123724 -6.123724 
C 4.499694 -7.747755 2.296726 -8.660254 0 -8.660254 
C -2.296726 -8.660254 -4.499694 -7.747755 -6.123724 -6.123724 
C -7.747755 -4.499694 -8.660254 -2.296726 -8.660254 0 
C -8.660254 2.296726 -7.747755 4.499694 -6.123724 6.123724 
C -4.499694 7.747755 -2.296726 8.660254 0 8.660254 
z
" style="stroke: #ff0000"/>
    </defs>
    <g clip-path="url(#p3ca1436332)">
     <use xlink:href="#mea9e4ece8d" x="210.905282" y="264.10333" style="fill: #ff0000; stroke: #ff0000"/>
    </g>
   </g>
   <g id="PathCollection_3">
    <defs>
     <path id="m2ba1772d58" d="M 0 7.071068 
C 1.875269 7.071068 3.673985 6.326016 5 5 
C 6.326016 3.673985 7.071068 1.875269 7.071068 0 
C 7.071068 -1.875269 6.326016 -3.673985 5 -5 
C 3.673985 -6.326016 1.875269 -7.071068 0 -7.071068 
C -1.875269 -7.071068 -3.673985 -6.326016 -5 -5 
C -6.326016 -3.673985 -7.071068 -1.875269 -7.071068 0 
C -7.071068 1.875269 -6.326016 3.673985 -5 5 
C -3.673985 6.326016 -1.875269 7.071068 0 7.071068 
z
" style="stroke: #000000"/>
    </defs>
    <g clip-path="url(#p3ca1436332)">
     <use xlink:href="#m2ba1772d58" x="278.614256" y="404.101095" style="stroke: #000000"/>
     <use xlink:href="#m2ba1772d58" x="73.690625" y="299.584201" style="stroke: #000000"/>
     <use xlink:href="#m2ba1772d58" x="272.033533" y="70.398385" style="stroke: #000000"/>
     <use xlink:href="#m2ba1772d58" x="360.184319" y="368.77228" style="stroke: #000000"/>
     <use xlink:href="#m2ba1772d58" x="117.945894" y="401.148126" style="stroke: #000000"/>
     <use xlink:href="#m2ba1772d58" x="128.126637" y="102.267972" style="stroke: #000000"/>
     <use xlink:href="#m2ba1772d58" x="172.691258" y="64.376119" style="stroke: #000000"/>
     <use xlink:href="#m2ba1772d58" x="247.447255" y="423.573976" style="stroke: #000000"/>
     <use xlink:href="#m2ba1772d58" x="358.067499" y="119.59044" style="stroke: #000000"/>
     <use xlink:href="#m2ba1772d58" x="107.626652" y="364.924549" style="stroke: #000000"/>
     <use xlink:href="#m2ba1772d58" x="312.938546" y="408.152224" style="stroke: #000000"/>
     <use xlink:href="#m2ba1772d58" x="138.76521" y="79.513961" style="stroke: #000000"/>
     <use xlink:href="#m2ba1772d58" x="201.528173" y="60.149148" style="stroke: #000000"/>
     <use xlink:href="#m2ba1772d58" x="64.420819" y="163.789971" style="stroke: #000000"/>
     <use xlink:href="#m2ba1772d58" x="105.248906" y="113.379908" style="stroke: #000000"/>
     <use xlink:href="#m2ba1772d58" x="66.300836" y="191.138547" style="stroke: #000000"/>
     <use xlink:href="#m2ba1772d58" x="141.880071" y="384.099297" style="stroke: #000000"/>
     <use xlink:href="#m2ba1772d58" x="414.196653" y="200.083538" style="stroke: #000000"/>
     <use xlink:href="#m2ba1772d58" x="88.915477" y="135.221156" style="stroke: #000000"/>
     <use xlink:href="#m2ba1772d58" x="249.86872" y="62.468283" style="stroke: #000000"/>
     <use xlink:href="#m2ba1772d58" x="393.541793" y="160.765083" style="stroke: #000000"/>
     <use xlink:href="#m2ba1772d58" x="335.067638" y="93.036004" style="stroke: #000000"/>
     <use xlink:href="#m2ba1772d58" x="90.961742" y="158.487728" style="stroke: #000000"/>
     <use xlink:href="#m2ba1772d58" x="402.468269" y="287.987932" style="stroke: #000000"/>
     <use xlink:href="#m2ba1772d58" x="181.866364" y="413.674621" style="stroke: #000000"/>
     <use xlink:href="#m2ba1772d58" x="156.335459" y="409.548352" style="stroke: #000000"/>
     <use xlink:href="#m2ba1772d58" x="223.457739" y="414.46478" style="stroke: #000000"/>
     <use xlink:href="#m2ba1772d58" x="409.692509" y="176.012078" style="stroke: #000000"/>
     <use xlink:href="#m2ba1772d58" x="317.102641" y="72.616739" style="stroke: #000000"/>
     <use xlink:href="#m2ba1772d58" x="412.885548" y="245.418243" style="stroke: #000000"/>
     <use xlink:href="#m2ba1772d58" x="389.552977" y="125.434057" style="stroke: #000000"/>
     <use xlink:href="#m2ba1772d58" x="67.341839" y="320.814907" style="stroke: #000000"/>
     <use xlink:href="#m2ba1772d58" x="390.375863" y="331.511512" style="stroke: #000000"/>
     <use xlink:href="#m2ba1772d58" x="225.52433" y="63.195549" style="stroke: #000000"/>
     <use xlink:href="#m2ba1772d58" x="373.408057" y="337.543269" style="stroke: #000000"/>
     <use xlink:href="#m2ba1772d58" x="414.86281" y="268.354747" style="stroke: #000000"/>
     <use xlink:href="#m2ba1772d58" x="67.984135" y="263.54926" style="stroke: #000000"/>
     <use xlink:href="#m2ba1772d58" x="276.402284" y="426.694602" style="stroke: #000000"/>
     <use xlink:href="#m2ba1772d58" x="45.93719" y="276.639999" style="stroke: #000000"/>
     <use xlink:href="#m2ba1772d58" x="341.721672" y="362.694977" style="stroke: #000000"/>
     <use xlink:href="#m2ba1772d58" x="295.080403" y="79.204703" style="stroke: #000000"/>
     <use xlink:href="#m2ba1772d58" x="54.268746" y="238.53115" style="stroke: #000000"/>
     <use xlink:href="#m2ba1772d58" x="370.347602" y="151.520339" style="stroke: #000000"/>
     <use xlink:href="#m2ba1772d58" x="81.952613" y="374.120623" style="stroke: #000000"/>
     <use xlink:href="#m2ba1772d58" x="67.264001" y="342.498278" style="stroke: #000000"/>
     <use xlink:href="#m2ba1772d58" x="52.658102" y="211.843593" style="stroke: #000000"/>
     <use xlink:href="#m2ba1772d58" x="362.261651" y="89.408322" style="stroke: #000000"/>
     <use xlink:href="#m2ba1772d58" x="169.880396" y="86.56971" style="stroke: #000000"/>
     <use xlink:href="#m2ba1772d58" x="408.438642" y="310.437542" style="stroke: #000000"/>
     <use xlink:href="#m2ba1772d58" x="366.904827" y="389.954209" style="stroke: #000000"/>
     <use xlink:href="#m2ba1772d58" x="205.787227" y="426.429218" style="stroke: #000000"/>
     <use xlink:href="#m2ba1772d58" x="415.160223" y="223.049786" style="stroke: #000000"/>
    </g>
   </g>
   <g id="patch_62">
    <path d="M 7.2 465.181875 
L 7.2 21.661875 
" style="fill: none; stroke: #262626; stroke-width: 0.8; stroke-linejoin: miter; stroke-linecap: square"/>
   </g>
   <g id="patch_63">
    <path d="M 453.6 465.181875 
L 453.6 21.661875 
" style="fill: none; stroke: #262626; stroke-width: 0.8; stroke-linejoin: miter; stroke-linecap: square"/>
   </g>
   <g id="patch_64">
    <path d="M 7.2 465.181875 
L 453.6 465.181875 
" style="fill: none; stroke: #262626; stroke-width: 0.8; stroke-linejoin: miter; stroke-linecap: square"/>
   </g>
   <g id="patch_65">
    <path d="M 7.2 21.661875 
L 453.6 21.661875 
" style="fill: none; stroke: #262626; stroke-width: 0.8; stroke-linejoin: miter; stroke-linecap: square"/>
   </g>
   <g id="text_1">
    <!-- The aggregate follower network of users who participated in a cascade -->
    <g style="fill: #262626" transform="translate(45.542812 15.661875) scale(0.12 -0.12)">
     <defs>
      <path id="Cmr10-54" d="M 1081 0 
L 1081 225 
Q 1403 225 1706 261 
Q 2009 297 2009 428 
L 2009 3944 
Q 2009 4081 1932 4114 
Q 1856 4147 1684 4147 
L 1416 4147 
Q 888 4147 666 3916 
Q 550 3800 500 3545 
Q 450 3291 416 2906 
L 231 2906 
L 353 4372 
L 4263 4372 
L 4384 2906 
L 4197 2906 
Q 4159 3319 4114 3561 
Q 4069 3803 3950 3916 
Q 3725 4147 3200 4147 
L 2931 4147 
Q 2816 4147 2752 4137 
Q 2688 4128 2647 4083 
Q 2606 4038 2606 3944 
L 2606 428 
Q 2606 297 2909 261 
Q 3213 225 3531 225 
L 3531 0 
L 1081 0 
z
" transform="scale(0.015625)"/>
      <path id="Cmr10-68" d="M 191 0 
L 191 225 
Q 409 225 550 259 
Q 691 294 691 428 
L 691 3788 
Q 691 3959 639 4036 
Q 588 4113 491 4130 
Q 394 4147 191 4147 
L 191 4372 
L 1141 4441 
L 1141 2241 
Q 1275 2506 1515 2667 
Q 1756 2828 2047 2828 
Q 2491 2828 2714 2615 
Q 2938 2403 2938 1966 
L 2938 428 
Q 2938 294 3078 259 
Q 3219 225 3438 225 
L 3438 0 
L 1972 0 
L 1972 225 
Q 2191 225 2331 259 
Q 2472 294 2472 428 
L 2472 1947 
Q 2472 2259 2381 2461 
Q 2291 2663 2009 2663 
Q 1638 2663 1398 2366 
Q 1159 2069 1159 1691 
L 1159 428 
Q 1159 294 1300 259 
Q 1441 225 1656 225 
L 1656 0 
L 191 0 
z
" transform="scale(0.015625)"/>
      <path id="Cmr10-65" d="M 1594 -72 
Q 1203 -72 876 133 
Q 550 338 364 680 
Q 178 1022 178 1403 
Q 178 1778 348 2115 
Q 519 2453 823 2661 
Q 1128 2869 1503 2869 
Q 1797 2869 2014 2770 
Q 2231 2672 2372 2497 
Q 2513 2322 2584 2084 
Q 2656 1847 2656 1563 
Q 2656 1478 2591 1478 
L 738 1478 
L 738 1409 
Q 738 878 952 497 
Q 1166 116 1650 116 
Q 1847 116 2014 203 
Q 2181 291 2304 447 
Q 2428 603 2472 781 
Q 2478 803 2495 820 
Q 2513 838 2534 838 
L 2591 838 
Q 2656 838 2656 756 
Q 2566 394 2266 161 
Q 1966 -72 1594 -72 
z
M 744 1638 
L 2203 1638 
Q 2203 1878 2136 2125 
Q 2069 2372 1912 2536 
Q 1756 2700 1503 2700 
Q 1141 2700 942 2361 
Q 744 2022 744 1638 
z
" transform="scale(0.015625)"/>
      <path id="Cmr10-20" transform="scale(0.015625)"/>
      <path id="Cmr10-61" d="M 256 628 
Q 256 1009 556 1248 
Q 856 1488 1276 1586 
Q 1697 1684 2075 1684 
L 2075 1947 
Q 2075 2131 1994 2304 
Q 1913 2478 1759 2589 
Q 1606 2700 1422 2700 
Q 997 2700 775 2509 
Q 897 2509 976 2417 
Q 1056 2325 1056 2203 
Q 1056 2075 965 1984 
Q 875 1894 750 1894 
Q 622 1894 531 1984 
Q 441 2075 441 2203 
Q 441 2541 747 2705 
Q 1053 2869 1422 2869 
Q 1681 2869 1943 2758 
Q 2206 2647 2373 2440 
Q 2541 2234 2541 1959 
L 2541 519 
Q 2541 394 2594 289 
Q 2647 184 2759 184 
Q 2866 184 2917 290 
Q 2969 397 2969 519 
L 2969 928 
L 3156 928 
L 3156 519 
Q 3156 375 3081 245 
Q 3006 116 2879 39 
Q 2753 -38 2606 -38 
Q 2419 -38 2283 107 
Q 2147 253 2131 453 
Q 2013 213 1781 70 
Q 1550 -72 1288 -72 
Q 1044 -72 808 0 
Q 572 72 414 226 
Q 256 381 256 628 
z
M 775 628 
Q 775 403 940 250 
Q 1106 97 1331 97 
Q 1538 97 1706 200 
Q 1875 303 1975 481 
Q 2075 659 2075 856 
L 2075 1522 
Q 1784 1522 1479 1426 
Q 1175 1331 975 1128 
Q 775 925 775 628 
z
" transform="scale(0.015625)"/>
      <path id="Cmr10-67" d="M 178 -500 
Q 178 -272 343 -101 
Q 509 69 738 141 
Q 609 238 542 384 
Q 475 531 475 697 
Q 475 997 666 1228 
Q 372 1516 372 1888 
Q 372 2088 458 2263 
Q 544 2438 697 2566 
Q 850 2694 1037 2761 
Q 1225 2828 1422 2828 
Q 1803 2828 2106 2606 
Q 2238 2747 2417 2823 
Q 2597 2900 2791 2900 
Q 2928 2900 3015 2801 
Q 3103 2703 3103 2566 
Q 3103 2488 3043 2428 
Q 2984 2369 2906 2369 
Q 2825 2369 2765 2428 
Q 2706 2488 2706 2566 
Q 2706 2684 2784 2731 
Q 2453 2731 2216 2503 
Q 2331 2388 2401 2220 
Q 2472 2053 2472 1888 
Q 2472 1616 2322 1398 
Q 2172 1181 1926 1061 
Q 1681 941 1422 941 
Q 1072 941 781 1131 
Q 691 1006 691 850 
Q 691 681 802 554 
Q 913 428 1081 428 
L 1606 428 
Q 1988 428 2294 359 
Q 2600 291 2808 84 
Q 3016 -122 3016 -500 
Q 3016 -781 2778 -967 
Q 2541 -1153 2211 -1236 
Q 1881 -1319 1600 -1319 
Q 1316 -1319 984 -1236 
Q 653 -1153 415 -967 
Q 178 -781 178 -500 
z
M 538 -500 
Q 538 -716 713 -861 
Q 888 -1006 1134 -1076 
Q 1381 -1147 1600 -1147 
Q 1816 -1147 2062 -1076 
Q 2309 -1006 2482 -861 
Q 2656 -716 2656 -500 
Q 2656 -166 2350 -67 
Q 2044 31 1606 31 
L 1081 31 
Q 934 31 811 -39 
Q 688 -109 613 -236 
Q 538 -363 538 -500 
z
M 1422 1113 
Q 1966 1113 1966 1888 
Q 1966 2222 1850 2439 
Q 1734 2656 1422 2656 
Q 1109 2656 993 2439 
Q 878 2222 878 1888 
Q 878 1675 922 1503 
Q 966 1331 1084 1222 
Q 1203 1113 1422 1113 
z
" transform="scale(0.015625)"/>
      <path id="Cmr10-72" d="M 166 0 
L 166 225 
Q 384 225 525 259 
Q 666 294 666 428 
L 666 2175 
Q 666 2347 614 2423 
Q 563 2500 466 2517 
Q 369 2534 166 2534 
L 166 2759 
L 1081 2828 
L 1081 2203 
Q 1184 2481 1375 2654 
Q 1566 2828 1838 2828 
Q 2028 2828 2178 2715 
Q 2328 2603 2328 2419 
Q 2328 2303 2245 2217 
Q 2163 2131 2041 2131 
Q 1922 2131 1837 2215 
Q 1753 2300 1753 2419 
Q 1753 2591 1875 2663 
L 1838 2663 
Q 1578 2663 1414 2475 
Q 1250 2288 1181 2009 
Q 1113 1731 1113 1478 
L 1113 428 
Q 1113 225 1734 225 
L 1734 0 
L 166 0 
z
" transform="scale(0.015625)"/>
      <path id="Cmr10-74" d="M 653 769 
L 653 2534 
L 122 2534 
L 122 2700 
Q 541 2700 737 3090 
Q 934 3481 934 3938 
L 1119 3938 
L 1119 2759 
L 2022 2759 
L 2022 2534 
L 1119 2534 
L 1119 781 
Q 1119 516 1208 316 
Q 1297 116 1528 116 
Q 1747 116 1844 327 
Q 1941 538 1941 781 
L 1941 1159 
L 2125 1159 
L 2125 769 
Q 2125 569 2051 373 
Q 1978 178 1834 53 
Q 1691 -72 1484 -72 
Q 1100 -72 876 158 
Q 653 388 653 769 
z
" transform="scale(0.015625)"/>
      <path id="Cmr10-66" d="M 206 0 
L 206 225 
Q 422 225 562 259 
Q 703 294 703 428 
L 703 2534 
L 213 2534 
L 213 2759 
L 703 2759 
L 703 3525 
Q 703 3731 789 3911 
Q 875 4091 1020 4225 
Q 1166 4359 1355 4436 
Q 1544 4513 1747 4513 
Q 1963 4513 2136 4384 
Q 2309 4256 2309 4044 
Q 2309 3922 2226 3839 
Q 2144 3756 2022 3756 
Q 1900 3756 1814 3839 
Q 1728 3922 1728 4044 
Q 1728 4244 1900 4313 
Q 1797 4347 1716 4347 
Q 1528 4347 1395 4214 
Q 1263 4081 1197 3890 
Q 1131 3700 1131 3513 
L 1131 2759 
L 1869 2759 
L 1869 2534 
L 1153 2534 
L 1153 428 
Q 1153 297 1340 261 
Q 1528 225 1772 225 
L 1772 0 
L 206 0 
z
" transform="scale(0.015625)"/>
      <path id="Cmr10-6f" d="M 1600 -72 
Q 1216 -72 887 123 
Q 559 319 368 647 
Q 178 975 178 1363 
Q 178 1656 283 1928 
Q 388 2200 583 2414 
Q 778 2628 1037 2748 
Q 1297 2869 1600 2869 
Q 1994 2869 2317 2661 
Q 2641 2453 2828 2104 
Q 3016 1756 3016 1363 
Q 3016 978 2825 648 
Q 2634 319 2307 123 
Q 1981 -72 1600 -72 
z
M 1600 116 
Q 2113 116 2284 487 
Q 2456 859 2456 1434 
Q 2456 1756 2422 1967 
Q 2388 2178 2272 2350 
Q 2200 2456 2089 2536 
Q 1978 2616 1854 2658 
Q 1731 2700 1600 2700 
Q 1400 2700 1220 2609 
Q 1041 2519 922 2350 
Q 803 2169 770 1951 
Q 738 1734 738 1434 
Q 738 1075 800 789 
Q 863 503 1052 309 
Q 1241 116 1600 116 
z
" transform="scale(0.015625)"/>
      <path id="Cmr10-6c" d="M 197 0 
L 197 225 
Q 416 225 556 259 
Q 697 294 697 428 
L 697 3788 
Q 697 3959 645 4036 
Q 594 4113 497 4130 
Q 400 4147 197 4147 
L 197 4372 
L 1147 4441 
L 1147 428 
Q 1147 294 1287 259 
Q 1428 225 1644 225 
L 1644 0 
L 197 0 
z
" transform="scale(0.015625)"/>
      <path id="Cmr10-77" d="M 1416 0 
L 588 2328 
Q 531 2469 425 2501 
Q 319 2534 116 2534 
L 116 2759 
L 1434 2759 
L 1434 2534 
Q 1056 2534 1056 2375 
Q 1059 2366 1061 2356 
Q 1063 2347 1063 2328 
L 1678 603 
L 2209 2106 
L 2125 2328 
Q 2075 2469 1965 2501 
Q 1856 2534 1656 2534 
L 1656 2759 
L 2919 2759 
L 2919 2534 
Q 2541 2534 2541 2375 
Q 2541 2350 2547 2328 
L 3188 525 
L 3769 2156 
Q 3781 2206 3781 2247 
Q 3781 2381 3667 2457 
Q 3553 2534 3413 2534 
L 3413 2759 
L 4500 2759 
L 4500 2534 
Q 4306 2534 4167 2432 
Q 4028 2331 3963 2156 
L 3200 0 
Q 3178 -72 3103 -72 
L 3053 -72 
Q 2978 -72 2956 0 
L 2309 1825 
L 1663 0 
Q 1631 -72 1563 -72 
L 1516 -72 
Q 1438 -72 1416 0 
z
" transform="scale(0.015625)"/>
      <path id="Cmr10-6e" d="M 191 0 
L 191 225 
Q 409 225 550 259 
Q 691 294 691 428 
L 691 2175 
Q 691 2347 639 2423 
Q 588 2500 491 2517 
Q 394 2534 191 2534 
L 191 2759 
L 1119 2828 
L 1119 2203 
Q 1247 2478 1498 2653 
Q 1750 2828 2047 2828 
Q 2491 2828 2714 2615 
Q 2938 2403 2938 1966 
L 2938 428 
Q 2938 294 3078 259 
Q 3219 225 3438 225 
L 3438 0 
L 1972 0 
L 1972 225 
Q 2191 225 2331 259 
Q 2472 294 2472 428 
L 2472 1947 
Q 2472 2259 2381 2461 
Q 2291 2663 2009 2663 
Q 1638 2663 1398 2366 
Q 1159 2069 1159 1691 
L 1159 428 
Q 1159 294 1300 259 
Q 1441 225 1656 225 
L 1656 0 
L 191 0 
z
" transform="scale(0.015625)"/>
      <path id="Cmr10-6b" d="M 166 0 
L 166 225 
Q 384 225 525 259 
Q 666 294 666 428 
L 666 3788 
Q 666 3959 614 4036 
Q 563 4113 466 4130 
Q 369 4147 166 4147 
L 166 4372 
L 1113 4441 
L 1113 1403 
L 1972 2156 
Q 2100 2278 2100 2381 
Q 2100 2456 2047 2495 
Q 1994 2534 1919 2534 
L 1919 2759 
L 3122 2759 
L 3122 2534 
Q 2688 2534 2253 2156 
L 1797 1759 
L 2613 603 
Q 2781 363 2895 294 
Q 3009 225 3272 225 
L 3272 0 
L 1997 0 
L 1997 225 
Q 2216 225 2216 359 
Q 2216 456 2100 603 
L 1484 1478 
L 1094 1141 
L 1094 428 
Q 1094 294 1236 259 
Q 1378 225 1594 225 
L 1594 0 
L 166 0 
z
" transform="scale(0.015625)"/>
      <path id="Cmr10-75" d="M 691 763 
L 691 2175 
Q 691 2347 639 2423 
Q 588 2500 491 2517 
Q 394 2534 191 2534 
L 191 2759 
L 1159 2828 
L 1159 763 
Q 1159 513 1195 373 
Q 1231 234 1348 165 
Q 1466 97 1722 97 
Q 2066 97 2269 384 
Q 2472 672 2472 1038 
L 2472 2175 
Q 2472 2347 2419 2423 
Q 2366 2500 2270 2517 
Q 2175 2534 1972 2534 
L 1972 2759 
L 2938 2828 
L 2938 581 
Q 2938 413 2989 336 
Q 3041 259 3137 242 
Q 3234 225 3438 225 
L 3438 0 
L 2491 -72 
L 2491 469 
Q 2372 228 2159 78 
Q 1947 -72 1691 -72 
Q 1231 -72 961 123 
Q 691 319 691 763 
z
" transform="scale(0.015625)"/>
      <path id="Cmr10-73" d="M 213 -19 
L 213 1025 
Q 213 1075 269 1075 
L 347 1075 
Q 384 1075 397 1025 
Q 575 97 1259 97 
Q 1563 97 1767 234 
Q 1972 372 1972 659 
Q 1972 866 1812 1011 
Q 1653 1156 1434 1209 
L 1006 1294 
Q 791 1341 614 1437 
Q 438 1534 325 1695 
Q 213 1856 213 2069 
Q 213 2350 361 2529 
Q 509 2709 746 2789 
Q 984 2869 1259 2869 
Q 1588 2869 1831 2694 
L 2016 2853 
Q 2016 2869 2047 2869 
L 2094 2869 
Q 2113 2869 2128 2851 
Q 2144 2834 2144 2816 
L 2144 1978 
Q 2144 1919 2094 1919 
L 2016 1919 
Q 1959 1919 1959 1978 
Q 1959 2313 1773 2516 
Q 1588 2719 1253 2719 
Q 966 2719 755 2612 
Q 544 2506 544 2247 
Q 544 2069 695 1955 
Q 847 1841 1050 1791 
L 1484 1709 
Q 1703 1659 1892 1540 
Q 2081 1422 2192 1240 
Q 2303 1059 2303 831 
Q 2303 600 2223 429 
Q 2144 259 2001 146 
Q 1859 34 1665 -19 
Q 1472 -72 1259 -72 
Q 859 -72 575 197 
L 341 -56 
Q 341 -72 306 -72 
L 269 -72 
Q 213 -72 213 -19 
z
" transform="scale(0.015625)"/>
      <path id="Cmr10-70" d="M 166 -1241 
L 166 -1019 
Q 384 -1019 525 -981 
Q 666 -944 666 -813 
L 666 2272 
Q 666 2447 541 2490 
Q 416 2534 166 2534 
L 166 2759 
L 1113 2828 
L 1113 2431 
Q 1288 2625 1520 2726 
Q 1753 2828 2016 2828 
Q 2394 2828 2697 2623 
Q 3000 2419 3170 2086 
Q 3341 1753 3341 1381 
Q 3341 994 3152 659 
Q 2963 325 2636 126 
Q 2309 -72 1919 -72 
Q 1453 -72 1131 306 
L 1131 -813 
Q 1131 -944 1273 -981 
Q 1416 -1019 1631 -1019 
L 1631 -1241 
L 166 -1241 
z
M 1131 622 
Q 1244 394 1444 245 
Q 1644 97 1881 97 
Q 2103 97 2273 215 
Q 2444 334 2559 534 
Q 2675 734 2729 954 
Q 2784 1175 2784 1381 
Q 2784 1638 2692 1936 
Q 2600 2234 2411 2439 
Q 2222 2644 1953 2644 
Q 1694 2644 1476 2511 
Q 1259 2378 1131 2150 
L 1131 622 
z
" transform="scale(0.015625)"/>
      <path id="Cmr10-69" d="M 197 0 
L 197 225 
Q 416 225 556 259 
Q 697 294 697 428 
L 697 2175 
Q 697 2422 601 2478 
Q 506 2534 225 2534 
L 225 2759 
L 1147 2828 
L 1147 428 
Q 1147 294 1269 259 
Q 1391 225 1594 225 
L 1594 0 
L 197 0 
z
M 469 3928 
Q 469 4069 575 4175 
Q 681 4281 819 4281 
Q 909 4281 993 4234 
Q 1078 4188 1125 4103 
Q 1172 4019 1172 3928 
Q 1172 3791 1065 3684 
Q 959 3578 819 3578 
Q 681 3578 575 3684 
Q 469 3791 469 3928 
z
" transform="scale(0.015625)"/>
      <path id="Cmr10-63" d="M 1594 -72 
Q 1206 -72 890 129 
Q 575 331 394 667 
Q 213 1003 213 1381 
Q 213 1759 392 2106 
Q 572 2453 889 2661 
Q 1206 2869 1594 2869 
Q 1969 2869 2276 2722 
Q 2584 2575 2584 2241 
Q 2584 2116 2495 2023 
Q 2406 1931 2278 1931 
Q 2150 1931 2061 2023 
Q 1972 2116 1972 2241 
Q 1972 2353 2044 2436 
Q 2116 2519 2222 2541 
Q 2000 2681 1600 2681 
Q 1294 2681 1106 2478 
Q 919 2275 844 1975 
Q 769 1675 769 1381 
Q 769 1072 861 783 
Q 953 494 1158 305 
Q 1363 116 1672 116 
Q 1975 116 2187 302 
Q 2400 488 2478 788 
Q 2478 825 2528 825 
L 2606 825 
Q 2625 825 2640 808 
Q 2656 791 2656 769 
L 2656 750 
Q 2559 372 2271 150 
Q 1984 -72 1594 -72 
z
" transform="scale(0.015625)"/>
      <path id="Cmr10-64" d="M 1563 -72 
Q 1184 -72 871 133 
Q 559 338 386 672 
Q 213 1006 213 1381 
Q 213 1769 402 2101 
Q 591 2434 916 2631 
Q 1241 2828 1631 2828 
Q 1866 2828 2075 2729 
Q 2284 2631 2438 2456 
L 2438 3788 
Q 2438 3959 2386 4036 
Q 2334 4113 2239 4130 
Q 2144 4147 1941 4147 
L 1941 4372 
L 2888 4441 
L 2888 581 
Q 2888 413 2939 336 
Q 2991 259 3086 242 
Q 3181 225 3384 225 
L 3384 0 
L 2419 -72 
L 2419 331 
Q 2253 141 2025 34 
Q 1797 -72 1563 -72 
z
M 909 556 
Q 1019 347 1201 222 
Q 1384 97 1600 97 
Q 1866 97 2087 250 
Q 2309 403 2419 647 
L 2419 2181 
Q 2344 2322 2230 2433 
Q 2116 2544 1973 2603 
Q 1831 2663 1672 2663 
Q 1338 2663 1134 2473 
Q 931 2284 850 1990 
Q 769 1697 769 1375 
Q 769 1119 795 928 
Q 822 738 909 556 
z
" transform="scale(0.015625)"/>
     </defs>
     <use xlink:href="#Cmr10-54"/>
     <use xlink:href="#Cmr10-68" x="72.216797"/>
     <use xlink:href="#Cmr10-65" x="127.734375"/>
     <use xlink:href="#Cmr10-20" x="172.119141"/>
     <use xlink:href="#Cmr10-61" x="205.419922"/>
     <use xlink:href="#Cmr10-67" x="255.419922"/>
     <use xlink:href="#Cmr10-67" x="305.419922"/>
     <use xlink:href="#Cmr10-72" x="355.419922"/>
     <use xlink:href="#Cmr10-65" x="394.53125"/>
     <use xlink:href="#Cmr10-67" x="438.916016"/>
     <use xlink:href="#Cmr10-61" x="488.916016"/>
     <use xlink:href="#Cmr10-74" x="538.916016"/>
     <use xlink:href="#Cmr10-65" x="577.734375"/>
     <use xlink:href="#Cmr10-20" x="622.119141"/>
     <use xlink:href="#Cmr10-66" x="655.419922"/>
     <use xlink:href="#Cmr10-6f" x="685.9375"/>
     <use xlink:href="#Cmr10-6c" x="735.9375"/>
     <use xlink:href="#Cmr10-6c" x="763.623047"/>
     <use xlink:href="#Cmr10-6f" x="791.308594"/>
     <use xlink:href="#Cmr10-77" x="841.308594"/>
     <use xlink:href="#Cmr10-65" x="913.525391"/>
     <use xlink:href="#Cmr10-72" x="957.910156"/>
     <use xlink:href="#Cmr10-20" x="997.021484"/>
     <use xlink:href="#Cmr10-6e" x="1030.322266"/>
     <use xlink:href="#Cmr10-65" x="1085.839844"/>
     <use xlink:href="#Cmr10-74" x="1130.224609"/>
     <use xlink:href="#Cmr10-77" x="1169.042969"/>
     <use xlink:href="#Cmr10-6f" x="1241.259766"/>
     <use xlink:href="#Cmr10-72" x="1291.259766"/>
     <use xlink:href="#Cmr10-6b" x="1330.371094"/>
     <use xlink:href="#Cmr10-20" x="1383.056641"/>
     <use xlink:href="#Cmr10-6f" x="1416.357422"/>
     <use xlink:href="#Cmr10-66" x="1466.357422"/>
     <use xlink:href="#Cmr10-20" x="1496.875"/>
     <use xlink:href="#Cmr10-75" x="1530.175781"/>
     <use xlink:href="#Cmr10-73" x="1585.693359"/>
     <use xlink:href="#Cmr10-65" x="1625.097656"/>
     <use xlink:href="#Cmr10-72" x="1669.482422"/>
     <use xlink:href="#Cmr10-73" x="1708.59375"/>
     <use xlink:href="#Cmr10-20" x="1747.998047"/>
     <use xlink:href="#Cmr10-77" x="1781.298828"/>
     <use xlink:href="#Cmr10-68" x="1853.515625"/>
     <use xlink:href="#Cmr10-6f" x="1909.033203"/>
     <use xlink:href="#Cmr10-20" x="1959.033203"/>
     <use xlink:href="#Cmr10-70" x="1992.333984"/>
     <use xlink:href="#Cmr10-61" x="2047.851562"/>
     <use xlink:href="#Cmr10-72" x="2097.851562"/>
     <use xlink:href="#Cmr10-74" x="2136.962891"/>
     <use xlink:href="#Cmr10-69" x="2175.78125"/>
     <use xlink:href="#Cmr10-63" x="2203.466797"/>
     <use xlink:href="#Cmr10-69" x="2247.851562"/>
     <use xlink:href="#Cmr10-70" x="2275.537109"/>
     <use xlink:href="#Cmr10-61" x="2331.054688"/>
     <use xlink:href="#Cmr10-74" x="2381.054688"/>
     <use xlink:href="#Cmr10-65" x="2419.873047"/>
     <use xlink:href="#Cmr10-64" x="2464.257812"/>
     <use xlink:href="#Cmr10-20" x="2519.775391"/>
     <use xlink:href="#Cmr10-69" x="2553.076172"/>
     <use xlink:href="#Cmr10-6e" x="2580.761719"/>
     <use xlink:href="#Cmr10-20" x="2636.279297"/>
     <use xlink:href="#Cmr10-61" x="2669.580078"/>
     <use xlink:href="#Cmr10-20" x="2719.580078"/>
     <use xlink:href="#Cmr10-63" x="2752.880859"/>
     <use xlink:href="#Cmr10-61" x="2797.265625"/>
     <use xlink:href="#Cmr10-73" x="2847.265625"/>
     <use xlink:href="#Cmr10-63" x="2886.669922"/>
     <use xlink:href="#Cmr10-61" x="2931.054688"/>
     <use xlink:href="#Cmr10-64" x="2981.054688"/>
     <use xlink:href="#Cmr10-65" x="3036.572266"/>
    </g>
   </g>
   <g id="legend_1">
    <g id="patch_66">
     <path d="M 15.6 100.850625 
L 162.135 100.850625 
Q 164.535 100.850625 164.535 98.450625 
L 164.535 30.061875 
Q 164.535 27.661875 162.135 27.661875 
L 15.6 27.661875 
Q 13.2 27.661875 13.2 30.061875 
L 13.2 98.450625 
Q 13.2 100.850625 15.6 100.850625 
z
" style="fill: #ffffff; opacity: 0.8; stroke: #cccccc; stroke-linejoin: miter"/>
    </g>
    <g id="line2d_1">
     <path d="M 18 36.661875 
L 30 36.661875 
L 42 36.661875 
" style="fill: none; stroke: #ffffff; stroke-width: 1.5; stroke-linecap: round"/>
     <defs>
      <path id="m13e388b957" d="M 0 5 
C 1.326016 5 2.597899 4.473168 3.535534 3.535534 
C 4.473168 2.597899 5 1.326016 5 0 
C 5 -1.326016 4.473168 -2.597899 3.535534 -3.535534 
C 2.597899 -4.473168 1.326016 -5 0 -5 
C -1.326016 -5 -2.597899 -4.473168 -3.535534 -3.535534 
C -4.473168 -2.597899 -5 -1.326016 -5 0 
C -5 1.326016 -4.473168 2.597899 -3.535534 3.535534 
C -2.597899 4.473168 -1.326016 5 0 5 
z
" style="stroke: #ffffff"/>
     </defs>
     <g>
      <use xlink:href="#m13e388b957" x="30" y="36.661875" style="fill: #ff0000; stroke: #ffffff"/>
     </g>
    </g>
    <g id="text_2">
     <!-- Source node -->
     <g style="fill: #262626" transform="translate(51.6 40.861875) scale(0.12 -0.12)">
      <defs>
       <path id="Cmr10-53" d="M 359 -91 
L 359 1403 
Q 359 1453 416 1453 
L 494 1453 
Q 513 1453 528 1437 
Q 544 1422 544 1403 
Q 544 775 933 429 
Q 1322 84 1953 84 
Q 2175 84 2362 212 
Q 2550 341 2654 548 
Q 2759 756 2759 978 
Q 2759 1172 2681 1355 
Q 2603 1538 2456 1672 
Q 2309 1806 2125 1850 
L 1294 2053 
Q 881 2163 620 2502 
Q 359 2841 359 3263 
Q 359 3594 528 3884 
Q 697 4175 983 4344 
Q 1269 4513 1600 4513 
Q 2241 4513 2619 4078 
L 2881 4494 
Q 2900 4513 2925 4513 
L 2969 4513 
Q 2988 4513 3005 4498 
Q 3022 4484 3022 4459 
L 3022 2975 
Q 3022 2919 2969 2919 
L 2894 2919 
Q 2834 2919 2834 2975 
Q 2834 3138 2779 3331 
Q 2725 3525 2628 3703 
Q 2531 3881 2419 3994 
Q 2109 4306 1600 4306 
Q 1381 4306 1197 4195 
Q 1013 4084 903 3893 
Q 794 3703 794 3494 
Q 794 3219 964 2995 
Q 1134 2772 1409 2700 
L 2241 2497 
Q 2447 2447 2630 2317 
Q 2813 2188 2934 2016 
Q 3056 1844 3125 1633 
Q 3194 1422 3194 1197 
Q 3194 850 3034 542 
Q 2875 234 2586 46 
Q 2297 -141 1953 -141 
Q 1741 -141 1519 -94 
Q 1297 -47 1109 50 
Q 922 147 769 300 
L 500 -122 
Q 481 -141 453 -141 
L 416 -141 
Q 359 -141 359 -91 
z
" transform="scale(0.015625)"/>
      </defs>
      <use xlink:href="#Cmr10-53"/>
      <use xlink:href="#Cmr10-6f" x="55.517578"/>
      <use xlink:href="#Cmr10-75" x="105.517578"/>
      <use xlink:href="#Cmr10-72" x="161.035156"/>
      <use xlink:href="#Cmr10-63" x="200.146484"/>
      <use xlink:href="#Cmr10-65" x="244.53125"/>
      <use xlink:href="#Cmr10-20" x="288.916016"/>
      <use xlink:href="#Cmr10-6e" x="322.216797"/>
      <use xlink:href="#Cmr10-6f" x="377.734375"/>
      <use xlink:href="#Cmr10-64" x="427.734375"/>
      <use xlink:href="#Cmr10-65" x="483.251953"/>
     </g>
    </g>
    <g id="line2d_2">
     <path d="M 18 53.98875 
L 30 53.98875 
L 42 53.98875 
" style="fill: none; stroke: #ffffff; stroke-opacity: 0.4; stroke-width: 1.5; stroke-linecap: round"/>
     <defs>
      <path id="m0c11d375d0" d="M 0 5 
C 1.326016 5 2.597899 4.473168 3.535534 3.535534 
C 4.473168 2.597899 5 1.326016 5 0 
C 5 -1.326016 4.473168 -2.597899 3.535534 -3.535534 
C 2.597899 -4.473168 1.326016 -5 0 -5 
C -1.326016 -5 -2.597899 -4.473168 -3.535534 -3.535534 
C -4.473168 -2.597899 -5 -1.326016 -5 0 
C -5 1.326016 -4.473168 2.597899 -3.535534 3.535534 
C -2.597899 4.473168 -1.326016 5 0 5 
z
" style="stroke: #ffffff; stroke-opacity: 0.4"/>
     </defs>
     <g>
      <use xlink:href="#m0c11d375d0" x="30" y="53.98875" style="fill: #505050; fill-opacity: 0.4; stroke: #ffffff; stroke-opacity: 0.4"/>
     </g>
    </g>
    <g id="text_3">
     <!-- Retweeter (center) -->
     <g style="fill: #262626" transform="translate(51.6 58.18875) scale(0.12 -0.12)">
      <defs>
       <path id="Cmr10-52" d="M 213 0 
L 213 225 
Q 872 225 872 428 
L 872 3944 
Q 872 4147 213 4147 
L 213 4372 
L 2222 4372 
Q 2581 4372 2976 4242 
Q 3372 4113 3637 3847 
Q 3903 3581 3903 3213 
Q 3903 2944 3742 2733 
Q 3581 2522 3329 2380 
Q 3078 2238 2816 2175 
Q 3103 2075 3318 1856 
Q 3534 1638 3578 1356 
L 3669 788 
Q 3731 403 3800 214 
Q 3869 25 4103 25 
Q 4303 25 4401 211 
Q 4500 397 4500 616 
Q 4500 638 4520 655 
Q 4541 672 4563 672 
L 4622 672 
Q 4684 672 4684 588 
Q 4684 413 4615 245 
Q 4547 78 4417 -31 
Q 4288 -141 4109 -141 
Q 3647 -141 3314 89 
Q 2981 319 2981 763 
L 2981 1331 
Q 2981 1650 2759 1878 
Q 2538 2106 2216 2106 
L 1447 2106 
L 1447 428 
Q 1447 225 2106 225 
L 2106 0 
L 213 0 
z
M 1447 2272 
L 2131 2272 
Q 2663 2272 2941 2486 
Q 3219 2700 3219 3213 
Q 3219 3722 2944 3934 
Q 2669 4147 2131 4147 
L 1772 4147 
Q 1656 4147 1592 4137 
Q 1528 4128 1487 4083 
Q 1447 4038 1447 3944 
L 1447 2272 
z
" transform="scale(0.015625)"/>
       <path id="Cmr10-28" d="M 1984 -1588 
Q 1628 -1306 1370 -942 
Q 1113 -578 948 -165 
Q 784 247 703 697 
Q 622 1147 622 1600 
Q 622 2059 703 2509 
Q 784 2959 951 3375 
Q 1119 3791 1378 4153 
Q 1638 4516 1984 4788 
Q 1984 4800 2016 4800 
L 2075 4800 
Q 2094 4800 2109 4783 
Q 2125 4766 2125 4744 
Q 2125 4716 2113 4703 
Q 1800 4397 1592 4047 
Q 1384 3697 1257 3301 
Q 1131 2906 1075 2482 
Q 1019 2059 1019 1600 
Q 1019 -434 2106 -1491 
Q 2125 -1509 2125 -1544 
Q 2125 -1559 2108 -1579 
Q 2091 -1600 2075 -1600 
L 2016 -1600 
Q 1984 -1600 1984 -1588 
z
" transform="scale(0.015625)"/>
       <path id="Cmr10-29" d="M 416 -1600 
Q 359 -1600 359 -1544 
Q 359 -1516 372 -1503 
Q 1466 -434 1466 1600 
Q 1466 3634 384 4691 
Q 359 4706 359 4744 
Q 359 4766 376 4783 
Q 394 4800 416 4800 
L 475 4800 
Q 494 4800 506 4788 
Q 966 4425 1272 3906 
Q 1578 3388 1720 2800 
Q 1863 2213 1863 1600 
Q 1863 1147 1786 708 
Q 1709 269 1542 -157 
Q 1375 -584 1119 -945 
Q 863 -1306 506 -1588 
Q 494 -1600 475 -1600 
L 416 -1600 
z
" transform="scale(0.015625)"/>
      </defs>
      <use xlink:href="#Cmr10-52"/>
      <use xlink:href="#Cmr10-65" x="73.583984"/>
      <use xlink:href="#Cmr10-74" x="117.96875"/>
      <use xlink:href="#Cmr10-77" x="156.787109"/>
      <use xlink:href="#Cmr10-65" x="229.003906"/>
      <use xlink:href="#Cmr10-65" x="273.388672"/>
      <use xlink:href="#Cmr10-74" x="317.773438"/>
      <use xlink:href="#Cmr10-65" x="356.591797"/>
      <use xlink:href="#Cmr10-72" x="400.976562"/>
      <use xlink:href="#Cmr10-20" x="440.087891"/>
      <use xlink:href="#Cmr10-28" x="473.388672"/>
      <use xlink:href="#Cmr10-63" x="512.207031"/>
      <use xlink:href="#Cmr10-65" x="556.591797"/>
      <use xlink:href="#Cmr10-6e" x="600.976562"/>
      <use xlink:href="#Cmr10-74" x="656.494141"/>
      <use xlink:href="#Cmr10-65" x="695.3125"/>
      <use xlink:href="#Cmr10-72" x="739.697266"/>
      <use xlink:href="#Cmr10-29" x="778.808594"/>
     </g>
    </g>
    <g id="line2d_3">
     <path d="M 18 71.98875 
L 30 71.98875 
L 42 71.98875 
" style="fill: none; stroke: #ffffff; stroke-width: 1.5; stroke-linecap: round"/>
     <defs>
      <path id="m8cbbc9fa95" d="M 0 5 
C 1.326016 5 2.597899 4.473168 3.535534 3.535534 
C 4.473168 2.597899 5 1.326016 5 0 
C 5 -1.326016 4.473168 -2.597899 3.535534 -3.535534 
C 2.597899 -4.473168 1.326016 -5 0 -5 
C -1.326016 -5 -2.597899 -4.473168 -3.535534 -3.535534 
C -4.473168 -2.597899 -5 -1.326016 -5 0 
C -5 1.326016 -4.473168 2.597899 -3.535534 3.535534 
C -2.597899 4.473168 -1.326016 5 0 5 
z
" style="stroke: #ffffff"/>
     </defs>
     <g>
      <use xlink:href="#m8cbbc9fa95" x="30" y="71.98875" style="fill: #eeeeee; stroke: #ffffff"/>
     </g>
    </g>
    <g id="text_4">
     <!-- Follower (periphery) -->
     <g style="fill: #262626" transform="translate(51.6 76.18875) scale(0.12 -0.12)">
      <defs>
       <path id="Cmr10-46" d="M 197 0 
L 197 225 
Q 856 225 856 428 
L 856 3944 
Q 856 4147 197 4147 
L 197 4372 
L 3725 4372 
L 3903 2906 
L 3719 2906 
Q 3675 3309 3601 3542 
Q 3528 3775 3387 3908 
Q 3247 4041 3011 4094 
Q 2775 4147 2363 4147 
L 1778 4147 
Q 1663 4147 1598 4137 
Q 1534 4128 1493 4083 
Q 1453 4038 1453 3944 
L 1453 2297 
L 1906 2297 
Q 2234 2297 2387 2355 
Q 2541 2413 2598 2566 
Q 2656 2719 2656 3047 
L 2841 3047 
L 2841 1325 
L 2656 1325 
Q 2656 1653 2598 1806 
Q 2541 1959 2387 2017 
Q 2234 2075 1906 2075 
L 1453 2075 
L 1453 428 
Q 1453 225 2272 225 
L 2272 0 
L 197 0 
z
" transform="scale(0.015625)"/>
       <path id="Cmr10-79" d="M 441 -1050 
Q 563 -1147 709 -1147 
Q 1113 -1147 1369 -538 
L 1588 0 
L 628 2350 
Q 569 2469 447 2501 
Q 325 2534 122 2534 
L 122 2759 
L 1466 2759 
L 1466 2534 
Q 1113 2534 1113 2381 
Q 1113 2356 1119 2344 
L 1831 594 
L 2472 2169 
Q 2491 2219 2491 2278 
Q 2491 2356 2448 2414 
Q 2406 2472 2339 2503 
Q 2272 2534 2188 2534 
L 2188 2759 
L 3250 2759 
L 3250 2534 
Q 3053 2534 2904 2443 
Q 2756 2353 2675 2175 
L 1569 -538 
Q 1481 -744 1364 -917 
Q 1247 -1091 1078 -1202 
Q 909 -1313 709 -1313 
Q 475 -1313 298 -1158 
Q 122 -1003 122 -775 
Q 122 -656 203 -575 
Q 284 -494 403 -494 
Q 484 -494 548 -530 
Q 613 -566 648 -628 
Q 684 -691 684 -775 
Q 684 -878 615 -959 
Q 547 -1041 441 -1050 
z
" transform="scale(0.015625)"/>
      </defs>
      <use xlink:href="#Cmr10-46"/>
      <use xlink:href="#Cmr10-6f" x="65.185547"/>
      <use xlink:href="#Cmr10-6c" x="115.185547"/>
      <use xlink:href="#Cmr10-6c" x="142.871094"/>
      <use xlink:href="#Cmr10-6f" x="170.556641"/>
      <use xlink:href="#Cmr10-77" x="220.556641"/>
      <use xlink:href="#Cmr10-65" x="292.773438"/>
      <use xlink:href="#Cmr10-72" x="337.158203"/>
      <use xlink:href="#Cmr10-20" x="376.269531"/>
      <use xlink:href="#Cmr10-28" x="409.570312"/>
      <use xlink:href="#Cmr10-70" x="448.388672"/>
      <use xlink:href="#Cmr10-65" x="503.90625"/>
      <use xlink:href="#Cmr10-72" x="548.291016"/>
      <use xlink:href="#Cmr10-69" x="587.402344"/>
      <use xlink:href="#Cmr10-70" x="615.087891"/>
      <use xlink:href="#Cmr10-68" x="670.605469"/>
      <use xlink:href="#Cmr10-65" x="726.123047"/>
      <use xlink:href="#Cmr10-72" x="770.507812"/>
      <use xlink:href="#Cmr10-79" x="809.619141"/>
      <use xlink:href="#Cmr10-29" x="862.304688"/>
     </g>
    </g>
    <g id="line2d_4">
     <path d="M 18 89.38875 
L 30 89.38875 
L 42 89.38875 
" style="fill: none; stroke: #e2e2e2; stroke-width: 1.5; stroke-linecap: round"/>
    </g>
    <g id="text_5">
     <!-- Followed by -->
     <g style="fill: #262626" transform="translate(51.6 93.58875) scale(0.12 -0.12)">
      <defs>
       <path id="Cmr10-62" d="M 666 0 
L 666 3788 
Q 666 3959 614 4036 
Q 563 4113 466 4130 
Q 369 4147 166 4147 
L 166 4372 
L 1113 4441 
L 1113 2438 
Q 1219 2556 1361 2645 
Q 1503 2734 1665 2781 
Q 1828 2828 1997 2828 
Q 2284 2828 2529 2712 
Q 2775 2597 2956 2394 
Q 3138 2191 3239 1927 
Q 3341 1663 3341 1381 
Q 3341 994 3152 659 
Q 2963 325 2636 126 
Q 2309 -72 1919 -72 
Q 1675 -72 1447 53 
Q 1219 178 1069 384 
L 850 0 
L 666 0 
z
M 1131 628 
Q 1238 394 1438 245 
Q 1638 97 1881 97 
Q 2213 97 2417 287 
Q 2622 478 2703 768 
Q 2784 1059 2784 1381 
Q 2784 1922 2644 2203 
Q 2581 2328 2473 2434 
Q 2366 2541 2233 2602 
Q 2100 2663 1953 2663 
Q 1697 2663 1478 2527 
Q 1259 2391 1131 2163 
L 1131 628 
z
" transform="scale(0.015625)"/>
      </defs>
      <use xlink:href="#Cmr10-46"/>
      <use xlink:href="#Cmr10-6f" x="65.185547"/>
      <use xlink:href="#Cmr10-6c" x="115.185547"/>
      <use xlink:href="#Cmr10-6c" x="142.871094"/>
      <use xlink:href="#Cmr10-6f" x="170.556641"/>
      <use xlink:href="#Cmr10-77" x="220.556641"/>
      <use xlink:href="#Cmr10-65" x="292.773438"/>
      <use xlink:href="#Cmr10-64" x="337.158203"/>
      <use xlink:href="#Cmr10-20" x="392.675781"/>
      <use xlink:href="#Cmr10-62" x="425.976562"/>
      <use xlink:href="#Cmr10-79" x="481.494141"/>
     </g>
    </g>
   </g>
  </g>
 </g>
 <defs>
  <clipPath id="p3ca1436332">
   <rect x="7.2" y="21.661875" width="446.4" height="443.52"/>
  </clipPath>
 </defs>
</svg>
