<?xml version="1.0" encoding="utf-8" standalone="no"?>
<!DOCTYPE svg PUBLIC "-//W3C//DTD SVG 1.1//EN"
  "http://www.w3.org/Graphics/SVG/1.1/DTD/svg11.dtd">
<svg xmlns:xlink="http://www.w3.org/1999/xlink" width="460.8pt" height="472.381875pt" viewBox="0 0 460.8 472.381875" xmlns="http://www.w3.org/2000/svg" version="1.1">
 <metadata>
  <rdf:RDF xmlns:dc="http://purl.org/dc/elements/1.1/" xmlns:cc="http://creativecommons.org/ns#" xmlns:rdf="http://www.w3.org/1999/02/22-rdf-syntax-ns#">
   <cc:Work>
    <dc:type rdf:resource="http://purl.org/dc/dcmitype/StillImage"/>
    <dc:date>2024-03-05T16:01:36.958237</dc:date>
    <dc:format>image/svg+xml</dc:format>
    <dc:creator>
     <cc:Agent>
      <dc:title>Matplotlib v3.8.2, https://matplotlib.org/</dc:title>
     </cc:Agent>
    </dc:creator>
   </cc:Work>
  </rdf:RDF>
 </metadata>
 <defs>
  <style type="text/css">*{stroke-linejoin: round; stroke-linecap: butt}</style>
 </defs>
 <g id="figure_1">
  <g id="patch_1">
   <path d="M 0 472.381875 
L 460.8 472.381875 
L 460.8 0 
L 0 0 
z
" style="fill: #ffffff"/>
  </g>
  <g id="axes_1">
   <g id="patch_2">
    <path d="M 7.2 465.181875 
L 453.6 465.181875 
L 453.6 21.661875 
L 7.2 21.661875 
z
" style="fill: #ffffff"/>
   </g>
   <g id="matplotlib.axis_1">
    <g id="xtick_1"/>
    <g id="xtick_2"/>
    <g id="xtick_3"/>
    <g id="xtick_4"/>
    <g id="xtick_5"/>
   </g>
   <g id="matplotlib.axis_2">
    <g id="ytick_1"/>
    <g id="ytick_2"/>
    <g id="ytick_3"/>
    <g id="ytick_4"/>
    <g id="ytick_5"/>
   </g>
   <g id="patch_3">
    <path d="M 245.868303 250.632152 
Q 252.37076 313.617122 258.781366 375.712393 
" clip-path="url(#p093f9a606b)" style="fill: none; stroke: #000000; stroke-opacity: 0.3; stroke-width: 0.8; stroke-linecap: round"/>
    <path d="M 259.72856 373.20185 
L 258.781366 375.712393 
L 257.341249 373.448312 
z
" clip-path="url(#p093f9a606b)" style="fill-opacity: 0.3; stroke: #000000; stroke-opacity: 0.3; stroke-width: 0.8; stroke-linecap: round"/>
   </g>
   <g id="patch_4">
    <path d="M 238.229456 245.105403 
Q 170.279232 259.880246 103.203014 274.465049 
" clip-path="url(#p093f9a606b)" style="fill: none; stroke: #000000; stroke-opacity: 0.3; stroke-width: 0.8; stroke-linecap: round"/>
    <path d="M 105.803181 275.127718 
L 103.203014 274.465049 
L 105.29325 272.782517 
z
" clip-path="url(#p093f9a606b)" style="fill-opacity: 0.3; stroke: #000000; stroke-opacity: 0.3; stroke-width: 0.8; stroke-linecap: round"/>
   </g>
   <g id="patch_5">
    <path d="M 251.463253 240.426603 
Q 320.760757 205.610213 389.259035 171.19537 
" clip-path="url(#p093f9a606b)" style="fill: none; stroke: #000000; stroke-opacity: 0.3; stroke-width: 0.8; stroke-linecap: round"/>
    <path d="M 386.575758 171.200558 
L 389.259035 171.19537 
L 387.653219 173.345104 
z
" clip-path="url(#p093f9a606b)" style="fill-opacity: 0.3; stroke: #000000; stroke-opacity: 0.3; stroke-width: 0.8; stroke-linecap: round"/>
   </g>
   <g id="patch_6">
    <path d="M 242.783036 236.936126 
Q 219.387514 170.838835 196.290437 105.584711 
" clip-path="url(#p093f9a606b)" style="fill: none; stroke: #000000; stroke-opacity: 0.3; stroke-width: 0.8; stroke-linecap: round"/>
    <path d="M 195.960018 108.247571 
L 196.290437 105.584711 
L 198.222473 107.446761 
z
" clip-path="url(#p093f9a606b)" style="fill-opacity: 0.3; stroke: #000000; stroke-opacity: 0.3; stroke-width: 0.8; stroke-linecap: round"/>
   </g>
   <g id="patch_7">
    <path d="M 251.836597 241.309782 
Q 321.148649 217.572973 389.61452 194.12595 
" clip-path="url(#p093f9a606b)" style="fill: none; stroke: #000000; stroke-opacity: 0.3; stroke-width: 0.8; stroke-linecap: round"/>
    <path d="M 386.955187 193.768255 
L 389.61452 194.12595 
L 387.732764 196.0388 
z
" clip-path="url(#p093f9a606b)" style="fill-opacity: 0.3; stroke: #000000; stroke-opacity: 0.3; stroke-width: 0.8; stroke-linecap: round"/>
   </g>
   <g id="patch_8">
    <path d="M 238.231178 245.096734 
Q 237.389812 245.278668 237.422669 245.271563 
" clip-path="url(#p093f9a606b)" style="fill: none; stroke: #000000; stroke-opacity: 0.3; stroke-width: 0.8; stroke-linecap: round"/>
    <path d="M 240.022075 245.937212 
L 237.422669 245.271563 
L 239.514831 243.591428 
z
" clip-path="url(#p093f9a606b)" style="fill-opacity: 0.3; stroke: #000000; stroke-opacity: 0.3; stroke-width: 0.8; stroke-linecap: round"/>
   </g>
   <g id="patch_9">
    <path d="M 245.850578 236.567988 
Q 251.335939 182.071126 256.731723 128.464195 
" clip-path="url(#p093f9a606b)" style="fill: none; stroke: #000000; stroke-opacity: 0.3; stroke-width: 0.8; stroke-linecap: round"/>
    <path d="M 255.2974 130.731951 
L 256.731723 128.464195 
L 257.685334 130.972308 
z
" clip-path="url(#p093f9a606b)" style="fill-opacity: 0.3; stroke: #000000; stroke-opacity: 0.3; stroke-width: 0.8; stroke-linecap: round"/>
   </g>
   <g id="patch_10">
    <path d="M 249.818076 248.908276 
Q 297.076643 302.539734 343.743882 355.500123 
" clip-path="url(#p093f9a606b)" style="fill: none; stroke: #000000; stroke-opacity: 0.3; stroke-width: 0.8; stroke-linecap: round"/>
    <path d="M 343.057518 352.90611 
L 343.743882 355.500123 
L 341.256853 354.492807 
z
" clip-path="url(#p093f9a606b)" style="fill-opacity: 0.3; stroke: #000000; stroke-opacity: 0.3; stroke-width: 0.8; stroke-linecap: round"/>
   </g>
   <g id="patch_11">
    <path d="M 249.816087 238.297283 
Q 304.201504 176.564055 357.995669 115.501961 
" clip-path="url(#p093f9a606b)" style="fill: none; stroke: #000000; stroke-opacity: 0.3; stroke-width: 0.8; stroke-linecap: round"/>
    <path d="M 355.508752 116.509555 
L 357.995669 115.501961 
L 357.309594 118.096051 
z
" clip-path="url(#p093f9a606b)" style="fill-opacity: 0.3; stroke: #000000; stroke-opacity: 0.3; stroke-width: 0.8; stroke-linecap: round"/>
   </g>
   <g id="patch_12">
    <path d="M 240.012192 248.471247 
Q 172.209117 312.820249 105.054806 376.553536 
" clip-path="url(#p093f9a606b)" style="fill: none; stroke: #000000; stroke-opacity: 0.3; stroke-width: 0.8; stroke-linecap: round"/>
    <path d="M 107.621691 375.771809 
L 105.054806 376.553536 
L 105.969556 374.030991 
z
" clip-path="url(#p093f9a606b)" style="fill-opacity: 0.3; stroke: #000000; stroke-opacity: 0.3; stroke-width: 0.8; stroke-linecap: round"/>
   </g>
   <g id="patch_13">
    <path d="M 242.08627 249.977508 
Q 201.353228 334.944867 161.006836 419.10569 
" clip-path="url(#p093f9a606b)" style="fill: none; stroke: #000000; stroke-opacity: 0.3; stroke-width: 0.8; stroke-linecap: round"/>
    <path d="M 163.126411 417.460272 
L 161.006836 419.10569 
L 160.962247 416.422779 
z
" clip-path="url(#p093f9a606b)" style="fill-opacity: 0.3; stroke: #000000; stroke-opacity: 0.3; stroke-width: 0.8; stroke-linecap: round"/>
   </g>
   <g id="patch_14">
    <path d="M 248.644916 237.456003 
Q 281.120903 180.464476 313.154061 124.25006 
" clip-path="url(#p093f9a606b)" style="fill: none; stroke: #000000; stroke-opacity: 0.3; stroke-width: 0.8; stroke-linecap: round"/>
    <path d="M 310.923222 125.741153 
L 313.154061 124.25006 
L 313.008432 126.929387 
z
" clip-path="url(#p093f9a606b)" style="fill-opacity: 0.3; stroke: #000000; stroke-opacity: 0.3; stroke-width: 0.8; stroke-linecap: round"/>
   </g>
   <g id="patch_15">
    <path d="M 247.67302 250.202708 
Q 277.268961 327.400528 306.544722 403.763192 
" clip-path="url(#p093f9a606b)" style="fill: none; stroke: #000000; stroke-opacity: 0.3; stroke-width: 0.8; stroke-linecap: round"/>
    <path d="M 306.806067 401.092668 
L 306.544722 403.763192 
L 304.56511 401.951802 
z
" clip-path="url(#p093f9a606b)" style="fill-opacity: 0.3; stroke: #000000; stroke-opacity: 0.3; stroke-width: 0.8; stroke-linecap: round"/>
   </g>
   <g id="patch_16">
    <path d="M 243.191953 236.805824 
Q 220.22343 156.777014 197.501648 77.607923 
" clip-path="url(#p093f9a606b)" style="fill: none; stroke: #000000; stroke-opacity: 0.3; stroke-width: 0.8; stroke-linecap: round"/>
    <path d="M 197.010292 80.245833 
L 197.501648 77.607923 
L 199.317163 79.583754 
z
" clip-path="url(#p093f9a606b)" style="fill-opacity: 0.3; stroke: #000000; stroke-opacity: 0.3; stroke-width: 0.8; stroke-linecap: round"/>
   </g>
   <g id="patch_17">
    <path d="M 238.219327 242.17723 
Q 148.237023 223.656053 59.130782 205.315197 
" clip-path="url(#p093f9a606b)" style="fill: none; stroke: #000000; stroke-opacity: 0.3; stroke-width: 0.8; stroke-linecap: round"/>
    <path d="M 61.239576 206.97441 
L 59.130782 205.315197 
L 61.723428 204.623689 
z
" clip-path="url(#p093f9a606b)" style="fill-opacity: 0.3; stroke: #000000; stroke-opacity: 0.3; stroke-width: 0.8; stroke-linecap: round"/>
   </g>
   <g id="patch_18">
    <path d="M 239.075464 239.975936 
Q 161.294687 193.486193 84.281653 147.455331 
" clip-path="url(#p093f9a606b)" style="fill: none; stroke: #000000; stroke-opacity: 0.3; stroke-width: 0.8; stroke-linecap: round"/>
    <path d="M 85.726067 149.716672 
L 84.281653 147.455331 
L 86.957375 147.656604 
z
" clip-path="url(#p093f9a606b)" style="fill-opacity: 0.3; stroke: #000000; stroke-opacity: 0.3; stroke-width: 0.8; stroke-linecap: round"/>
   </g>
   <g id="patch_19">
    <path d="M 251.302724 247.074507 
Q 321.400539 286.586033 390.71918 325.658367 
" clip-path="url(#p093f9a606b)" style="fill: none; stroke: #000000; stroke-opacity: 0.3; stroke-width: 0.8; stroke-linecap: round"/>
    <path d="M 389.217675 323.434523 
L 390.71918 325.658367 
L 388.039202 325.525265 
z
" clip-path="url(#p093f9a606b)" style="fill-opacity: 0.3; stroke: #000000; stroke-opacity: 0.3; stroke-width: 0.8; stroke-linecap: round"/>
   </g>
   <g id="patch_20">
    <path d="M 242.086333 237.225137 
Q 204.215951 158.204666 166.732123 79.990778 
" clip-path="url(#p093f9a606b)" style="fill: none; stroke: #000000; stroke-opacity: 0.3; stroke-width: 0.8; stroke-linecap: round"/>
    <path d="M 166.687209 82.673684 
L 166.732123 79.990778 
L 168.851499 81.636453 
z
" clip-path="url(#p093f9a606b)" style="fill-opacity: 0.3; stroke: #000000; stroke-opacity: 0.3; stroke-width: 0.8; stroke-linecap: round"/>
   </g>
   <g id="patch_21">
    <path d="M 243.649014 250.514072 
Q 226.611397 329.36131 209.762691 407.334298 
" clip-path="url(#p093f9a606b)" style="fill: none; stroke: #000000; stroke-opacity: 0.3; stroke-width: 0.8; stroke-linecap: round"/>
    <path d="M 211.442522 405.241891 
L 209.762691 407.334298 
L 209.096664 404.734989 
z
" clip-path="url(#p093f9a606b)" style="fill-opacity: 0.3; stroke: #000000; stroke-opacity: 0.3; stroke-width: 0.8; stroke-linecap: round"/>
   </g>
   <g id="patch_22">
    <path d="M 239.029654 247.157127 
Q 167.170697 288.945861 96.084931 330.284954 
" clip-path="url(#p093f9a606b)" style="fill: none; stroke: #000000; stroke-opacity: 0.3; stroke-width: 0.8; stroke-linecap: round"/>
    <path d="M 98.762874 330.115788 
L 96.084931 330.284954 
L 97.556364 328.041099 
z
" clip-path="url(#p093f9a606b)" style="fill-opacity: 0.3; stroke: #000000; stroke-opacity: 0.3; stroke-width: 0.8; stroke-linecap: round"/>
   </g>
   <g id="patch_23">
    <path d="M 251.718454 246.200502 
Q 318.48247 272.580136 384.414637 298.631092 
" clip-path="url(#p093f9a606b)" style="fill: none; stroke: #000000; stroke-opacity: 0.3; stroke-width: 0.8; stroke-linecap: round"/>
    <path d="M 382.623523 296.633116 
L 384.414637 298.631092 
L 381.741588 298.865199 
z
" clip-path="url(#p093f9a606b)" style="fill-opacity: 0.3; stroke: #000000; stroke-opacity: 0.3; stroke-width: 0.8; stroke-linecap: round"/>
   </g>
   <g id="patch_24">
    <path d="M 238.082175 243.17811 
Q 154.804868 238.175416 72.420379 233.226356 
" clip-path="url(#p093f9a606b)" style="fill: none; stroke: #000000; stroke-opacity: 0.3; stroke-width: 0.8; stroke-linecap: round"/>
    <path d="M 74.744103 234.568111 
L 72.420379 233.226356 
L 74.888018 232.17243 
z
" clip-path="url(#p093f9a606b)" style="fill-opacity: 0.3; stroke: #000000; stroke-opacity: 0.3; stroke-width: 0.8; stroke-linecap: round"/>
   </g>
   <g id="patch_25">
    <path d="M 252.203344 243.922755 
Q 322.005578 247.091275 390.914305 250.219237 
" clip-path="url(#p093f9a606b)" style="fill: none; stroke: #000000; stroke-opacity: 0.3; stroke-width: 0.8; stroke-linecap: round"/>
    <path d="M 388.571189 248.911641 
L 390.914305 250.219237 
L 388.462358 251.309172 
z
" clip-path="url(#p093f9a606b)" style="fill-opacity: 0.3; stroke: #000000; stroke-opacity: 0.3; stroke-width: 0.8; stroke-linecap: round"/>
   </g>
   <g id="patch_26">
    <path d="M 252.173653 244.339788 
Q 330.000615 252.503602 406.93803 260.574106 
" clip-path="url(#p093f9a606b)" style="fill: none; stroke: #000000; stroke-opacity: 0.3; stroke-width: 0.8; stroke-linecap: round"/>
    <path d="M 404.676315 259.130275 
L 406.93803 260.574106 
L 404.425936 261.517179 
z
" clip-path="url(#p093f9a606b)" style="fill-opacity: 0.3; stroke: #000000; stroke-opacity: 0.3; stroke-width: 0.8; stroke-linecap: round"/>
   </g>
   <g id="patch_27">
    <path d="M 250.843179 239.418537 
Q 316.411551 191.297732 381.258849 143.706125 
" clip-path="url(#p093f9a606b)" style="fill: none; stroke: #000000; stroke-opacity: 0.3; stroke-width: 0.8; stroke-linecap: round"/>
    <path d="M 378.614008 144.158691 
L 381.258849 143.706125 
L 380.033997 146.093537 
z
" clip-path="url(#p093f9a606b)" style="fill-opacity: 0.3; stroke: #000000; stroke-opacity: 0.3; stroke-width: 0.8; stroke-linecap: round"/>
   </g>
   <g id="patch_28">
    <path d="M 252.967061 386.090399 
Q 252.557769 386.241847 252.987319 386.082903 
" clip-path="url(#p093f9a606b)" style="fill: none; stroke: #000000; stroke-opacity: 0.3; stroke-width: 0.8; stroke-linecap: round"/>
    <path d="M 255.654604 386.375462 
L 252.987319 386.082903 
L 254.821737 384.124611 
z
" clip-path="url(#p093f9a606b)" style="fill-opacity: 0.3; stroke: #000000; stroke-opacity: 0.3; stroke-width: 0.8; stroke-linecap: round"/>
   </g>
   <g id="patch_29">
    <path d="M 88.514626 277.653393 
Q 86.949011 277.99258 86.257543 278.142385 
" clip-path="url(#p093f9a606b)" style="fill: none; stroke: #000000; stroke-opacity: 0.3; stroke-width: 0.8; stroke-linecap: round"/>
    <path d="M 88.857211 278.807011 
L 86.257543 278.142385 
L 88.349045 276.461427 
z
" clip-path="url(#p093f9a606b)" style="fill-opacity: 0.3; stroke: #000000; stroke-opacity: 0.3; stroke-width: 0.8; stroke-linecap: round"/>
   </g>
   <g id="patch_30">
    <path d="M 243.459816 243.966113 
Q 244.301182 243.78418 244.268326 243.791284 
" clip-path="url(#p093f9a606b)" style="fill: none; stroke: #000000; stroke-opacity: 0.3; stroke-width: 0.8; stroke-linecap: round"/>
    <path d="M 241.66892 243.125636 
L 244.268326 243.791284 
L 242.176163 245.47142 
z
" clip-path="url(#p093f9a606b)" style="fill-opacity: 0.3; stroke: #000000; stroke-opacity: 0.3; stroke-width: 0.8; stroke-linecap: round"/>
   </g>
   <g id="patch_31">
    <path d="M 264.560503 119.80595 
Q 310.394821 115.031103 355.339527 110.348934 
" clip-path="url(#p093f9a606b)" style="fill: none; stroke: #000000; stroke-opacity: 0.3; stroke-width: 0.8; stroke-linecap: round"/>
    <path d="M 352.828106 109.40407 
L 355.339527 110.348934 
L 353.076784 111.791152 
z
" clip-path="url(#p093f9a606b)" style="fill-opacity: 0.3; stroke: #000000; stroke-opacity: 0.3; stroke-width: 0.8; stroke-linecap: round"/>
   </g>
   <g id="patch_32">
    <path d="M 251.222537 117.344145 
Q 210.410918 96.674373 170.397223 76.408723 
" clip-path="url(#p093f9a606b)" style="fill: none; stroke: #000000; stroke-opacity: 0.3; stroke-width: 0.8; stroke-linecap: round"/>
    <path d="M 171.996092 78.563629 
L 170.397223 76.408723 
L 173.080469 76.422571 
z
" clip-path="url(#p093f9a606b)" style="fill-opacity: 0.3; stroke: #000000; stroke-opacity: 0.3; stroke-width: 0.8; stroke-linecap: round"/>
   </g>
   <g id="patch_33">
    <path d="M 58.139929 205.613728 
Q 59.700474 206.050048 60.399628 206.245527 
" clip-path="url(#p093f9a606b)" style="fill: none; stroke: #000000; stroke-opacity: 0.3; stroke-width: 0.8; stroke-linecap: round"/>
    <path d="M 58.411393 204.443607 
L 60.399628 206.245527 
L 57.76515 206.754964 
z
" clip-path="url(#p093f9a606b)" style="fill-opacity: 0.3; stroke: #000000; stroke-opacity: 0.3; stroke-width: 0.8; stroke-linecap: round"/>
   </g>
   <g id="patch_34">
    <path d="M 258.780829 383.939171 
Q 259.190122 383.787723 258.760571 383.946667 
" clip-path="url(#p093f9a606b)" style="fill: none; stroke: #000000; stroke-opacity: 0.3; stroke-width: 0.8; stroke-linecap: round"/>
    <path d="M 256.093286 383.654108 
L 258.760571 383.946667 
L 256.926153 385.90496 
z
" clip-path="url(#p093f9a606b)" style="fill-opacity: 0.3; stroke: #000000; stroke-opacity: 0.3; stroke-width: 0.8; stroke-linecap: round"/>
   </g>
   <g id="patch_35">
    <path d="M 81.527299 286.209868 
Q 82.186155 287.585415 82.458635 288.154294 
" clip-path="url(#p093f9a606b)" style="fill: none; stroke: #000000; stroke-opacity: 0.3; stroke-width: 0.8; stroke-linecap: round"/>
    <path d="M 82.504139 285.471398 
L 82.458635 288.154294 
L 80.339621 286.508153 
z
" clip-path="url(#p093f9a606b)" style="fill-opacity: 0.3; stroke: #000000; stroke-opacity: 0.3; stroke-width: 0.8; stroke-linecap: round"/>
   </g>
   <g id="patch_36">
    <path d="M 71.517173 281.126531 
Q 62.204148 282.863844 53.770383 284.437134 
" clip-path="url(#p093f9a606b)" style="fill: none; stroke: #000000; stroke-opacity: 0.3; stroke-width: 0.8; stroke-linecap: round"/>
    <path d="M 56.349742 285.176665 
L 53.770383 284.437134 
L 55.909623 282.817365 
z
" clip-path="url(#p093f9a606b)" style="fill-opacity: 0.3; stroke: #000000; stroke-opacity: 0.3; stroke-width: 0.8; stroke-linecap: round"/>
   </g>
   <g id="patch_37">
    <path d="M 248.229938 383.872373 
Q 250.189207 385.132834 251.396266 385.909374 
" clip-path="url(#p093f9a606b)" style="fill: none; stroke: #000000; stroke-opacity: 0.3; stroke-width: 0.8; stroke-linecap: round"/>
    <path d="M 250.027122 383.601681 
L 251.396266 385.909374 
L 248.728626 385.620073 
z
" clip-path="url(#p093f9a606b)" style="fill-opacity: 0.3; stroke: #000000; stroke-opacity: 0.3; stroke-width: 0.8; stroke-linecap: round"/>
   </g>
   <g id="patch_38">
    <path d="M 79.788859 282.580385 
Q 79.130004 281.204838 78.857524 280.635959 
" clip-path="url(#p093f9a606b)" style="fill: none; stroke: #000000; stroke-opacity: 0.3; stroke-width: 0.8; stroke-linecap: round"/>
    <path d="M 78.81202 283.318855 
L 78.857524 280.635959 
L 80.976538 282.2821 
z
" clip-path="url(#p093f9a606b)" style="fill-opacity: 0.3; stroke: #000000; stroke-opacity: 0.3; stroke-width: 0.8; stroke-linecap: round"/>
   </g>
   <g id="patch_39">
    <path d="M 54.448941 204.581749 
Q 52.888395 204.145429 52.189241 203.94995 
" clip-path="url(#p093f9a606b)" style="fill: none; stroke: #000000; stroke-opacity: 0.3; stroke-width: 0.8; stroke-linecap: round"/>
    <path d="M 54.177477 205.75187 
L 52.189241 203.94995 
L 54.823719 203.440513 
z
" clip-path="url(#p093f9a606b)" style="fill-opacity: 0.3; stroke: #000000; stroke-opacity: 0.3; stroke-width: 0.8; stroke-linecap: round"/>
   </g>
   <g id="patch_40">
    <path d="M 270.152981 236.276637 
Q 261.91704 151.732163 253.76782 68.077903 
" clip-path="url(#p093f9a606b)" style="fill: none; stroke: #000000; stroke-opacity: 0.3; stroke-width: 0.8; stroke-linecap: round"/>
    <path d="M 252.806169 70.582944 
L 253.76782 68.077903 
L 255.194862 70.350248 
z
" clip-path="url(#p093f9a606b)" style="fill-opacity: 0.3; stroke: #000000; stroke-opacity: 0.3; stroke-width: 0.8; stroke-linecap: round"/>
   </g>
   <g id="patch_41">
    <path d="M 271.513724 250.354312 
Q 279.632139 335.006315 287.665168 418.767977 
" clip-path="url(#p093f9a606b)" style="fill: none; stroke: #000000; stroke-opacity: 0.3; stroke-width: 0.8; stroke-linecap: round"/>
    <path d="M 288.63057 416.26438 
L 287.665168 418.767977 
L 286.241532 416.493497 
z
" clip-path="url(#p093f9a606b)" style="fill-opacity: 0.3; stroke: #000000; stroke-opacity: 0.3; stroke-width: 0.8; stroke-linecap: round"/>
   </g>
   <g id="patch_42">
    <path d="M 277.906736 243.195385 
Q 279.003325 243.17651 279.20562 243.173028 
" clip-path="url(#p093f9a606b)" style="fill: none; stroke: #000000; stroke-opacity: 0.3; stroke-width: 0.8; stroke-linecap: round"/>
    <path d="M 276.785323 242.014509 
L 279.20562 243.173028 
L 276.826627 244.414154 
z
" clip-path="url(#p093f9a606b)" style="fill-opacity: 0.3; stroke: #000000; stroke-opacity: 0.3; stroke-width: 0.8; stroke-linecap: round"/>
   </g>
   <g id="patch_43">
    <path d="M 273.032003 243.279291 
Q 271.935414 243.298166 271.73312 243.301648 
" clip-path="url(#p093f9a606b)" style="fill: none; stroke: #000000; stroke-opacity: 0.3; stroke-width: 0.8; stroke-linecap: round"/>
    <path d="M 274.153417 244.460166 
L 271.73312 243.301648 
L 274.112113 242.060522 
z
" clip-path="url(#p093f9a606b)" style="fill-opacity: 0.3; stroke: #000000; stroke-opacity: 0.3; stroke-width: 0.8; stroke-linecap: round"/>
   </g>
   <g id="patch_44">
    <path d="M 266.220946 86.159275 
Q 266.866882 84.438669 267.198461 83.555427 
" clip-path="url(#p093f9a606b)" style="fill: none; stroke: #000000; stroke-opacity: 0.3; stroke-width: 0.8; stroke-linecap: round"/>
    <path d="M 265.231511 85.380559 
L 267.198461 83.555427 
L 267.478397 86.224066 
z
" clip-path="url(#p093f9a606b)" style="fill-opacity: 0.3; stroke: #000000; stroke-opacity: 0.3; stroke-width: 0.8; stroke-linecap: round"/>
   </g>
   <g id="patch_45">
    <path d="M 265.02774 89.33767 
Q 264.381804 91.058276 264.050225 91.941518 
" clip-path="url(#p093f9a606b)" style="fill: none; stroke: #000000; stroke-opacity: 0.3; stroke-width: 0.8; stroke-linecap: round"/>
    <path d="M 266.017175 90.116386 
L 264.050225 91.941518 
L 263.770289 89.272879 
z
" clip-path="url(#p093f9a606b)" style="fill-opacity: 0.3; stroke: #000000; stroke-opacity: 0.3; stroke-width: 0.8; stroke-linecap: round"/>
   </g>
   <g id="patch_46">
    <path d="M 99.119849 152.996619 
Q 98.314567 152.260101 98.169291 152.12723 
" clip-path="url(#p093f9a606b)" style="fill: none; stroke: #000000; stroke-opacity: 0.3; stroke-width: 0.8; stroke-linecap: round"/>
    <path d="M 99.130397 154.63248 
L 98.169291 152.12723 
L 100.750155 152.861495 
z
" clip-path="url(#p093f9a606b)" style="fill-opacity: 0.3; stroke: #000000; stroke-opacity: 0.3; stroke-width: 0.8; stroke-linecap: round"/>
   </g>
   <g id="patch_47">
    <path d="M 102.727781 156.296463 
Q 103.533063 157.032981 103.678339 157.165851 
" clip-path="url(#p093f9a606b)" style="fill: none; stroke: #000000; stroke-opacity: 0.3; stroke-width: 0.8; stroke-linecap: round"/>
    <path d="M 102.717233 154.660602 
L 103.678339 157.165851 
L 101.097475 156.431586 
z
" clip-path="url(#p093f9a606b)" style="fill-opacity: 0.3; stroke: #000000; stroke-opacity: 0.3; stroke-width: 0.8; stroke-linecap: round"/>
   </g>
   <g id="patch_48">
    <path d="M 72.284951 282.985481 
Q 75.378049 281.407386 77.674424 280.235778 
" clip-path="url(#p093f9a606b)" style="fill: none; stroke: #000000; stroke-opacity: 0.3; stroke-width: 0.8; stroke-linecap: round"/>
    <path d="M 74.991231 280.257581 
L 77.674424 280.235778 
L 76.081951 282.395414 
z
" clip-path="url(#p093f9a606b)" style="fill-opacity: 0.3; stroke: #000000; stroke-opacity: 0.3; stroke-width: 0.8; stroke-linecap: round"/>
   </g>
   <g id="PathCollection_1">
    <defs>
     <path id="m9464eb7f16" d="M 0 7.071068 
C 1.875269 7.071068 3.673985 6.326016 5 5 
C 6.326016 3.673985 7.071068 1.875269 7.071068 0 
C 7.071068 -1.875269 6.326016 -3.673985 5 -5 
C 3.673985 -6.326016 1.875269 -7.071068 0 -7.071068 
C -1.875269 -7.071068 -3.673985 -6.326016 -5 -5 
C -6.326016 -3.673985 -7.071068 -1.875269 -7.071068 0 
C -7.071068 1.875269 -6.326016 3.673985 -5 5 
C -3.673985 6.326016 -1.875269 7.071068 0 7.071068 
z
" style="stroke: #505050; stroke-opacity: 0.3"/>
    </defs>
    <g clip-path="url(#p093f9a606b)">
     <use xlink:href="#m9464eb7f16" x="245.142548" y="243.602246" style="fill: #505050; fill-opacity: 0.3; stroke: #505050; stroke-opacity: 0.3"/>
     <use xlink:href="#m9464eb7f16" x="259.599414" y="383.636276" style="fill: #505050; fill-opacity: 0.3; stroke: #505050; stroke-opacity: 0.3"/>
     <use xlink:href="#m9464eb7f16" x="95.421328" y="276.15707" style="fill: #505050; fill-opacity: 0.3; stroke: #505050; stroke-opacity: 0.3"/>
     <use xlink:href="#m9464eb7f16" x="396.377934" y="167.618699" style="fill: #505050; fill-opacity: 0.3; stroke: #505050; stroke-opacity: 0.3"/>
     <use xlink:href="#m9464eb7f16" x="193.632566" y="98.075665" style="fill: #505050; fill-opacity: 0.3; stroke: #505050; stroke-opacity: 0.3"/>
     <use xlink:href="#m9464eb7f16" x="397.152656" y="191.544418" style="fill: #505050; fill-opacity: 0.3; stroke: #505050; stroke-opacity: 0.3"/>
     <use xlink:href="#m9464eb7f16" x="236.548447" y="245.460602" style="fill: #505050; fill-opacity: 0.3; stroke: #505050; stroke-opacity: 0.3"/>
     <use xlink:href="#m9464eb7f16" x="257.52949" y="120.538414" style="fill: #505050; fill-opacity: 0.3; stroke: #505050; stroke-opacity: 0.3"/>
     <use xlink:href="#m9464eb7f16" x="349.012177" y="361.478856" style="fill: #505050; fill-opacity: 0.3; stroke: #505050; stroke-opacity: 0.3"/>
     <use xlink:href="#m9464eb7f16" x="363.2625" y="109.523548" style="fill: #505050; fill-opacity: 0.3; stroke: #505050; stroke-opacity: 0.3"/>
     <use xlink:href="#m9464eb7f16" x="99.27574" y="382.038199" style="fill: #505050; fill-opacity: 0.3; stroke: #505050; stroke-opacity: 0.3"/>
     <use xlink:href="#m9464eb7f16" x="157.562225" y="426.291" style="fill: #505050; fill-opacity: 0.3; stroke: #505050; stroke-opacity: 0.3"/>
     <use xlink:href="#m9464eb7f16" x="317.095895" y="117.332607" style="fill: #505050; fill-opacity: 0.3; stroke: #505050; stroke-opacity: 0.3"/>
     <use xlink:href="#m9464eb7f16" x="309.395548" y="411.199266" style="fill: #505050; fill-opacity: 0.3; stroke: #505050; stroke-opacity: 0.3"/>
     <use xlink:href="#m9464eb7f16" x="195.304662" y="69.953004" style="fill: #505050; fill-opacity: 0.3; stroke: #505050; stroke-opacity: 0.3"/>
     <use xlink:href="#m9464eb7f16" x="51.327849" y="203.709109" style="fill: #505050; fill-opacity: 0.3; stroke: #505050; stroke-opacity: 0.3"/>
     <use xlink:href="#m9464eb7f16" x="77.444359" y="143.368665" style="fill: #505050; fill-opacity: 0.3; stroke: #505050; stroke-opacity: 0.3"/>
     <use xlink:href="#m9464eb7f16" x="397.659842" y="329.570559" style="fill: #505050; fill-opacity: 0.3; stroke: #505050; stroke-opacity: 0.3"/>
     <use xlink:href="#m9464eb7f16" x="163.29045" y="72.809371" style="fill: #505050; fill-opacity: 0.3; stroke: #505050; stroke-opacity: 0.3"/>
     <use xlink:href="#m9464eb7f16" x="208.080733" y="415.11812" style="fill: #505050; fill-opacity: 0.3; stroke: #505050; stroke-opacity: 0.3"/>
     <use xlink:href="#m9464eb7f16" x="89.200705" y="334.288395" style="fill: #505050; fill-opacity: 0.3; stroke: #505050; stroke-opacity: 0.3"/>
     <use xlink:href="#m9464eb7f16" x="391.826896" y="301.559806" style="fill: #505050; fill-opacity: 0.3; stroke: #505050; stroke-opacity: 0.3"/>
     <use xlink:href="#m9464eb7f16" x="64.467581" y="232.748609" style="fill: #505050; fill-opacity: 0.3; stroke: #505050; stroke-opacity: 0.3"/>
     <use xlink:href="#m9464eb7f16" x="398.875543" y="250.58062" style="fill: #505050; fill-opacity: 0.3; stroke: #505050; stroke-opacity: 0.3"/>
     <use xlink:href="#m9464eb7f16" x="414.86281" y="261.405391" style="fill: #505050; fill-opacity: 0.3; stroke: #505050; stroke-opacity: 0.3"/>
     <use xlink:href="#m9464eb7f16" x="387.682248" y="138.991975" style="fill: #505050; fill-opacity: 0.3; stroke: #505050; stroke-opacity: 0.3"/>
     <use xlink:href="#m9464eb7f16" x="252.148477" y="386.393295" style="fill: #505050; fill-opacity: 0.3; stroke: #505050; stroke-opacity: 0.3"/>
     <use xlink:href="#m9464eb7f16" x="78.471148" y="279.829291" style="fill: #505050; fill-opacity: 0.3; stroke: #505050; stroke-opacity: 0.3"/>
     <use xlink:href="#m9464eb7f16" x="242.28349" y="380.046831" style="fill: #505050; fill-opacity: 0.3; stroke: #505050; stroke-opacity: 0.3"/>
     <use xlink:href="#m9464eb7f16" x="222.157432" y="75.30363" style="fill: #505050; fill-opacity: 0.3; stroke: #505050; stroke-opacity: 0.3"/>
     <use xlink:href="#m9464eb7f16" x="383.556084" y="233.542164" style="fill: #505050; fill-opacity: 0.3; stroke: #505050; stroke-opacity: 0.3"/>
     <use xlink:href="#m9464eb7f16" x="141.58435" y="398.837915" style="fill: #505050; fill-opacity: 0.3; stroke: #505050; stroke-opacity: 0.3"/>
     <use xlink:href="#m9464eb7f16" x="309.300381" y="81.65444" style="fill: #505050; fill-opacity: 0.3; stroke: #505050; stroke-opacity: 0.3"/>
     <use xlink:href="#m9464eb7f16" x="359.413682" y="141.870631" style="fill: #505050; fill-opacity: 0.3; stroke: #505050; stroke-opacity: 0.3"/>
     <use xlink:href="#m9464eb7f16" x="82.845011" y="288.960962" style="fill: #505050; fill-opacity: 0.3; stroke: #505050; stroke-opacity: 0.3"/>
     <use xlink:href="#m9464eb7f16" x="45.93719" y="285.89839" style="fill: #505050; fill-opacity: 0.3; stroke: #505050; stroke-opacity: 0.3"/>
     <use xlink:href="#m9464eb7f16" x="69.115053" y="176.117808" style="fill: #505050; fill-opacity: 0.3; stroke: #505050; stroke-opacity: 0.3"/>
     <use xlink:href="#m9464eb7f16" x="111.654669" y="412.794675" style="fill: #505050; fill-opacity: 0.3; stroke: #505050; stroke-opacity: 0.3"/>
     <use xlink:href="#m9464eb7f16" x="252.995437" y="60.149148" style="fill: #505050; fill-opacity: 0.3; stroke: #505050; stroke-opacity: 0.3"/>
     <use xlink:href="#m9464eb7f16" x="61.26102" y="206.486368" style="fill: #505050; fill-opacity: 0.3; stroke: #505050; stroke-opacity: 0.3"/>
     <use xlink:href="#m9464eb7f16" x="260.453124" y="436.693126" style="fill: #505050; fill-opacity: 0.3; stroke: #505050; stroke-opacity: 0.3"/>
     <use xlink:href="#m9464eb7f16" x="270.838825" y="243.317041" style="fill: #505050; fill-opacity: 0.3; stroke: #505050; stroke-opacity: 0.3"/>
     <use xlink:href="#m9464eb7f16" x="288.425358" y="426.694602" style="fill: #505050; fill-opacity: 0.3; stroke: #505050; stroke-opacity: 0.3"/>
     <use xlink:href="#m9464eb7f16" x="280.099914" y="243.157635" style="fill: #505050; fill-opacity: 0.3; stroke: #505050; stroke-opacity: 0.3"/>
     <use xlink:href="#m9464eb7f16" x="383.40333" y="351.563982" style="fill: #505050; fill-opacity: 0.3; stroke: #505050; stroke-opacity: 0.3"/>
     <use xlink:href="#m9464eb7f16" x="46.544564" y="249.333664" style="fill: #505050; fill-opacity: 0.3; stroke: #505050; stroke-opacity: 0.3"/>
     <use xlink:href="#m9464eb7f16" x="263.735868" y="92.778883" style="fill: #505050; fill-opacity: 0.3; stroke: #505050; stroke-opacity: 0.3"/>
     <use xlink:href="#m9464eb7f16" x="267.512817" y="82.718062" style="fill: #505050; fill-opacity: 0.3; stroke: #505050; stroke-opacity: 0.3"/>
     <use xlink:href="#m9464eb7f16" x="104.338346" y="157.769499" style="fill: #505050; fill-opacity: 0.3; stroke: #505050; stroke-opacity: 0.3"/>
     <use xlink:href="#m9464eb7f16" x="97.509285" y="151.523583" style="fill: #505050; fill-opacity: 0.3; stroke: #505050; stroke-opacity: 0.3"/>
     <use xlink:href="#m9464eb7f16" x="388.468035" y="207.061864" style="fill: #505050; fill-opacity: 0.3; stroke: #505050; stroke-opacity: 0.3"/>
     <use xlink:href="#m9464eb7f16" x="78.247488" y="375.402522" style="fill: #505050; fill-opacity: 0.3; stroke: #505050; stroke-opacity: 0.3"/>
     <use xlink:href="#m9464eb7f16" x="337.586673" y="85.877343" style="fill: #505050; fill-opacity: 0.3; stroke: #505050; stroke-opacity: 0.3"/>
     <use xlink:href="#m9464eb7f16" x="185.606223" y="426.926305" style="fill: #505050; fill-opacity: 0.3; stroke: #505050; stroke-opacity: 0.3"/>
     <use xlink:href="#m9464eb7f16" x="354.363516" y="394.638258" style="fill: #505050; fill-opacity: 0.3; stroke: #505050; stroke-opacity: 0.3"/>
     <use xlink:href="#m9464eb7f16" x="72.284951" y="282.985481" style="fill: #505050; fill-opacity: 0.3; stroke: #505050; stroke-opacity: 0.3"/>
     <use xlink:href="#m9464eb7f16" x="331.880491" y="408.994317" style="fill: #505050; fill-opacity: 0.3; stroke: #505050; stroke-opacity: 0.3"/>
     <use xlink:href="#m9464eb7f16" x="378.489508" y="379.24309" style="fill: #505050; fill-opacity: 0.3; stroke: #505050; stroke-opacity: 0.3"/>
     <use xlink:href="#m9464eb7f16" x="101.596663" y="109.529078" style="fill: #505050; fill-opacity: 0.3; stroke: #505050; stroke-opacity: 0.3"/>
     <use xlink:href="#m9464eb7f16" x="411.532243" y="296.896356" style="fill: #505050; fill-opacity: 0.3; stroke: #505050; stroke-opacity: 0.3"/>
     <use xlink:href="#m9464eb7f16" x="57.074693" y="335.762885" style="fill: #505050; fill-opacity: 0.3; stroke: #505050; stroke-opacity: 0.3"/>
     <use xlink:href="#m9464eb7f16" x="151.50919" y="121.477078" style="fill: #505050; fill-opacity: 0.3; stroke: #505050; stroke-opacity: 0.3"/>
     <use xlink:href="#m9464eb7f16" x="149.850593" y="94.624815" style="fill: #505050; fill-opacity: 0.3; stroke: #505050; stroke-opacity: 0.3"/>
     <use xlink:href="#m9464eb7f16" x="230.392373" y="432.96745" style="fill: #505050; fill-opacity: 0.3; stroke: #505050; stroke-opacity: 0.3"/>
     <use xlink:href="#m9464eb7f16" x="121.843036" y="110.129092" style="fill: #505050; fill-opacity: 0.3; stroke: #505050; stroke-opacity: 0.3"/>
    </g>
   </g>
   <g id="PathCollection_2">
    <defs>
     <path id="mdacc9d2750" d="M 0 8.660254 
C 2.296726 8.660254 4.499694 7.747755 6.123724 6.123724 
C 7.747755 4.499694 8.660254 2.296726 8.660254 0 
C 8.660254 -2.296726 7.747755 -4.499694 6.123724 -6.123724 
C 4.499694 -7.747755 2.296726 -8.660254 0 -8.660254 
C -2.296726 -8.660254 -4.499694 -7.747755 -6.123724 -6.123724 
C -7.747755 -4.499694 -8.660254 -2.296726 -8.660254 0 
C -8.660254 2.296726 -7.747755 4.499694 -6.123724 6.123724 
C -4.499694 7.747755 -2.296726 8.660254 0 8.660254 
z
" style="stroke: #ff0000"/>
    </defs>
    <g clip-path="url(#p093f9a606b)">
     <use xlink:href="#mdacc9d2750" x="245.142548" y="243.602246" style="fill: #ff0000; stroke: #ff0000"/>
    </g>
   </g>
   <g id="PathCollection_3">
    <defs>
     <path id="mf96eaf2ace" d="M 0 7.071068 
C 1.875269 7.071068 3.673985 6.326016 5 5 
C 6.326016 3.673985 7.071068 1.875269 7.071068 0 
C 7.071068 -1.875269 6.326016 -3.673985 5 -5 
C 3.673985 -6.326016 1.875269 -7.071068 0 -7.071068 
C -1.875269 -7.071068 -3.673985 -6.326016 -5 -5 
C -6.326016 -3.673985 -7.071068 -1.875269 -7.071068 0 
C -7.071068 1.875269 -6.326016 3.673985 -5 5 
C -3.673985 6.326016 -1.875269 7.071068 0 7.071068 
z
" style="stroke: #000000"/>
    </defs>
    <g clip-path="url(#p093f9a606b)">
     <use xlink:href="#mf96eaf2ace" x="396.377934" y="167.618699" style="stroke: #000000"/>
     <use xlink:href="#mf96eaf2ace" x="193.632566" y="98.075665" style="stroke: #000000"/>
     <use xlink:href="#mf96eaf2ace" x="397.152656" y="191.544418" style="stroke: #000000"/>
     <use xlink:href="#mf96eaf2ace" x="349.012177" y="361.478856" style="stroke: #000000"/>
     <use xlink:href="#mf96eaf2ace" x="363.2625" y="109.523548" style="stroke: #000000"/>
     <use xlink:href="#mf96eaf2ace" x="99.27574" y="382.038199" style="stroke: #000000"/>
     <use xlink:href="#mf96eaf2ace" x="157.562225" y="426.291" style="stroke: #000000"/>
     <use xlink:href="#mf96eaf2ace" x="317.095895" y="117.332607" style="stroke: #000000"/>
     <use xlink:href="#mf96eaf2ace" x="309.395548" y="411.199266" style="stroke: #000000"/>
     <use xlink:href="#mf96eaf2ace" x="195.304662" y="69.953004" style="stroke: #000000"/>
     <use xlink:href="#mf96eaf2ace" x="77.444359" y="143.368665" style="stroke: #000000"/>
     <use xlink:href="#mf96eaf2ace" x="397.659842" y="329.570559" style="stroke: #000000"/>
     <use xlink:href="#mf96eaf2ace" x="163.29045" y="72.809371" style="stroke: #000000"/>
     <use xlink:href="#mf96eaf2ace" x="208.080733" y="415.11812" style="stroke: #000000"/>
     <use xlink:href="#mf96eaf2ace" x="89.200705" y="334.288395" style="stroke: #000000"/>
     <use xlink:href="#mf96eaf2ace" x="391.826896" y="301.559806" style="stroke: #000000"/>
     <use xlink:href="#mf96eaf2ace" x="64.467581" y="232.748609" style="stroke: #000000"/>
     <use xlink:href="#mf96eaf2ace" x="398.875543" y="250.58062" style="stroke: #000000"/>
     <use xlink:href="#mf96eaf2ace" x="414.86281" y="261.405391" style="stroke: #000000"/>
     <use xlink:href="#mf96eaf2ace" x="387.682248" y="138.991975" style="stroke: #000000"/>
     <use xlink:href="#mf96eaf2ace" x="222.157432" y="75.30363" style="stroke: #000000"/>
     <use xlink:href="#mf96eaf2ace" x="383.556084" y="233.542164" style="stroke: #000000"/>
     <use xlink:href="#mf96eaf2ace" x="141.58435" y="398.837915" style="stroke: #000000"/>
     <use xlink:href="#mf96eaf2ace" x="309.300381" y="81.65444" style="stroke: #000000"/>
     <use xlink:href="#mf96eaf2ace" x="359.413682" y="141.870631" style="stroke: #000000"/>
     <use xlink:href="#mf96eaf2ace" x="45.93719" y="285.89839" style="stroke: #000000"/>
     <use xlink:href="#mf96eaf2ace" x="69.115053" y="176.117808" style="stroke: #000000"/>
     <use xlink:href="#mf96eaf2ace" x="111.654669" y="412.794675" style="stroke: #000000"/>
     <use xlink:href="#mf96eaf2ace" x="252.995437" y="60.149148" style="stroke: #000000"/>
     <use xlink:href="#mf96eaf2ace" x="260.453124" y="436.693126" style="stroke: #000000"/>
     <use xlink:href="#mf96eaf2ace" x="288.425358" y="426.694602" style="stroke: #000000"/>
     <use xlink:href="#mf96eaf2ace" x="383.40333" y="351.563982" style="stroke: #000000"/>
     <use xlink:href="#mf96eaf2ace" x="46.544564" y="249.333664" style="stroke: #000000"/>
     <use xlink:href="#mf96eaf2ace" x="388.468035" y="207.061864" style="stroke: #000000"/>
     <use xlink:href="#mf96eaf2ace" x="78.247488" y="375.402522" style="stroke: #000000"/>
     <use xlink:href="#mf96eaf2ace" x="337.586673" y="85.877343" style="stroke: #000000"/>
     <use xlink:href="#mf96eaf2ace" x="185.606223" y="426.926305" style="stroke: #000000"/>
     <use xlink:href="#mf96eaf2ace" x="354.363516" y="394.638258" style="stroke: #000000"/>
     <use xlink:href="#mf96eaf2ace" x="331.880491" y="408.994317" style="stroke: #000000"/>
     <use xlink:href="#mf96eaf2ace" x="378.489508" y="379.24309" style="stroke: #000000"/>
     <use xlink:href="#mf96eaf2ace" x="101.596663" y="109.529078" style="stroke: #000000"/>
     <use xlink:href="#mf96eaf2ace" x="411.532243" y="296.896356" style="stroke: #000000"/>
     <use xlink:href="#mf96eaf2ace" x="57.074693" y="335.762885" style="stroke: #000000"/>
     <use xlink:href="#mf96eaf2ace" x="151.50919" y="121.477078" style="stroke: #000000"/>
     <use xlink:href="#mf96eaf2ace" x="149.850593" y="94.624815" style="stroke: #000000"/>
     <use xlink:href="#mf96eaf2ace" x="230.392373" y="432.96745" style="stroke: #000000"/>
     <use xlink:href="#mf96eaf2ace" x="121.843036" y="110.129092" style="stroke: #000000"/>
    </g>
   </g>
   <g id="patch_49">
    <path d="M 7.2 465.181875 
L 7.2 21.661875 
" style="fill: none; stroke: #262626; stroke-width: 0.8; stroke-linejoin: miter; stroke-linecap: square"/>
   </g>
   <g id="patch_50">
    <path d="M 453.6 465.181875 
L 453.6 21.661875 
" style="fill: none; stroke: #262626; stroke-width: 0.8; stroke-linejoin: miter; stroke-linecap: square"/>
   </g>
   <g id="patch_51">
    <path d="M 7.2 465.181875 
L 453.6 465.181875 
" style="fill: none; stroke: #262626; stroke-width: 0.8; stroke-linejoin: miter; stroke-linecap: square"/>
   </g>
   <g id="patch_52">
    <path d="M 7.2 21.661875 
L 453.6 21.661875 
" style="fill: none; stroke: #262626; stroke-width: 0.8; stroke-linejoin: miter; stroke-linecap: square"/>
   </g>
   <g id="text_1">
    <!-- The aggregate follower network of users who participated in a cascade -->
    <g style="fill: #262626" transform="translate(45.542812 15.661875) scale(0.12 -0.12)">
     <defs>
      <path id="Cmr10-54" d="M 1081 0 
L 1081 225 
Q 1403 225 1706 261 
Q 2009 297 2009 428 
L 2009 3944 
Q 2009 4081 1932 4114 
Q 1856 4147 1684 4147 
L 1416 4147 
Q 888 4147 666 3916 
Q 550 3800 500 3545 
Q 450 3291 416 2906 
L 231 2906 
L 353 4372 
L 4263 4372 
L 4384 2906 
L 4197 2906 
Q 4159 3319 4114 3561 
Q 4069 3803 3950 3916 
Q 3725 4147 3200 4147 
L 2931 4147 
Q 2816 4147 2752 4137 
Q 2688 4128 2647 4083 
Q 2606 4038 2606 3944 
L 2606 428 
Q 2606 297 2909 261 
Q 3213 225 3531 225 
L 3531 0 
L 1081 0 
z
" transform="scale(0.015625)"/>
      <path id="Cmr10-68" d="M 191 0 
L 191 225 
Q 409 225 550 259 
Q 691 294 691 428 
L 691 3788 
Q 691 3959 639 4036 
Q 588 4113 491 4130 
Q 394 4147 191 4147 
L 191 4372 
L 1141 4441 
L 1141 2241 
Q 1275 2506 1515 2667 
Q 1756 2828 2047 2828 
Q 2491 2828 2714 2615 
Q 2938 2403 2938 1966 
L 2938 428 
Q 2938 294 3078 259 
Q 3219 225 3438 225 
L 3438 0 
L 1972 0 
L 1972 225 
Q 2191 225 2331 259 
Q 2472 294 2472 428 
L 2472 1947 
Q 2472 2259 2381 2461 
Q 2291 2663 2009 2663 
Q 1638 2663 1398 2366 
Q 1159 2069 1159 1691 
L 1159 428 
Q 1159 294 1300 259 
Q 1441 225 1656 225 
L 1656 0 
L 191 0 
z
" transform="scale(0.015625)"/>
      <path id="Cmr10-65" d="M 1594 -72 
Q 1203 -72 876 133 
Q 550 338 364 680 
Q 178 1022 178 1403 
Q 178 1778 348 2115 
Q 519 2453 823 2661 
Q 1128 2869 1503 2869 
Q 1797 2869 2014 2770 
Q 2231 2672 2372 2497 
Q 2513 2322 2584 2084 
Q 2656 1847 2656 1563 
Q 2656 1478 2591 1478 
L 738 1478 
L 738 1409 
Q 738 878 952 497 
Q 1166 116 1650 116 
Q 1847 116 2014 203 
Q 2181 291 2304 447 
Q 2428 603 2472 781 
Q 2478 803 2495 820 
Q 2513 838 2534 838 
L 2591 838 
Q 2656 838 2656 756 
Q 2566 394 2266 161 
Q 1966 -72 1594 -72 
z
M 744 1638 
L 2203 1638 
Q 2203 1878 2136 2125 
Q 2069 2372 1912 2536 
Q 1756 2700 1503 2700 
Q 1141 2700 942 2361 
Q 744 2022 744 1638 
z
" transform="scale(0.015625)"/>
      <path id="Cmr10-20" transform="scale(0.015625)"/>
      <path id="Cmr10-61" d="M 256 628 
Q 256 1009 556 1248 
Q 856 1488 1276 1586 
Q 1697 1684 2075 1684 
L 2075 1947 
Q 2075 2131 1994 2304 
Q 1913 2478 1759 2589 
Q 1606 2700 1422 2700 
Q 997 2700 775 2509 
Q 897 2509 976 2417 
Q 1056 2325 1056 2203 
Q 1056 2075 965 1984 
Q 875 1894 750 1894 
Q 622 1894 531 1984 
Q 441 2075 441 2203 
Q 441 2541 747 2705 
Q 1053 2869 1422 2869 
Q 1681 2869 1943 2758 
Q 2206 2647 2373 2440 
Q 2541 2234 2541 1959 
L 2541 519 
Q 2541 394 2594 289 
Q 2647 184 2759 184 
Q 2866 184 2917 290 
Q 2969 397 2969 519 
L 2969 928 
L 3156 928 
L 3156 519 
Q 3156 375 3081 245 
Q 3006 116 2879 39 
Q 2753 -38 2606 -38 
Q 2419 -38 2283 107 
Q 2147 253 2131 453 
Q 2013 213 1781 70 
Q 1550 -72 1288 -72 
Q 1044 -72 808 0 
Q 572 72 414 226 
Q 256 381 256 628 
z
M 775 628 
Q 775 403 940 250 
Q 1106 97 1331 97 
Q 1538 97 1706 200 
Q 1875 303 1975 481 
Q 2075 659 2075 856 
L 2075 1522 
Q 1784 1522 1479 1426 
Q 1175 1331 975 1128 
Q 775 925 775 628 
z
" transform="scale(0.015625)"/>
      <path id="Cmr10-67" d="M 178 -500 
Q 178 -272 343 -101 
Q 509 69 738 141 
Q 609 238 542 384 
Q 475 531 475 697 
Q 475 997 666 1228 
Q 372 1516 372 1888 
Q 372 2088 458 2263 
Q 544 2438 697 2566 
Q 850 2694 1037 2761 
Q 1225 2828 1422 2828 
Q 1803 2828 2106 2606 
Q 2238 2747 2417 2823 
Q 2597 2900 2791 2900 
Q 2928 2900 3015 2801 
Q 3103 2703 3103 2566 
Q 3103 2488 3043 2428 
Q 2984 2369 2906 2369 
Q 2825 2369 2765 2428 
Q 2706 2488 2706 2566 
Q 2706 2684 2784 2731 
Q 2453 2731 2216 2503 
Q 2331 2388 2401 2220 
Q 2472 2053 2472 1888 
Q 2472 1616 2322 1398 
Q 2172 1181 1926 1061 
Q 1681 941 1422 941 
Q 1072 941 781 1131 
Q 691 1006 691 850 
Q 691 681 802 554 
Q 913 428 1081 428 
L 1606 428 
Q 1988 428 2294 359 
Q 2600 291 2808 84 
Q 3016 -122 3016 -500 
Q 3016 -781 2778 -967 
Q 2541 -1153 2211 -1236 
Q 1881 -1319 1600 -1319 
Q 1316 -1319 984 -1236 
Q 653 -1153 415 -967 
Q 178 -781 178 -500 
z
M 538 -500 
Q 538 -716 713 -861 
Q 888 -1006 1134 -1076 
Q 1381 -1147 1600 -1147 
Q 1816 -1147 2062 -1076 
Q 2309 -1006 2482 -861 
Q 2656 -716 2656 -500 
Q 2656 -166 2350 -67 
Q 2044 31 1606 31 
L 1081 31 
Q 934 31 811 -39 
Q 688 -109 613 -236 
Q 538 -363 538 -500 
z
M 1422 1113 
Q 1966 1113 1966 1888 
Q 1966 2222 1850 2439 
Q 1734 2656 1422 2656 
Q 1109 2656 993 2439 
Q 878 2222 878 1888 
Q 878 1675 922 1503 
Q 966 1331 1084 1222 
Q 1203 1113 1422 1113 
z
" transform="scale(0.015625)"/>
      <path id="Cmr10-72" d="M 166 0 
L 166 225 
Q 384 225 525 259 
Q 666 294 666 428 
L 666 2175 
Q 666 2347 614 2423 
Q 563 2500 466 2517 
Q 369 2534 166 2534 
L 166 2759 
L 1081 2828 
L 1081 2203 
Q 1184 2481 1375 2654 
Q 1566 2828 1838 2828 
Q 2028 2828 2178 2715 
Q 2328 2603 2328 2419 
Q 2328 2303 2245 2217 
Q 2163 2131 2041 2131 
Q 1922 2131 1837 2215 
Q 1753 2300 1753 2419 
Q 1753 2591 1875 2663 
L 1838 2663 
Q 1578 2663 1414 2475 
Q 1250 2288 1181 2009 
Q 1113 1731 1113 1478 
L 1113 428 
Q 1113 225 1734 225 
L 1734 0 
L 166 0 
z
" transform="scale(0.015625)"/>
      <path id="Cmr10-74" d="M 653 769 
L 653 2534 
L 122 2534 
L 122 2700 
Q 541 2700 737 3090 
Q 934 3481 934 3938 
L 1119 3938 
L 1119 2759 
L 2022 2759 
L 2022 2534 
L 1119 2534 
L 1119 781 
Q 1119 516 1208 316 
Q 1297 116 1528 116 
Q 1747 116 1844 327 
Q 1941 538 1941 781 
L 1941 1159 
L 2125 1159 
L 2125 769 
Q 2125 569 2051 373 
Q 1978 178 1834 53 
Q 1691 -72 1484 -72 
Q 1100 -72 876 158 
Q 653 388 653 769 
z
" transform="scale(0.015625)"/>
      <path id="Cmr10-66" d="M 206 0 
L 206 225 
Q 422 225 562 259 
Q 703 294 703 428 
L 703 2534 
L 213 2534 
L 213 2759 
L 703 2759 
L 703 3525 
Q 703 3731 789 3911 
Q 875 4091 1020 4225 
Q 1166 4359 1355 4436 
Q 1544 4513 1747 4513 
Q 1963 4513 2136 4384 
Q 2309 4256 2309 4044 
Q 2309 3922 2226 3839 
Q 2144 3756 2022 3756 
Q 1900 3756 1814 3839 
Q 1728 3922 1728 4044 
Q 1728 4244 1900 4313 
Q 1797 4347 1716 4347 
Q 1528 4347 1395 4214 
Q 1263 4081 1197 3890 
Q 1131 3700 1131 3513 
L 1131 2759 
L 1869 2759 
L 1869 2534 
L 1153 2534 
L 1153 428 
Q 1153 297 1340 261 
Q 1528 225 1772 225 
L 1772 0 
L 206 0 
z
" transform="scale(0.015625)"/>
      <path id="Cmr10-6f" d="M 1600 -72 
Q 1216 -72 887 123 
Q 559 319 368 647 
Q 178 975 178 1363 
Q 178 1656 283 1928 
Q 388 2200 583 2414 
Q 778 2628 1037 2748 
Q 1297 2869 1600 2869 
Q 1994 2869 2317 2661 
Q 2641 2453 2828 2104 
Q 3016 1756 3016 1363 
Q 3016 978 2825 648 
Q 2634 319 2307 123 
Q 1981 -72 1600 -72 
z
M 1600 116 
Q 2113 116 2284 487 
Q 2456 859 2456 1434 
Q 2456 1756 2422 1967 
Q 2388 2178 2272 2350 
Q 2200 2456 2089 2536 
Q 1978 2616 1854 2658 
Q 1731 2700 1600 2700 
Q 1400 2700 1220 2609 
Q 1041 2519 922 2350 
Q 803 2169 770 1951 
Q 738 1734 738 1434 
Q 738 1075 800 789 
Q 863 503 1052 309 
Q 1241 116 1600 116 
z
" transform="scale(0.015625)"/>
      <path id="Cmr10-6c" d="M 197 0 
L 197 225 
Q 416 225 556 259 
Q 697 294 697 428 
L 697 3788 
Q 697 3959 645 4036 
Q 594 4113 497 4130 
Q 400 4147 197 4147 
L 197 4372 
L 1147 4441 
L 1147 428 
Q 1147 294 1287 259 
Q 1428 225 1644 225 
L 1644 0 
L 197 0 
z
" transform="scale(0.015625)"/>
      <path id="Cmr10-77" d="M 1416 0 
L 588 2328 
Q 531 2469 425 2501 
Q 319 2534 116 2534 
L 116 2759 
L 1434 2759 
L 1434 2534 
Q 1056 2534 1056 2375 
Q 1059 2366 1061 2356 
Q 1063 2347 1063 2328 
L 1678 603 
L 2209 2106 
L 2125 2328 
Q 2075 2469 1965 2501 
Q 1856 2534 1656 2534 
L 1656 2759 
L 2919 2759 
L 2919 2534 
Q 2541 2534 2541 2375 
Q 2541 2350 2547 2328 
L 3188 525 
L 3769 2156 
Q 3781 2206 3781 2247 
Q 3781 2381 3667 2457 
Q 3553 2534 3413 2534 
L 3413 2759 
L 4500 2759 
L 4500 2534 
Q 4306 2534 4167 2432 
Q 4028 2331 3963 2156 
L 3200 0 
Q 3178 -72 3103 -72 
L 3053 -72 
Q 2978 -72 2956 0 
L 2309 1825 
L 1663 0 
Q 1631 -72 1563 -72 
L 1516 -72 
Q 1438 -72 1416 0 
z
" transform="scale(0.015625)"/>
      <path id="Cmr10-6e" d="M 191 0 
L 191 225 
Q 409 225 550 259 
Q 691 294 691 428 
L 691 2175 
Q 691 2347 639 2423 
Q 588 2500 491 2517 
Q 394 2534 191 2534 
L 191 2759 
L 1119 2828 
L 1119 2203 
Q 1247 2478 1498 2653 
Q 1750 2828 2047 2828 
Q 2491 2828 2714 2615 
Q 2938 2403 2938 1966 
L 2938 428 
Q 2938 294 3078 259 
Q 3219 225 3438 225 
L 3438 0 
L 1972 0 
L 1972 225 
Q 2191 225 2331 259 
Q 2472 294 2472 428 
L 2472 1947 
Q 2472 2259 2381 2461 
Q 2291 2663 2009 2663 
Q 1638 2663 1398 2366 
Q 1159 2069 1159 1691 
L 1159 428 
Q 1159 294 1300 259 
Q 1441 225 1656 225 
L 1656 0 
L 191 0 
z
" transform="scale(0.015625)"/>
      <path id="Cmr10-6b" d="M 166 0 
L 166 225 
Q 384 225 525 259 
Q 666 294 666 428 
L 666 3788 
Q 666 3959 614 4036 
Q 563 4113 466 4130 
Q 369 4147 166 4147 
L 166 4372 
L 1113 4441 
L 1113 1403 
L 1972 2156 
Q 2100 2278 2100 2381 
Q 2100 2456 2047 2495 
Q 1994 2534 1919 2534 
L 1919 2759 
L 3122 2759 
L 3122 2534 
Q 2688 2534 2253 2156 
L 1797 1759 
L 2613 603 
Q 2781 363 2895 294 
Q 3009 225 3272 225 
L 3272 0 
L 1997 0 
L 1997 225 
Q 2216 225 2216 359 
Q 2216 456 2100 603 
L 1484 1478 
L 1094 1141 
L 1094 428 
Q 1094 294 1236 259 
Q 1378 225 1594 225 
L 1594 0 
L 166 0 
z
" transform="scale(0.015625)"/>
      <path id="Cmr10-75" d="M 691 763 
L 691 2175 
Q 691 2347 639 2423 
Q 588 2500 491 2517 
Q 394 2534 191 2534 
L 191 2759 
L 1159 2828 
L 1159 763 
Q 1159 513 1195 373 
Q 1231 234 1348 165 
Q 1466 97 1722 97 
Q 2066 97 2269 384 
Q 2472 672 2472 1038 
L 2472 2175 
Q 2472 2347 2419 2423 
Q 2366 2500 2270 2517 
Q 2175 2534 1972 2534 
L 1972 2759 
L 2938 2828 
L 2938 581 
Q 2938 413 2989 336 
Q 3041 259 3137 242 
Q 3234 225 3438 225 
L 3438 0 
L 2491 -72 
L 2491 469 
Q 2372 228 2159 78 
Q 1947 -72 1691 -72 
Q 1231 -72 961 123 
Q 691 319 691 763 
z
" transform="scale(0.015625)"/>
      <path id="Cmr10-73" d="M 213 -19 
L 213 1025 
Q 213 1075 269 1075 
L 347 1075 
Q 384 1075 397 1025 
Q 575 97 1259 97 
Q 1563 97 1767 234 
Q 1972 372 1972 659 
Q 1972 866 1812 1011 
Q 1653 1156 1434 1209 
L 1006 1294 
Q 791 1341 614 1437 
Q 438 1534 325 1695 
Q 213 1856 213 2069 
Q 213 2350 361 2529 
Q 509 2709 746 2789 
Q 984 2869 1259 2869 
Q 1588 2869 1831 2694 
L 2016 2853 
Q 2016 2869 2047 2869 
L 2094 2869 
Q 2113 2869 2128 2851 
Q 2144 2834 2144 2816 
L 2144 1978 
Q 2144 1919 2094 1919 
L 2016 1919 
Q 1959 1919 1959 1978 
Q 1959 2313 1773 2516 
Q 1588 2719 1253 2719 
Q 966 2719 755 2612 
Q 544 2506 544 2247 
Q 544 2069 695 1955 
Q 847 1841 1050 1791 
L 1484 1709 
Q 1703 1659 1892 1540 
Q 2081 1422 2192 1240 
Q 2303 1059 2303 831 
Q 2303 600 2223 429 
Q 2144 259 2001 146 
Q 1859 34 1665 -19 
Q 1472 -72 1259 -72 
Q 859 -72 575 197 
L 341 -56 
Q 341 -72 306 -72 
L 269 -72 
Q 213 -72 213 -19 
z
" transform="scale(0.015625)"/>
      <path id="Cmr10-70" d="M 166 -1241 
L 166 -1019 
Q 384 -1019 525 -981 
Q 666 -944 666 -813 
L 666 2272 
Q 666 2447 541 2490 
Q 416 2534 166 2534 
L 166 2759 
L 1113 2828 
L 1113 2431 
Q 1288 2625 1520 2726 
Q 1753 2828 2016 2828 
Q 2394 2828 2697 2623 
Q 3000 2419 3170 2086 
Q 3341 1753 3341 1381 
Q 3341 994 3152 659 
Q 2963 325 2636 126 
Q 2309 -72 1919 -72 
Q 1453 -72 1131 306 
L 1131 -813 
Q 1131 -944 1273 -981 
Q 1416 -1019 1631 -1019 
L 1631 -1241 
L 166 -1241 
z
M 1131 622 
Q 1244 394 1444 245 
Q 1644 97 1881 97 
Q 2103 97 2273 215 
Q 2444 334 2559 534 
Q 2675 734 2729 954 
Q 2784 1175 2784 1381 
Q 2784 1638 2692 1936 
Q 2600 2234 2411 2439 
Q 2222 2644 1953 2644 
Q 1694 2644 1476 2511 
Q 1259 2378 1131 2150 
L 1131 622 
z
" transform="scale(0.015625)"/>
      <path id="Cmr10-69" d="M 197 0 
L 197 225 
Q 416 225 556 259 
Q 697 294 697 428 
L 697 2175 
Q 697 2422 601 2478 
Q 506 2534 225 2534 
L 225 2759 
L 1147 2828 
L 1147 428 
Q 1147 294 1269 259 
Q 1391 225 1594 225 
L 1594 0 
L 197 0 
z
M 469 3928 
Q 469 4069 575 4175 
Q 681 4281 819 4281 
Q 909 4281 993 4234 
Q 1078 4188 1125 4103 
Q 1172 4019 1172 3928 
Q 1172 3791 1065 3684 
Q 959 3578 819 3578 
Q 681 3578 575 3684 
Q 469 3791 469 3928 
z
" transform="scale(0.015625)"/>
      <path id="Cmr10-63" d="M 1594 -72 
Q 1206 -72 890 129 
Q 575 331 394 667 
Q 213 1003 213 1381 
Q 213 1759 392 2106 
Q 572 2453 889 2661 
Q 1206 2869 1594 2869 
Q 1969 2869 2276 2722 
Q 2584 2575 2584 2241 
Q 2584 2116 2495 2023 
Q 2406 1931 2278 1931 
Q 2150 1931 2061 2023 
Q 1972 2116 1972 2241 
Q 1972 2353 2044 2436 
Q 2116 2519 2222 2541 
Q 2000 2681 1600 2681 
Q 1294 2681 1106 2478 
Q 919 2275 844 1975 
Q 769 1675 769 1381 
Q 769 1072 861 783 
Q 953 494 1158 305 
Q 1363 116 1672 116 
Q 1975 116 2187 302 
Q 2400 488 2478 788 
Q 2478 825 2528 825 
L 2606 825 
Q 2625 825 2640 808 
Q 2656 791 2656 769 
L 2656 750 
Q 2559 372 2271 150 
Q 1984 -72 1594 -72 
z
" transform="scale(0.015625)"/>
      <path id="Cmr10-64" d="M 1563 -72 
Q 1184 -72 871 133 
Q 559 338 386 672 
Q 213 1006 213 1381 
Q 213 1769 402 2101 
Q 591 2434 916 2631 
Q 1241 2828 1631 2828 
Q 1866 2828 2075 2729 
Q 2284 2631 2438 2456 
L 2438 3788 
Q 2438 3959 2386 4036 
Q 2334 4113 2239 4130 
Q 2144 4147 1941 4147 
L 1941 4372 
L 2888 4441 
L 2888 581 
Q 2888 413 2939 336 
Q 2991 259 3086 242 
Q 3181 225 3384 225 
L 3384 0 
L 2419 -72 
L 2419 331 
Q 2253 141 2025 34 
Q 1797 -72 1563 -72 
z
M 909 556 
Q 1019 347 1201 222 
Q 1384 97 1600 97 
Q 1866 97 2087 250 
Q 2309 403 2419 647 
L 2419 2181 
Q 2344 2322 2230 2433 
Q 2116 2544 1973 2603 
Q 1831 2663 1672 2663 
Q 1338 2663 1134 2473 
Q 931 2284 850 1990 
Q 769 1697 769 1375 
Q 769 1119 795 928 
Q 822 738 909 556 
z
" transform="scale(0.015625)"/>
     </defs>
     <use xlink:href="#Cmr10-54"/>
     <use xlink:href="#Cmr10-68" x="72.216797"/>
     <use xlink:href="#Cmr10-65" x="127.734375"/>
     <use xlink:href="#Cmr10-20" x="172.119141"/>
     <use xlink:href="#Cmr10-61" x="205.419922"/>
     <use xlink:href="#Cmr10-67" x="255.419922"/>
     <use xlink:href="#Cmr10-67" x="305.419922"/>
     <use xlink:href="#Cmr10-72" x="355.419922"/>
     <use xlink:href="#Cmr10-65" x="394.53125"/>
     <use xlink:href="#Cmr10-67" x="438.916016"/>
     <use xlink:href="#Cmr10-61" x="488.916016"/>
     <use xlink:href="#Cmr10-74" x="538.916016"/>
     <use xlink:href="#Cmr10-65" x="577.734375"/>
     <use xlink:href="#Cmr10-20" x="622.119141"/>
     <use xlink:href="#Cmr10-66" x="655.419922"/>
     <use xlink:href="#Cmr10-6f" x="685.9375"/>
     <use xlink:href="#Cmr10-6c" x="735.9375"/>
     <use xlink:href="#Cmr10-6c" x="763.623047"/>
     <use xlink:href="#Cmr10-6f" x="791.308594"/>
     <use xlink:href="#Cmr10-77" x="841.308594"/>
     <use xlink:href="#Cmr10-65" x="913.525391"/>
     <use xlink:href="#Cmr10-72" x="957.910156"/>
     <use xlink:href="#Cmr10-20" x="997.021484"/>
     <use xlink:href="#Cmr10-6e" x="1030.322266"/>
     <use xlink:href="#Cmr10-65" x="1085.839844"/>
     <use xlink:href="#Cmr10-74" x="1130.224609"/>
     <use xlink:href="#Cmr10-77" x="1169.042969"/>
     <use xlink:href="#Cmr10-6f" x="1241.259766"/>
     <use xlink:href="#Cmr10-72" x="1291.259766"/>
     <use xlink:href="#Cmr10-6b" x="1330.371094"/>
     <use xlink:href="#Cmr10-20" x="1383.056641"/>
     <use xlink:href="#Cmr10-6f" x="1416.357422"/>
     <use xlink:href="#Cmr10-66" x="1466.357422"/>
     <use xlink:href="#Cmr10-20" x="1496.875"/>
     <use xlink:href="#Cmr10-75" x="1530.175781"/>
     <use xlink:href="#Cmr10-73" x="1585.693359"/>
     <use xlink:href="#Cmr10-65" x="1625.097656"/>
     <use xlink:href="#Cmr10-72" x="1669.482422"/>
     <use xlink:href="#Cmr10-73" x="1708.59375"/>
     <use xlink:href="#Cmr10-20" x="1747.998047"/>
     <use xlink:href="#Cmr10-77" x="1781.298828"/>
     <use xlink:href="#Cmr10-68" x="1853.515625"/>
     <use xlink:href="#Cmr10-6f" x="1909.033203"/>
     <use xlink:href="#Cmr10-20" x="1959.033203"/>
     <use xlink:href="#Cmr10-70" x="1992.333984"/>
     <use xlink:href="#Cmr10-61" x="2047.851562"/>
     <use xlink:href="#Cmr10-72" x="2097.851562"/>
     <use xlink:href="#Cmr10-74" x="2136.962891"/>
     <use xlink:href="#Cmr10-69" x="2175.78125"/>
     <use xlink:href="#Cmr10-63" x="2203.466797"/>
     <use xlink:href="#Cmr10-69" x="2247.851562"/>
     <use xlink:href="#Cmr10-70" x="2275.537109"/>
     <use xlink:href="#Cmr10-61" x="2331.054688"/>
     <use xlink:href="#Cmr10-74" x="2381.054688"/>
     <use xlink:href="#Cmr10-65" x="2419.873047"/>
     <use xlink:href="#Cmr10-64" x="2464.257812"/>
     <use xlink:href="#Cmr10-20" x="2519.775391"/>
     <use xlink:href="#Cmr10-69" x="2553.076172"/>
     <use xlink:href="#Cmr10-6e" x="2580.761719"/>
     <use xlink:href="#Cmr10-20" x="2636.279297"/>
     <use xlink:href="#Cmr10-61" x="2669.580078"/>
     <use xlink:href="#Cmr10-20" x="2719.580078"/>
     <use xlink:href="#Cmr10-63" x="2752.880859"/>
     <use xlink:href="#Cmr10-61" x="2797.265625"/>
     <use xlink:href="#Cmr10-73" x="2847.265625"/>
     <use xlink:href="#Cmr10-63" x="2886.669922"/>
     <use xlink:href="#Cmr10-61" x="2931.054688"/>
     <use xlink:href="#Cmr10-64" x="2981.054688"/>
     <use xlink:href="#Cmr10-65" x="3036.572266"/>
    </g>
   </g>
   <g id="legend_1">
    <g id="patch_53">
     <path d="M 15.6 100.850625 
L 162.135 100.850625 
Q 164.535 100.850625 164.535 98.450625 
L 164.535 30.061875 
Q 164.535 27.661875 162.135 27.661875 
L 15.6 27.661875 
Q 13.2 27.661875 13.2 30.061875 
L 13.2 98.450625 
Q 13.2 100.850625 15.6 100.850625 
z
" style="fill: #ffffff; opacity: 0.8; stroke: #cccccc; stroke-linejoin: miter"/>
    </g>
    <g id="line2d_1">
     <path d="M 18 36.661875 
L 30 36.661875 
L 42 36.661875 
" style="fill: none; stroke: #ffffff; stroke-width: 1.5; stroke-linecap: round"/>
     <defs>
      <path id="mfcf4d42c04" d="M 0 5 
C 1.326016 5 2.597899 4.473168 3.535534 3.535534 
C 4.473168 2.597899 5 1.326016 5 0 
C 5 -1.326016 4.473168 -2.597899 3.535534 -3.535534 
C 2.597899 -4.473168 1.326016 -5 0 -5 
C -1.326016 -5 -2.597899 -4.473168 -3.535534 -3.535534 
C -4.473168 -2.597899 -5 -1.326016 -5 0 
C -5 1.326016 -4.473168 2.597899 -3.535534 3.535534 
C -2.597899 4.473168 -1.326016 5 0 5 
z
" style="stroke: #ffffff"/>
     </defs>
     <g>
      <use xlink:href="#mfcf4d42c04" x="30" y="36.661875" style="fill: #ff0000; stroke: #ffffff"/>
     </g>
    </g>
    <g id="text_2">
     <!-- Source node -->
     <g style="fill: #262626" transform="translate(51.6 40.861875) scale(0.12 -0.12)">
      <defs>
       <path id="Cmr10-53" d="M 359 -91 
L 359 1403 
Q 359 1453 416 1453 
L 494 1453 
Q 513 1453 528 1437 
Q 544 1422 544 1403 
Q 544 775 933 429 
Q 1322 84 1953 84 
Q 2175 84 2362 212 
Q 2550 341 2654 548 
Q 2759 756 2759 978 
Q 2759 1172 2681 1355 
Q 2603 1538 2456 1672 
Q 2309 1806 2125 1850 
L 1294 2053 
Q 881 2163 620 2502 
Q 359 2841 359 3263 
Q 359 3594 528 3884 
Q 697 4175 983 4344 
Q 1269 4513 1600 4513 
Q 2241 4513 2619 4078 
L 2881 4494 
Q 2900 4513 2925 4513 
L 2969 4513 
Q 2988 4513 3005 4498 
Q 3022 4484 3022 4459 
L 3022 2975 
Q 3022 2919 2969 2919 
L 2894 2919 
Q 2834 2919 2834 2975 
Q 2834 3138 2779 3331 
Q 2725 3525 2628 3703 
Q 2531 3881 2419 3994 
Q 2109 4306 1600 4306 
Q 1381 4306 1197 4195 
Q 1013 4084 903 3893 
Q 794 3703 794 3494 
Q 794 3219 964 2995 
Q 1134 2772 1409 2700 
L 2241 2497 
Q 2447 2447 2630 2317 
Q 2813 2188 2934 2016 
Q 3056 1844 3125 1633 
Q 3194 1422 3194 1197 
Q 3194 850 3034 542 
Q 2875 234 2586 46 
Q 2297 -141 1953 -141 
Q 1741 -141 1519 -94 
Q 1297 -47 1109 50 
Q 922 147 769 300 
L 500 -122 
Q 481 -141 453 -141 
L 416 -141 
Q 359 -141 359 -91 
z
" transform="scale(0.015625)"/>
      </defs>
      <use xlink:href="#Cmr10-53"/>
      <use xlink:href="#Cmr10-6f" x="55.517578"/>
      <use xlink:href="#Cmr10-75" x="105.517578"/>
      <use xlink:href="#Cmr10-72" x="161.035156"/>
      <use xlink:href="#Cmr10-63" x="200.146484"/>
      <use xlink:href="#Cmr10-65" x="244.53125"/>
      <use xlink:href="#Cmr10-20" x="288.916016"/>
      <use xlink:href="#Cmr10-6e" x="322.216797"/>
      <use xlink:href="#Cmr10-6f" x="377.734375"/>
      <use xlink:href="#Cmr10-64" x="427.734375"/>
      <use xlink:href="#Cmr10-65" x="483.251953"/>
     </g>
    </g>
    <g id="line2d_2">
     <path d="M 18 53.98875 
L 30 53.98875 
L 42 53.98875 
" style="fill: none; stroke: #ffffff; stroke-opacity: 0.4; stroke-width: 1.5; stroke-linecap: round"/>
     <defs>
      <path id="m58c0c061fc" d="M 0 5 
C 1.326016 5 2.597899 4.473168 3.535534 3.535534 
C 4.473168 2.597899 5 1.326016 5 0 
C 5 -1.326016 4.473168 -2.597899 3.535534 -3.535534 
C 2.597899 -4.473168 1.326016 -5 0 -5 
C -1.326016 -5 -2.597899 -4.473168 -3.535534 -3.535534 
C -4.473168 -2.597899 -5 -1.326016 -5 0 
C -5 1.326016 -4.473168 2.597899 -3.535534 3.535534 
C -2.597899 4.473168 -1.326016 5 0 5 
z
" style="stroke: #ffffff; stroke-opacity: 0.4"/>
     </defs>
     <g>
      <use xlink:href="#m58c0c061fc" x="30" y="53.98875" style="fill: #505050; fill-opacity: 0.4; stroke: #ffffff; stroke-opacity: 0.4"/>
     </g>
    </g>
    <g id="text_3">
     <!-- Retweeter (center) -->
     <g style="fill: #262626" transform="translate(51.6 58.18875) scale(0.12 -0.12)">
      <defs>
       <path id="Cmr10-52" d="M 213 0 
L 213 225 
Q 872 225 872 428 
L 872 3944 
Q 872 4147 213 4147 
L 213 4372 
L 2222 4372 
Q 2581 4372 2976 4242 
Q 3372 4113 3637 3847 
Q 3903 3581 3903 3213 
Q 3903 2944 3742 2733 
Q 3581 2522 3329 2380 
Q 3078 2238 2816 2175 
Q 3103 2075 3318 1856 
Q 3534 1638 3578 1356 
L 3669 788 
Q 3731 403 3800 214 
Q 3869 25 4103 25 
Q 4303 25 4401 211 
Q 4500 397 4500 616 
Q 4500 638 4520 655 
Q 4541 672 4563 672 
L 4622 672 
Q 4684 672 4684 588 
Q 4684 413 4615 245 
Q 4547 78 4417 -31 
Q 4288 -141 4109 -141 
Q 3647 -141 3314 89 
Q 2981 319 2981 763 
L 2981 1331 
Q 2981 1650 2759 1878 
Q 2538 2106 2216 2106 
L 1447 2106 
L 1447 428 
Q 1447 225 2106 225 
L 2106 0 
L 213 0 
z
M 1447 2272 
L 2131 2272 
Q 2663 2272 2941 2486 
Q 3219 2700 3219 3213 
Q 3219 3722 2944 3934 
Q 2669 4147 2131 4147 
L 1772 4147 
Q 1656 4147 1592 4137 
Q 1528 4128 1487 4083 
Q 1447 4038 1447 3944 
L 1447 2272 
z
" transform="scale(0.015625)"/>
       <path id="Cmr10-28" d="M 1984 -1588 
Q 1628 -1306 1370 -942 
Q 1113 -578 948 -165 
Q 784 247 703 697 
Q 622 1147 622 1600 
Q 622 2059 703 2509 
Q 784 2959 951 3375 
Q 1119 3791 1378 4153 
Q 1638 4516 1984 4788 
Q 1984 4800 2016 4800 
L 2075 4800 
Q 2094 4800 2109 4783 
Q 2125 4766 2125 4744 
Q 2125 4716 2113 4703 
Q 1800 4397 1592 4047 
Q 1384 3697 1257 3301 
Q 1131 2906 1075 2482 
Q 1019 2059 1019 1600 
Q 1019 -434 2106 -1491 
Q 2125 -1509 2125 -1544 
Q 2125 -1559 2108 -1579 
Q 2091 -1600 2075 -1600 
L 2016 -1600 
Q 1984 -1600 1984 -1588 
z
" transform="scale(0.015625)"/>
       <path id="Cmr10-29" d="M 416 -1600 
Q 359 -1600 359 -1544 
Q 359 -1516 372 -1503 
Q 1466 -434 1466 1600 
Q 1466 3634 384 4691 
Q 359 4706 359 4744 
Q 359 4766 376 4783 
Q 394 4800 416 4800 
L 475 4800 
Q 494 4800 506 4788 
Q 966 4425 1272 3906 
Q 1578 3388 1720 2800 
Q 1863 2213 1863 1600 
Q 1863 1147 1786 708 
Q 1709 269 1542 -157 
Q 1375 -584 1119 -945 
Q 863 -1306 506 -1588 
Q 494 -1600 475 -1600 
L 416 -1600 
z
" transform="scale(0.015625)"/>
      </defs>
      <use xlink:href="#Cmr10-52"/>
      <use xlink:href="#Cmr10-65" x="73.583984"/>
      <use xlink:href="#Cmr10-74" x="117.96875"/>
      <use xlink:href="#Cmr10-77" x="156.787109"/>
      <use xlink:href="#Cmr10-65" x="229.003906"/>
      <use xlink:href="#Cmr10-65" x="273.388672"/>
      <use xlink:href="#Cmr10-74" x="317.773438"/>
      <use xlink:href="#Cmr10-65" x="356.591797"/>
      <use xlink:href="#Cmr10-72" x="400.976562"/>
      <use xlink:href="#Cmr10-20" x="440.087891"/>
      <use xlink:href="#Cmr10-28" x="473.388672"/>
      <use xlink:href="#Cmr10-63" x="512.207031"/>
      <use xlink:href="#Cmr10-65" x="556.591797"/>
      <use xlink:href="#Cmr10-6e" x="600.976562"/>
      <use xlink:href="#Cmr10-74" x="656.494141"/>
      <use xlink:href="#Cmr10-65" x="695.3125"/>
      <use xlink:href="#Cmr10-72" x="739.697266"/>
      <use xlink:href="#Cmr10-29" x="778.808594"/>
     </g>
    </g>
    <g id="line2d_3">
     <path d="M 18 71.98875 
L 30 71.98875 
L 42 71.98875 
" style="fill: none; stroke: #ffffff; stroke-width: 1.5; stroke-linecap: round"/>
     <defs>
      <path id="mf6b9cdb1f6" d="M 0 5 
C 1.326016 5 2.597899 4.473168 3.535534 3.535534 
C 4.473168 2.597899 5 1.326016 5 0 
C 5 -1.326016 4.473168 -2.597899 3.535534 -3.535534 
C 2.597899 -4.473168 1.326016 -5 0 -5 
C -1.326016 -5 -2.597899 -4.473168 -3.535534 -3.535534 
C -4.473168 -2.597899 -5 -1.326016 -5 0 
C -5 1.326016 -4.473168 2.597899 -3.535534 3.535534 
C -2.597899 4.473168 -1.326016 5 0 5 
z
" style="stroke: #ffffff"/>
     </defs>
     <g>
      <use xlink:href="#mf6b9cdb1f6" x="30" y="71.98875" style="stroke: #ffffff"/>
     </g>
    </g>
    <g id="text_4">
     <!-- Follower (periphery) -->
     <g style="fill: #262626" transform="translate(51.6 76.18875) scale(0.12 -0.12)">
      <defs>
       <path id="Cmr10-46" d="M 197 0 
L 197 225 
Q 856 225 856 428 
L 856 3944 
Q 856 4147 197 4147 
L 197 4372 
L 3725 4372 
L 3903 2906 
L 3719 2906 
Q 3675 3309 3601 3542 
Q 3528 3775 3387 3908 
Q 3247 4041 3011 4094 
Q 2775 4147 2363 4147 
L 1778 4147 
Q 1663 4147 1598 4137 
Q 1534 4128 1493 4083 
Q 1453 4038 1453 3944 
L 1453 2297 
L 1906 2297 
Q 2234 2297 2387 2355 
Q 2541 2413 2598 2566 
Q 2656 2719 2656 3047 
L 2841 3047 
L 2841 1325 
L 2656 1325 
Q 2656 1653 2598 1806 
Q 2541 1959 2387 2017 
Q 2234 2075 1906 2075 
L 1453 2075 
L 1453 428 
Q 1453 225 2272 225 
L 2272 0 
L 197 0 
z
" transform="scale(0.015625)"/>
       <path id="Cmr10-79" d="M 441 -1050 
Q 563 -1147 709 -1147 
Q 1113 -1147 1369 -538 
L 1588 0 
L 628 2350 
Q 569 2469 447 2501 
Q 325 2534 122 2534 
L 122 2759 
L 1466 2759 
L 1466 2534 
Q 1113 2534 1113 2381 
Q 1113 2356 1119 2344 
L 1831 594 
L 2472 2169 
Q 2491 2219 2491 2278 
Q 2491 2356 2448 2414 
Q 2406 2472 2339 2503 
Q 2272 2534 2188 2534 
L 2188 2759 
L 3250 2759 
L 3250 2534 
Q 3053 2534 2904 2443 
Q 2756 2353 2675 2175 
L 1569 -538 
Q 1481 -744 1364 -917 
Q 1247 -1091 1078 -1202 
Q 909 -1313 709 -1313 
Q 475 -1313 298 -1158 
Q 122 -1003 122 -775 
Q 122 -656 203 -575 
Q 284 -494 403 -494 
Q 484 -494 548 -530 
Q 613 -566 648 -628 
Q 684 -691 684 -775 
Q 684 -878 615 -959 
Q 547 -1041 441 -1050 
z
" transform="scale(0.015625)"/>
      </defs>
      <use xlink:href="#Cmr10-46"/>
      <use xlink:href="#Cmr10-6f" x="65.185547"/>
      <use xlink:href="#Cmr10-6c" x="115.185547"/>
      <use xlink:href="#Cmr10-6c" x="142.871094"/>
      <use xlink:href="#Cmr10-6f" x="170.556641"/>
      <use xlink:href="#Cmr10-77" x="220.556641"/>
      <use xlink:href="#Cmr10-65" x="292.773438"/>
      <use xlink:href="#Cmr10-72" x="337.158203"/>
      <use xlink:href="#Cmr10-20" x="376.269531"/>
      <use xlink:href="#Cmr10-28" x="409.570312"/>
      <use xlink:href="#Cmr10-70" x="448.388672"/>
      <use xlink:href="#Cmr10-65" x="503.90625"/>
      <use xlink:href="#Cmr10-72" x="548.291016"/>
      <use xlink:href="#Cmr10-69" x="587.402344"/>
      <use xlink:href="#Cmr10-70" x="615.087891"/>
      <use xlink:href="#Cmr10-68" x="670.605469"/>
      <use xlink:href="#Cmr10-65" x="726.123047"/>
      <use xlink:href="#Cmr10-72" x="770.507812"/>
      <use xlink:href="#Cmr10-79" x="809.619141"/>
      <use xlink:href="#Cmr10-29" x="862.304688"/>
     </g>
    </g>
    <g id="line2d_4">
     <path d="M 18 89.38875 
L 30 89.38875 
L 42 89.38875 
" style="fill: none; stroke: #e2e2e2; stroke-width: 1.5; stroke-linecap: round"/>
    </g>
    <g id="text_5">
     <!-- Followed by -->
     <g style="fill: #262626" transform="translate(51.6 93.58875) scale(0.12 -0.12)">
      <defs>
       <path id="Cmr10-62" d="M 666 0 
L 666 3788 
Q 666 3959 614 4036 
Q 563 4113 466 4130 
Q 369 4147 166 4147 
L 166 4372 
L 1113 4441 
L 1113 2438 
Q 1219 2556 1361 2645 
Q 1503 2734 1665 2781 
Q 1828 2828 1997 2828 
Q 2284 2828 2529 2712 
Q 2775 2597 2956 2394 
Q 3138 2191 3239 1927 
Q 3341 1663 3341 1381 
Q 3341 994 3152 659 
Q 2963 325 2636 126 
Q 2309 -72 1919 -72 
Q 1675 -72 1447 53 
Q 1219 178 1069 384 
L 850 0 
L 666 0 
z
M 1131 628 
Q 1238 394 1438 245 
Q 1638 97 1881 97 
Q 2213 97 2417 287 
Q 2622 478 2703 768 
Q 2784 1059 2784 1381 
Q 2784 1922 2644 2203 
Q 2581 2328 2473 2434 
Q 2366 2541 2233 2602 
Q 2100 2663 1953 2663 
Q 1697 2663 1478 2527 
Q 1259 2391 1131 2163 
L 1131 628 
z
" transform="scale(0.015625)"/>
      </defs>
      <use xlink:href="#Cmr10-46"/>
      <use xlink:href="#Cmr10-6f" x="65.185547"/>
      <use xlink:href="#Cmr10-6c" x="115.185547"/>
      <use xlink:href="#Cmr10-6c" x="142.871094"/>
      <use xlink:href="#Cmr10-6f" x="170.556641"/>
      <use xlink:href="#Cmr10-77" x="220.556641"/>
      <use xlink:href="#Cmr10-65" x="292.773438"/>
      <use xlink:href="#Cmr10-64" x="337.158203"/>
      <use xlink:href="#Cmr10-20" x="392.675781"/>
      <use xlink:href="#Cmr10-62" x="425.976562"/>
      <use xlink:href="#Cmr10-79" x="481.494141"/>
     </g>
    </g>
   </g>
  </g>
 </g>
 <defs>
  <clipPath id="p093f9a606b">
   <rect x="7.2" y="21.661875" width="446.4" height="443.52"/>
  </clipPath>
 </defs>
</svg>
