<?xml version="1.0" encoding="utf-8" standalone="no"?>
<!DOCTYPE svg PUBLIC "-//W3C//DTD SVG 1.1//EN"
  "http://www.w3.org/Graphics/SVG/1.1/DTD/svg11.dtd">
<svg xmlns:xlink="http://www.w3.org/1999/xlink" width="412.430625pt" height="340.649375pt" viewBox="0 0 412.430625 340.649375" xmlns="http://www.w3.org/2000/svg" version="1.1">
 <metadata>
  <rdf:RDF xmlns:dc="http://purl.org/dc/elements/1.1/" xmlns:cc="http://creativecommons.org/ns#" xmlns:rdf="http://www.w3.org/1999/02/22-rdf-syntax-ns#">
   <cc:Work>
    <dc:type rdf:resource="http://purl.org/dc/dcmitype/StillImage"/>
    <dc:date>2024-03-22T15:35:36.442525</dc:date>
    <dc:format>image/svg+xml</dc:format>
    <dc:creator>
     <cc:Agent>
      <dc:title>Matplotlib v3.8.2, https://matplotlib.org/</dc:title>
     </cc:Agent>
    </dc:creator>
   </cc:Work>
  </rdf:RDF>
 </metadata>
 <defs>
  <style type="text/css">*{stroke-linejoin: round; stroke-linecap: butt}</style>
 </defs>
 <g id="figure_1">
  <g id="patch_1">
   <path d="M 0 340.649375 
L 412.430625 340.649375 
L 412.430625 0 
L 0 0 
z
" style="fill: #ffffff"/>
  </g>
  <g id="axes_1">
   <g id="patch_2">
    <path d="M 60.31125 285.141875 
L 395.11125 285.141875 
L 395.11125 35.661875 
L 60.31125 35.661875 
z
" style="fill: #ffffff"/>
   </g>
   <g id="matplotlib.axis_1">
    <g id="xtick_1">
     <g id="text_1">
      <!-- 0 -->
      <g style="fill: #262626" transform="translate(72.529432 300.46875) scale(0.12 -0.12)">
       <defs>
        <path id="Cmr10-30" d="M 1600 -141 
Q 816 -141 533 504 
Q 250 1150 250 2041 
Q 250 2597 351 3087 
Q 453 3578 754 3920 
Q 1056 4263 1600 4263 
Q 2022 4263 2290 4056 
Q 2559 3850 2700 3523 
Q 2841 3197 2892 2823 
Q 2944 2450 2944 2041 
Q 2944 1491 2842 1011 
Q 2741 531 2444 195 
Q 2147 -141 1600 -141 
z
M 1600 25 
Q 1956 25 2131 390 
Q 2306 756 2347 1200 
Q 2388 1644 2388 2144 
Q 2388 2625 2347 3031 
Q 2306 3438 2132 3767 
Q 1959 4097 1600 4097 
Q 1238 4097 1063 3765 
Q 888 3434 847 3029 
Q 806 2625 806 2144 
Q 806 1788 823 1472 
Q 841 1156 916 820 
Q 991 484 1158 254 
Q 1325 25 1600 25 
z
" transform="scale(0.015625)"/>
       </defs>
       <use xlink:href="#Cmr10-30"/>
      </g>
     </g>
    </g>
    <g id="xtick_2">
     <g id="text_2">
      <!-- 1 -->
      <g style="fill: #262626" transform="translate(148.620341 300.46875) scale(0.12 -0.12)">
       <defs>
        <path id="Cmr10-31" d="M 594 0 
L 594 225 
Q 1394 225 1394 428 
L 1394 3788 
Q 1063 3628 556 3628 
L 556 3853 
Q 1341 3853 1741 4263 
L 1831 4263 
Q 1853 4263 1873 4245 
Q 1894 4228 1894 4206 
L 1894 428 
Q 1894 225 2694 225 
L 2694 0 
L 594 0 
z
" transform="scale(0.015625)"/>
       </defs>
       <use xlink:href="#Cmr10-31"/>
      </g>
     </g>
    </g>
    <g id="xtick_3">
     <g id="text_3">
      <!-- 2 -->
      <g style="fill: #262626" transform="translate(224.71125 300.46875) scale(0.12 -0.12)">
       <defs>
        <path id="Cmr10-32" d="M 319 0 
L 319 172 
Q 319 188 331 206 
L 1325 1306 
Q 1550 1550 1690 1715 
Q 1831 1881 1968 2097 
Q 2106 2313 2186 2536 
Q 2266 2759 2266 3009 
Q 2266 3272 2169 3511 
Q 2072 3750 1880 3894 
Q 1688 4038 1416 4038 
Q 1138 4038 916 3870 
Q 694 3703 603 3438 
Q 628 3444 672 3444 
Q 816 3444 917 3347 
Q 1019 3250 1019 3097 
Q 1019 2950 917 2848 
Q 816 2747 672 2747 
Q 522 2747 420 2851 
Q 319 2956 319 3097 
Q 319 3338 409 3548 
Q 500 3759 670 3923 
Q 841 4088 1055 4175 
Q 1269 4263 1509 4263 
Q 1875 4263 2190 4108 
Q 2506 3953 2690 3670 
Q 2875 3388 2875 3009 
Q 2875 2731 2753 2481 
Q 2631 2231 2440 2026 
Q 2250 1822 1953 1562 
Q 1656 1303 1563 1216 
L 838 519 
L 1453 519 
Q 1906 519 2211 526 
Q 2516 534 2534 550 
Q 2609 631 2688 1141 
L 2875 1141 
L 2694 0 
L 319 0 
z
" transform="scale(0.015625)"/>
       </defs>
       <use xlink:href="#Cmr10-32"/>
      </g>
     </g>
    </g>
    <g id="xtick_4">
     <g id="text_4">
      <!-- 3 -->
      <g style="fill: #262626" transform="translate(300.802159 300.46875) scale(0.12 -0.12)">
       <defs>
        <path id="Cmr10-33" d="M 609 494 
Q 759 275 1012 169 
Q 1266 63 1556 63 
Q 1928 63 2084 380 
Q 2241 697 2241 1100 
Q 2241 1281 2208 1462 
Q 2175 1644 2097 1800 
Q 2019 1956 1883 2050 
Q 1747 2144 1550 2144 
L 1125 2144 
Q 1069 2144 1069 2203 
L 1069 2259 
Q 1069 2309 1125 2309 
L 1478 2338 
Q 1703 2338 1851 2506 
Q 2000 2675 2069 2917 
Q 2138 3159 2138 3378 
Q 2138 3684 1994 3881 
Q 1850 4078 1556 4078 
Q 1313 4078 1091 3986 
Q 869 3894 738 3706 
Q 750 3709 759 3711 
Q 769 3713 781 3713 
Q 925 3713 1022 3613 
Q 1119 3513 1119 3372 
Q 1119 3234 1022 3134 
Q 925 3034 781 3034 
Q 641 3034 541 3134 
Q 441 3234 441 3372 
Q 441 3647 606 3850 
Q 772 4053 1033 4158 
Q 1294 4263 1556 4263 
Q 1750 4263 1965 4205 
Q 2181 4147 2356 4039 
Q 2531 3931 2642 3762 
Q 2753 3594 2753 3378 
Q 2753 3109 2633 2881 
Q 2513 2653 2303 2487 
Q 2094 2322 1844 2241 
Q 2122 2188 2372 2031 
Q 2622 1875 2773 1631 
Q 2925 1388 2925 1106 
Q 2925 753 2731 467 
Q 2538 181 2222 20 
Q 1906 -141 1556 -141 
Q 1256 -141 954 -26 
Q 653 88 461 316 
Q 269 544 269 863 
Q 269 1022 375 1128 
Q 481 1234 641 1234 
Q 744 1234 830 1186 
Q 916 1138 964 1050 
Q 1013 963 1013 863 
Q 1013 706 903 600 
Q 794 494 641 494 
L 609 494 
z
" transform="scale(0.015625)"/>
       </defs>
       <use xlink:href="#Cmr10-33"/>
      </g>
     </g>
    </g>
    <g id="text_5">
     <!-- Model iteration -->
     <g style="fill: #262626" transform="translate(187.240313 331.1225) scale(0.12 -0.12)">
      <defs>
       <path id="Cmr10-4d" d="M 225 0 
L 225 225 
Q 884 225 884 603 
L 884 3944 
Q 884 4147 225 4147 
L 225 4372 
L 1434 4372 
Q 1513 4372 1538 4300 
L 2931 678 
L 4325 4300 
Q 4350 4372 4428 4372 
L 5638 4372 
L 5638 4147 
Q 4978 4147 4978 3944 
L 4978 428 
Q 4978 225 5638 225 
L 5638 0 
L 3775 0 
L 3775 225 
Q 4434 225 4434 428 
L 4434 4153 
L 2859 72 
Q 2831 0 2753 0 
Q 2672 0 2644 72 
L 1088 4103 
L 1088 603 
Q 1088 225 1747 225 
L 1747 0 
L 225 0 
z
" transform="scale(0.015625)"/>
       <path id="Cmr10-6f" d="M 1600 -72 
Q 1216 -72 887 123 
Q 559 319 368 647 
Q 178 975 178 1363 
Q 178 1656 283 1928 
Q 388 2200 583 2414 
Q 778 2628 1037 2748 
Q 1297 2869 1600 2869 
Q 1994 2869 2317 2661 
Q 2641 2453 2828 2104 
Q 3016 1756 3016 1363 
Q 3016 978 2825 648 
Q 2634 319 2307 123 
Q 1981 -72 1600 -72 
z
M 1600 116 
Q 2113 116 2284 487 
Q 2456 859 2456 1434 
Q 2456 1756 2422 1967 
Q 2388 2178 2272 2350 
Q 2200 2456 2089 2536 
Q 1978 2616 1854 2658 
Q 1731 2700 1600 2700 
Q 1400 2700 1220 2609 
Q 1041 2519 922 2350 
Q 803 2169 770 1951 
Q 738 1734 738 1434 
Q 738 1075 800 789 
Q 863 503 1052 309 
Q 1241 116 1600 116 
z
" transform="scale(0.015625)"/>
       <path id="Cmr10-64" d="M 1563 -72 
Q 1184 -72 871 133 
Q 559 338 386 672 
Q 213 1006 213 1381 
Q 213 1769 402 2101 
Q 591 2434 916 2631 
Q 1241 2828 1631 2828 
Q 1866 2828 2075 2729 
Q 2284 2631 2438 2456 
L 2438 3788 
Q 2438 3959 2386 4036 
Q 2334 4113 2239 4130 
Q 2144 4147 1941 4147 
L 1941 4372 
L 2888 4441 
L 2888 581 
Q 2888 413 2939 336 
Q 2991 259 3086 242 
Q 3181 225 3384 225 
L 3384 0 
L 2419 -72 
L 2419 331 
Q 2253 141 2025 34 
Q 1797 -72 1563 -72 
z
M 909 556 
Q 1019 347 1201 222 
Q 1384 97 1600 97 
Q 1866 97 2087 250 
Q 2309 403 2419 647 
L 2419 2181 
Q 2344 2322 2230 2433 
Q 2116 2544 1973 2603 
Q 1831 2663 1672 2663 
Q 1338 2663 1134 2473 
Q 931 2284 850 1990 
Q 769 1697 769 1375 
Q 769 1119 795 928 
Q 822 738 909 556 
z
" transform="scale(0.015625)"/>
       <path id="Cmr10-65" d="M 1594 -72 
Q 1203 -72 876 133 
Q 550 338 364 680 
Q 178 1022 178 1403 
Q 178 1778 348 2115 
Q 519 2453 823 2661 
Q 1128 2869 1503 2869 
Q 1797 2869 2014 2770 
Q 2231 2672 2372 2497 
Q 2513 2322 2584 2084 
Q 2656 1847 2656 1563 
Q 2656 1478 2591 1478 
L 738 1478 
L 738 1409 
Q 738 878 952 497 
Q 1166 116 1650 116 
Q 1847 116 2014 203 
Q 2181 291 2304 447 
Q 2428 603 2472 781 
Q 2478 803 2495 820 
Q 2513 838 2534 838 
L 2591 838 
Q 2656 838 2656 756 
Q 2566 394 2266 161 
Q 1966 -72 1594 -72 
z
M 744 1638 
L 2203 1638 
Q 2203 1878 2136 2125 
Q 2069 2372 1912 2536 
Q 1756 2700 1503 2700 
Q 1141 2700 942 2361 
Q 744 2022 744 1638 
z
" transform="scale(0.015625)"/>
       <path id="Cmr10-6c" d="M 197 0 
L 197 225 
Q 416 225 556 259 
Q 697 294 697 428 
L 697 3788 
Q 697 3959 645 4036 
Q 594 4113 497 4130 
Q 400 4147 197 4147 
L 197 4372 
L 1147 4441 
L 1147 428 
Q 1147 294 1287 259 
Q 1428 225 1644 225 
L 1644 0 
L 197 0 
z
" transform="scale(0.015625)"/>
       <path id="Cmr10-20" transform="scale(0.015625)"/>
       <path id="Cmr10-69" d="M 197 0 
L 197 225 
Q 416 225 556 259 
Q 697 294 697 428 
L 697 2175 
Q 697 2422 601 2478 
Q 506 2534 225 2534 
L 225 2759 
L 1147 2828 
L 1147 428 
Q 1147 294 1269 259 
Q 1391 225 1594 225 
L 1594 0 
L 197 0 
z
M 469 3928 
Q 469 4069 575 4175 
Q 681 4281 819 4281 
Q 909 4281 993 4234 
Q 1078 4188 1125 4103 
Q 1172 4019 1172 3928 
Q 1172 3791 1065 3684 
Q 959 3578 819 3578 
Q 681 3578 575 3684 
Q 469 3791 469 3928 
z
" transform="scale(0.015625)"/>
       <path id="Cmr10-74" d="M 653 769 
L 653 2534 
L 122 2534 
L 122 2700 
Q 541 2700 737 3090 
Q 934 3481 934 3938 
L 1119 3938 
L 1119 2759 
L 2022 2759 
L 2022 2534 
L 1119 2534 
L 1119 781 
Q 1119 516 1208 316 
Q 1297 116 1528 116 
Q 1747 116 1844 327 
Q 1941 538 1941 781 
L 1941 1159 
L 2125 1159 
L 2125 769 
Q 2125 569 2051 373 
Q 1978 178 1834 53 
Q 1691 -72 1484 -72 
Q 1100 -72 876 158 
Q 653 388 653 769 
z
" transform="scale(0.015625)"/>
       <path id="Cmr10-72" d="M 166 0 
L 166 225 
Q 384 225 525 259 
Q 666 294 666 428 
L 666 2175 
Q 666 2347 614 2423 
Q 563 2500 466 2517 
Q 369 2534 166 2534 
L 166 2759 
L 1081 2828 
L 1081 2203 
Q 1184 2481 1375 2654 
Q 1566 2828 1838 2828 
Q 2028 2828 2178 2715 
Q 2328 2603 2328 2419 
Q 2328 2303 2245 2217 
Q 2163 2131 2041 2131 
Q 1922 2131 1837 2215 
Q 1753 2300 1753 2419 
Q 1753 2591 1875 2663 
L 1838 2663 
Q 1578 2663 1414 2475 
Q 1250 2288 1181 2009 
Q 1113 1731 1113 1478 
L 1113 428 
Q 1113 225 1734 225 
L 1734 0 
L 166 0 
z
" transform="scale(0.015625)"/>
       <path id="Cmr10-61" d="M 256 628 
Q 256 1009 556 1248 
Q 856 1488 1276 1586 
Q 1697 1684 2075 1684 
L 2075 1947 
Q 2075 2131 1994 2304 
Q 1913 2478 1759 2589 
Q 1606 2700 1422 2700 
Q 997 2700 775 2509 
Q 897 2509 976 2417 
Q 1056 2325 1056 2203 
Q 1056 2075 965 1984 
Q 875 1894 750 1894 
Q 622 1894 531 1984 
Q 441 2075 441 2203 
Q 441 2541 747 2705 
Q 1053 2869 1422 2869 
Q 1681 2869 1943 2758 
Q 2206 2647 2373 2440 
Q 2541 2234 2541 1959 
L 2541 519 
Q 2541 394 2594 289 
Q 2647 184 2759 184 
Q 2866 184 2917 290 
Q 2969 397 2969 519 
L 2969 928 
L 3156 928 
L 3156 519 
Q 3156 375 3081 245 
Q 3006 116 2879 39 
Q 2753 -38 2606 -38 
Q 2419 -38 2283 107 
Q 2147 253 2131 453 
Q 2013 213 1781 70 
Q 1550 -72 1288 -72 
Q 1044 -72 808 0 
Q 572 72 414 226 
Q 256 381 256 628 
z
M 775 628 
Q 775 403 940 250 
Q 1106 97 1331 97 
Q 1538 97 1706 200 
Q 1875 303 1975 481 
Q 2075 659 2075 856 
L 2075 1522 
Q 1784 1522 1479 1426 
Q 1175 1331 975 1128 
Q 775 925 775 628 
z
" transform="scale(0.015625)"/>
       <path id="Cmr10-6e" d="M 191 0 
L 191 225 
Q 409 225 550 259 
Q 691 294 691 428 
L 691 2175 
Q 691 2347 639 2423 
Q 588 2500 491 2517 
Q 394 2534 191 2534 
L 191 2759 
L 1119 2828 
L 1119 2203 
Q 1247 2478 1498 2653 
Q 1750 2828 2047 2828 
Q 2491 2828 2714 2615 
Q 2938 2403 2938 1966 
L 2938 428 
Q 2938 294 3078 259 
Q 3219 225 3438 225 
L 3438 0 
L 1972 0 
L 1972 225 
Q 2191 225 2331 259 
Q 2472 294 2472 428 
L 2472 1947 
Q 2472 2259 2381 2461 
Q 2291 2663 2009 2663 
Q 1638 2663 1398 2366 
Q 1159 2069 1159 1691 
L 1159 428 
Q 1159 294 1300 259 
Q 1441 225 1656 225 
L 1656 0 
L 191 0 
z
" transform="scale(0.015625)"/>
      </defs>
      <use xlink:href="#Cmr10-4d"/>
      <use xlink:href="#Cmr10-6f" x="91.601562"/>
      <use xlink:href="#Cmr10-64" x="141.601562"/>
      <use xlink:href="#Cmr10-65" x="197.119141"/>
      <use xlink:href="#Cmr10-6c" x="241.503906"/>
      <use xlink:href="#Cmr10-20" x="269.189453"/>
      <use xlink:href="#Cmr10-69" x="302.490234"/>
      <use xlink:href="#Cmr10-74" x="330.175781"/>
      <use xlink:href="#Cmr10-65" x="368.994141"/>
      <use xlink:href="#Cmr10-72" x="413.378906"/>
      <use xlink:href="#Cmr10-61" x="452.490234"/>
      <use xlink:href="#Cmr10-74" x="502.490234"/>
      <use xlink:href="#Cmr10-69" x="541.308594"/>
      <use xlink:href="#Cmr10-6f" x="568.994141"/>
      <use xlink:href="#Cmr10-6e" x="618.994141"/>
     </g>
    </g>
   </g>
   <g id="matplotlib.axis_2">
    <g id="ytick_1">
     <g id="text_6">
      <!-- 0.0 -->
      <g style="fill: #262626" transform="translate(37.98875 289.305313) scale(0.12 -0.12)">
       <defs>
        <path id="Cmr10-2e" d="M 538 353 
Q 538 497 644 600 
Q 750 703 891 703 
Q 978 703 1062 656 
Q 1147 609 1194 525 
Q 1241 441 1241 353 
Q 1241 213 1137 106 
Q 1034 0 891 0 
Q 750 0 644 106 
Q 538 213 538 353 
z
" transform="scale(0.015625)"/>
       </defs>
       <use xlink:href="#Cmr10-30"/>
       <use xlink:href="#Cmr10-2e" x="50"/>
       <use xlink:href="#Cmr10-30" x="77.685547"/>
      </g>
     </g>
    </g>
    <g id="ytick_2">
     <g id="text_7">
      <!-- 0.2 -->
      <g style="fill: #262626" transform="translate(37.98875 243.945312) scale(0.12 -0.12)">
       <use xlink:href="#Cmr10-30"/>
       <use xlink:href="#Cmr10-2e" x="50"/>
       <use xlink:href="#Cmr10-32" x="77.685547"/>
      </g>
     </g>
    </g>
    <g id="ytick_3">
     <g id="text_8">
      <!-- 0.4 -->
      <g style="fill: #262626" transform="translate(37.98875 198.585312) scale(0.12 -0.12)">
       <defs>
        <path id="Cmr10-34" d="M 178 1056 
L 178 1281 
L 2156 4231 
Q 2178 4263 2222 4263 
L 2316 4263 
Q 2388 4263 2388 4191 
L 2388 1281 
L 3016 1281 
L 3016 1056 
L 2388 1056 
L 2388 428 
Q 2388 297 2575 261 
Q 2763 225 3009 225 
L 3009 0 
L 1247 0 
L 1247 225 
Q 1494 225 1681 261 
Q 1869 297 1869 428 
L 1869 1056 
L 178 1056 
z
M 391 1281 
L 1906 1281 
L 1906 3547 
L 391 1281 
z
" transform="scale(0.015625)"/>
       </defs>
       <use xlink:href="#Cmr10-30"/>
       <use xlink:href="#Cmr10-2e" x="50"/>
       <use xlink:href="#Cmr10-34" x="77.685547"/>
      </g>
     </g>
    </g>
    <g id="ytick_4">
     <g id="text_9">
      <!-- 0.6 -->
      <g style="fill: #262626" transform="translate(37.98875 153.225312) scale(0.12 -0.12)">
       <defs>
        <path id="Cmr10-36" d="M 1600 -141 
Q 1203 -141 937 70 
Q 672 281 526 617 
Q 381 953 325 1322 
Q 269 1691 269 2069 
Q 269 2575 466 3084 
Q 663 3594 1045 3928 
Q 1428 4263 1953 4263 
Q 2172 4263 2361 4180 
Q 2550 4097 2658 3936 
Q 2766 3775 2766 3547 
Q 2766 3416 2677 3327 
Q 2588 3238 2456 3238 
Q 2331 3238 2240 3328 
Q 2150 3419 2150 3547 
Q 2150 3672 2240 3762 
Q 2331 3853 2456 3853 
L 2491 3853 
Q 2409 3969 2261 4023 
Q 2113 4078 1953 4078 
Q 1759 4078 1595 3993 
Q 1431 3909 1300 3765 
Q 1169 3622 1081 3448 
Q 994 3275 945 3053 
Q 897 2831 884 2637 
Q 872 2444 872 2150 
Q 984 2413 1190 2580 
Q 1397 2747 1656 2747 
Q 1941 2747 2175 2631 
Q 2409 2516 2578 2311 
Q 2747 2106 2836 1843 
Q 2925 1581 2925 1313 
Q 2925 938 2758 598 
Q 2591 259 2287 59 
Q 1984 -141 1600 -141 
z
M 1600 63 
Q 1847 63 1997 175 
Q 2147 288 2217 473 
Q 2288 659 2305 848 
Q 2322 1038 2322 1313 
Q 2322 1675 2287 1931 
Q 2253 2188 2100 2383 
Q 1947 2578 1631 2578 
Q 1372 2578 1205 2403 
Q 1038 2228 961 1961 
Q 884 1694 884 1447 
Q 884 1363 891 1319 
Q 891 1309 889 1303 
Q 888 1297 884 1288 
Q 884 1013 940 731 
Q 997 450 1156 256 
Q 1316 63 1600 63 
z
" transform="scale(0.015625)"/>
       </defs>
       <use xlink:href="#Cmr10-30"/>
       <use xlink:href="#Cmr10-2e" x="50"/>
       <use xlink:href="#Cmr10-36" x="77.685547"/>
      </g>
     </g>
    </g>
    <g id="ytick_5">
     <g id="text_10">
      <!-- 0.8 -->
      <g style="fill: #262626" transform="translate(37.98875 107.865312) scale(0.12 -0.12)">
       <defs>
        <path id="Cmr10-38" d="M 269 972 
Q 269 1356 522 1651 
Q 775 1947 1172 2144 
L 934 2297 
Q 716 2441 578 2680 
Q 441 2919 441 3181 
Q 441 3488 602 3734 
Q 763 3981 1030 4122 
Q 1297 4263 1600 4263 
Q 1884 4263 2148 4147 
Q 2413 4031 2583 3815 
Q 2753 3600 2753 3303 
Q 2753 3088 2651 2903 
Q 2550 2719 2373 2572 
Q 2197 2425 1997 2322 
L 2363 2088 
Q 2616 1922 2770 1653 
Q 2925 1384 2925 1088 
Q 2925 741 2739 456 
Q 2553 172 2247 15 
Q 1941 -141 1600 -141 
Q 1269 -141 961 -6 
Q 653 128 461 383 
Q 269 638 269 972 
z
M 616 972 
Q 616 719 755 509 
Q 894 300 1122 181 
Q 1350 63 1600 63 
Q 1972 63 2275 280 
Q 2578 497 2578 856 
Q 2578 978 2529 1098 
Q 2481 1219 2395 1317 
Q 2309 1416 2203 1478 
L 1344 2034 
Q 1144 1928 976 1765 
Q 809 1603 712 1400 
Q 616 1197 616 972 
z
M 1056 2925 
L 1831 2425 
Q 2100 2581 2272 2803 
Q 2444 3025 2444 3303 
Q 2444 3519 2323 3698 
Q 2203 3878 2009 3978 
Q 1816 4078 1594 4078 
Q 1400 4078 1203 4003 
Q 1006 3928 878 3779 
Q 750 3631 750 3431 
Q 750 3131 1056 2925 
z
" transform="scale(0.015625)"/>
       </defs>
       <use xlink:href="#Cmr10-30"/>
       <use xlink:href="#Cmr10-2e" x="50"/>
       <use xlink:href="#Cmr10-38" x="77.685547"/>
      </g>
     </g>
    </g>
    <g id="ytick_6">
     <g id="text_11">
      <!-- 1.0 -->
      <g style="fill: #262626" transform="translate(37.98875 62.505313) scale(0.12 -0.12)">
       <use xlink:href="#Cmr10-31"/>
       <use xlink:href="#Cmr10-2e" x="50"/>
       <use xlink:href="#Cmr10-30" x="77.685547"/>
      </g>
     </g>
    </g>
    <g id="text_12">
     <!-- Proportion of retweets -->
     <g style="fill: #262626" transform="translate(15.661875 219.34625) rotate(-90) scale(0.12 -0.12)">
      <defs>
       <path id="Cmr10-50" d="M 213 0 
L 213 225 
Q 872 225 872 428 
L 872 3944 
Q 872 4147 213 4147 
L 213 4372 
L 2491 4372 
Q 2841 4372 3191 4228 
Q 3541 4084 3767 3809 
Q 3994 3534 3994 3169 
Q 3994 2813 3766 2544 
Q 3538 2275 3191 2136 
Q 2844 1997 2491 1997 
L 1466 1997 
L 1466 428 
Q 1466 225 2125 225 
L 2125 0 
L 213 0 
z
M 1447 2188 
L 2316 2188 
Q 2669 2188 2887 2289 
Q 3106 2391 3207 2605 
Q 3309 2819 3309 3169 
Q 3309 3691 3079 3919 
Q 2850 4147 2316 4147 
L 1772 4147 
Q 1656 4147 1592 4137 
Q 1528 4128 1487 4083 
Q 1447 4038 1447 3944 
L 1447 2188 
z
" transform="scale(0.015625)"/>
       <path id="Cmr10-70" d="M 166 -1241 
L 166 -1019 
Q 384 -1019 525 -981 
Q 666 -944 666 -813 
L 666 2272 
Q 666 2447 541 2490 
Q 416 2534 166 2534 
L 166 2759 
L 1113 2828 
L 1113 2431 
Q 1288 2625 1520 2726 
Q 1753 2828 2016 2828 
Q 2394 2828 2697 2623 
Q 3000 2419 3170 2086 
Q 3341 1753 3341 1381 
Q 3341 994 3152 659 
Q 2963 325 2636 126 
Q 2309 -72 1919 -72 
Q 1453 -72 1131 306 
L 1131 -813 
Q 1131 -944 1273 -981 
Q 1416 -1019 1631 -1019 
L 1631 -1241 
L 166 -1241 
z
M 1131 622 
Q 1244 394 1444 245 
Q 1644 97 1881 97 
Q 2103 97 2273 215 
Q 2444 334 2559 534 
Q 2675 734 2729 954 
Q 2784 1175 2784 1381 
Q 2784 1638 2692 1936 
Q 2600 2234 2411 2439 
Q 2222 2644 1953 2644 
Q 1694 2644 1476 2511 
Q 1259 2378 1131 2150 
L 1131 622 
z
" transform="scale(0.015625)"/>
       <path id="Cmr10-66" d="M 206 0 
L 206 225 
Q 422 225 562 259 
Q 703 294 703 428 
L 703 2534 
L 213 2534 
L 213 2759 
L 703 2759 
L 703 3525 
Q 703 3731 789 3911 
Q 875 4091 1020 4225 
Q 1166 4359 1355 4436 
Q 1544 4513 1747 4513 
Q 1963 4513 2136 4384 
Q 2309 4256 2309 4044 
Q 2309 3922 2226 3839 
Q 2144 3756 2022 3756 
Q 1900 3756 1814 3839 
Q 1728 3922 1728 4044 
Q 1728 4244 1900 4313 
Q 1797 4347 1716 4347 
Q 1528 4347 1395 4214 
Q 1263 4081 1197 3890 
Q 1131 3700 1131 3513 
L 1131 2759 
L 1869 2759 
L 1869 2534 
L 1153 2534 
L 1153 428 
Q 1153 297 1340 261 
Q 1528 225 1772 225 
L 1772 0 
L 206 0 
z
" transform="scale(0.015625)"/>
       <path id="Cmr10-77" d="M 1416 0 
L 588 2328 
Q 531 2469 425 2501 
Q 319 2534 116 2534 
L 116 2759 
L 1434 2759 
L 1434 2534 
Q 1056 2534 1056 2375 
Q 1059 2366 1061 2356 
Q 1063 2347 1063 2328 
L 1678 603 
L 2209 2106 
L 2125 2328 
Q 2075 2469 1965 2501 
Q 1856 2534 1656 2534 
L 1656 2759 
L 2919 2759 
L 2919 2534 
Q 2541 2534 2541 2375 
Q 2541 2350 2547 2328 
L 3188 525 
L 3769 2156 
Q 3781 2206 3781 2247 
Q 3781 2381 3667 2457 
Q 3553 2534 3413 2534 
L 3413 2759 
L 4500 2759 
L 4500 2534 
Q 4306 2534 4167 2432 
Q 4028 2331 3963 2156 
L 3200 0 
Q 3178 -72 3103 -72 
L 3053 -72 
Q 2978 -72 2956 0 
L 2309 1825 
L 1663 0 
Q 1631 -72 1563 -72 
L 1516 -72 
Q 1438 -72 1416 0 
z
" transform="scale(0.015625)"/>
       <path id="Cmr10-73" d="M 213 -19 
L 213 1025 
Q 213 1075 269 1075 
L 347 1075 
Q 384 1075 397 1025 
Q 575 97 1259 97 
Q 1563 97 1767 234 
Q 1972 372 1972 659 
Q 1972 866 1812 1011 
Q 1653 1156 1434 1209 
L 1006 1294 
Q 791 1341 614 1437 
Q 438 1534 325 1695 
Q 213 1856 213 2069 
Q 213 2350 361 2529 
Q 509 2709 746 2789 
Q 984 2869 1259 2869 
Q 1588 2869 1831 2694 
L 2016 2853 
Q 2016 2869 2047 2869 
L 2094 2869 
Q 2113 2869 2128 2851 
Q 2144 2834 2144 2816 
L 2144 1978 
Q 2144 1919 2094 1919 
L 2016 1919 
Q 1959 1919 1959 1978 
Q 1959 2313 1773 2516 
Q 1588 2719 1253 2719 
Q 966 2719 755 2612 
Q 544 2506 544 2247 
Q 544 2069 695 1955 
Q 847 1841 1050 1791 
L 1484 1709 
Q 1703 1659 1892 1540 
Q 2081 1422 2192 1240 
Q 2303 1059 2303 831 
Q 2303 600 2223 429 
Q 2144 259 2001 146 
Q 1859 34 1665 -19 
Q 1472 -72 1259 -72 
Q 859 -72 575 197 
L 341 -56 
Q 341 -72 306 -72 
L 269 -72 
Q 213 -72 213 -19 
z
" transform="scale(0.015625)"/>
      </defs>
      <use xlink:href="#Cmr10-50"/>
      <use xlink:href="#Cmr10-72" x="68.017578"/>
      <use xlink:href="#Cmr10-6f" x="107.128906"/>
      <use xlink:href="#Cmr10-70" x="157.128906"/>
      <use xlink:href="#Cmr10-6f" x="212.646484"/>
      <use xlink:href="#Cmr10-72" x="262.646484"/>
      <use xlink:href="#Cmr10-74" x="301.757812"/>
      <use xlink:href="#Cmr10-69" x="340.576172"/>
      <use xlink:href="#Cmr10-6f" x="368.261719"/>
      <use xlink:href="#Cmr10-6e" x="418.261719"/>
      <use xlink:href="#Cmr10-20" x="473.779297"/>
      <use xlink:href="#Cmr10-6f" x="507.080078"/>
      <use xlink:href="#Cmr10-66" x="557.080078"/>
      <use xlink:href="#Cmr10-20" x="587.597656"/>
      <use xlink:href="#Cmr10-72" x="620.898438"/>
      <use xlink:href="#Cmr10-65" x="660.009766"/>
      <use xlink:href="#Cmr10-74" x="704.394531"/>
      <use xlink:href="#Cmr10-77" x="743.212891"/>
      <use xlink:href="#Cmr10-65" x="815.429688"/>
      <use xlink:href="#Cmr10-65" x="859.814453"/>
      <use xlink:href="#Cmr10-74" x="904.199219"/>
      <use xlink:href="#Cmr10-73" x="943.017578"/>
     </g>
    </g>
   </g>
   <g id="PathCollection_1">
    <defs>
     <path id="m2a411425f1" d="M 0 1.581139 
C 0.419323 1.581139 0.821528 1.41454 1.118034 1.118034 
C 1.41454 0.821528 1.581139 0.419323 1.581139 0 
C 1.581139 -0.419323 1.41454 -0.821528 1.118034 -1.118034 
C 0.821528 -1.41454 0.419323 -1.581139 0 -1.581139 
C -0.419323 -1.581139 -0.821528 -1.41454 -1.118034 -1.118034 
C -1.41454 -0.821528 -1.581139 -0.419323 -1.581139 0 
C -1.581139 0.419323 -1.41454 0.821528 -1.118034 1.118034 
C -0.821528 1.41454 -0.419323 1.581139 0 1.581139 
z
" style="stroke: #000000; stroke-opacity: 0.1"/>
    </defs>
    <g clip-path="url(#p736f8bded2)">
     <use xlink:href="#m2a411425f1" x="75.529432" y="276.357856" style="fill-opacity: 0.1; stroke: #000000; stroke-opacity: 0.1"/>
     <use xlink:href="#m2a411425f1" x="151.620341" y="181.509015" style="fill-opacity: 0.1; stroke: #000000; stroke-opacity: 0.1"/>
     <use xlink:href="#m2a411425f1" x="227.71125" y="67.825828" style="fill-opacity: 0.1; stroke: #000000; stroke-opacity: 0.1"/>
     <use xlink:href="#m2a411425f1" x="303.802159" y="68.853629" style="fill-opacity: 0.1; stroke: #000000; stroke-opacity: 0.1"/>
    </g>
   </g>
   <g id="PathCollection_2">
    <g clip-path="url(#p736f8bded2)">
     <use xlink:href="#m2a411425f1" x="75.529432" y="294.80047" style="fill-opacity: 0.1; stroke: #000000; stroke-opacity: 0.1"/>
     <use xlink:href="#m2a411425f1" x="151.620341" y="273.835316" style="fill-opacity: 0.1; stroke: #000000; stroke-opacity: 0.1"/>
     <use xlink:href="#m2a411425f1" x="227.71125" y="286.034546" style="fill-opacity: 0.1; stroke: #000000; stroke-opacity: 0.1"/>
     <use xlink:href="#m2a411425f1" x="303.802159" y="292.830104" style="fill-opacity: 0.1; stroke: #000000; stroke-opacity: 0.1"/>
    </g>
   </g>
   <g id="PathCollection_3">
    <g clip-path="url(#p736f8bded2)">
     <use xlink:href="#m2a411425f1" x="75.529432" y="277.285746" style="fill-opacity: 0.1; stroke: #000000; stroke-opacity: 0.1"/>
     <use xlink:href="#m2a411425f1" x="151.620341" y="59.008525" style="fill-opacity: 0.1; stroke: #000000; stroke-opacity: 0.1"/>
     <use xlink:href="#m2a411425f1" x="227.71125" y="51.545914" style="fill-opacity: 0.1; stroke: #000000; stroke-opacity: 0.1"/>
     <use xlink:href="#m2a411425f1" x="303.802159" y="56.579626" style="fill-opacity: 0.1; stroke: #000000; stroke-opacity: 0.1"/>
    </g>
   </g>
   <g id="PathCollection_4">
    <g clip-path="url(#p736f8bded2)">
     <use xlink:href="#m2a411425f1" x="75.529432" y="287.077927" style="fill-opacity: 0.1; stroke: #000000; stroke-opacity: 0.1"/>
     <use xlink:href="#m2a411425f1" x="151.620341" y="293.88865" style="fill-opacity: 0.1; stroke: #000000; stroke-opacity: 0.1"/>
     <use xlink:href="#m2a411425f1" x="227.71125" y="69.317132" style="fill-opacity: 0.1; stroke: #000000; stroke-opacity: 0.1"/>
     <use xlink:href="#m2a411425f1" x="303.802159" y="65.489713" style="fill-opacity: 0.1; stroke: #000000; stroke-opacity: 0.1"/>
    </g>
   </g>
   <g id="PathCollection_5">
    <g clip-path="url(#p736f8bded2)">
     <use xlink:href="#m2a411425f1" x="75.529432" y="294.830761" style="fill-opacity: 0.1; stroke: #000000; stroke-opacity: 0.1"/>
     <use xlink:href="#m2a411425f1" x="151.620341" y="212.857119" style="fill-opacity: 0.1; stroke: #000000; stroke-opacity: 0.1"/>
     <use xlink:href="#m2a411425f1" x="227.71125" y="132.77264" style="fill-opacity: 0.1; stroke: #000000; stroke-opacity: 0.1"/>
     <use xlink:href="#m2a411425f1" x="303.802159" y="53.991016" style="fill-opacity: 0.1; stroke: #000000; stroke-opacity: 0.1"/>
    </g>
   </g>
   <g id="PathCollection_6">
    <g clip-path="url(#p736f8bded2)">
     <use xlink:href="#m2a411425f1" x="75.529432" y="274.877489" style="fill-opacity: 0.1; stroke: #000000; stroke-opacity: 0.1"/>
     <use xlink:href="#m2a411425f1" x="151.620341" y="65.465593" style="fill-opacity: 0.1; stroke: #000000; stroke-opacity: 0.1"/>
     <use xlink:href="#m2a411425f1" x="227.71125" y="59.462438" style="fill-opacity: 0.1; stroke: #000000; stroke-opacity: 0.1"/>
     <use xlink:href="#m2a411425f1" x="303.802159" y="48.889315" style="fill-opacity: 0.1; stroke: #000000; stroke-opacity: 0.1"/>
    </g>
   </g>
   <g id="PathCollection_7">
    <g clip-path="url(#p736f8bded2)">
     <use xlink:href="#m2a411425f1" x="75.529432" y="274.849281" style="fill-opacity: 0.1; stroke: #000000; stroke-opacity: 0.1"/>
     <use xlink:href="#m2a411425f1" x="151.620341" y="199.295845" style="fill-opacity: 0.1; stroke: #000000; stroke-opacity: 0.1"/>
     <use xlink:href="#m2a411425f1" x="227.71125" y="131.515108" style="fill-opacity: 0.1; stroke: #000000; stroke-opacity: 0.1"/>
     <use xlink:href="#m2a411425f1" x="303.802159" y="61.759764" style="fill-opacity: 0.1; stroke: #000000; stroke-opacity: 0.1"/>
    </g>
   </g>
   <g id="PathCollection_8">
    <g clip-path="url(#p736f8bded2)">
     <use xlink:href="#m2a411425f1" x="75.529432" y="280.404217" style="fill-opacity: 0.1; stroke: #000000; stroke-opacity: 0.1"/>
     <use xlink:href="#m2a411425f1" x="151.620341" y="55.944118" style="fill-opacity: 0.1; stroke: #000000; stroke-opacity: 0.1"/>
     <use xlink:href="#m2a411425f1" x="227.71125" y="54.604166" style="fill-opacity: 0.1; stroke: #000000; stroke-opacity: 0.1"/>
     <use xlink:href="#m2a411425f1" x="303.802159" y="60.21811" style="fill-opacity: 0.1; stroke: #000000; stroke-opacity: 0.1"/>
    </g>
   </g>
   <g id="PathCollection_9">
    <g clip-path="url(#p736f8bded2)">
     <use xlink:href="#m2a411425f1" x="75.529432" y="286.628276" style="fill-opacity: 0.1; stroke: #000000; stroke-opacity: 0.1"/>
     <use xlink:href="#m2a411425f1" x="151.620341" y="151.710926" style="fill-opacity: 0.1; stroke: #000000; stroke-opacity: 0.1"/>
     <use xlink:href="#m2a411425f1" x="227.71125" y="50.101473" style="fill-opacity: 0.1; stroke: #000000; stroke-opacity: 0.1"/>
     <use xlink:href="#m2a411425f1" x="303.802159" y="60.191391" style="fill-opacity: 0.1; stroke: #000000; stroke-opacity: 0.1"/>
    </g>
   </g>
   <g id="PathCollection_10">
    <g clip-path="url(#p736f8bded2)">
     <use xlink:href="#m2a411425f1" x="75.529432" y="288.639837" style="fill-opacity: 0.1; stroke: #000000; stroke-opacity: 0.1"/>
     <use xlink:href="#m2a411425f1" x="151.620341" y="206.31116" style="fill-opacity: 0.1; stroke: #000000; stroke-opacity: 0.1"/>
     <use xlink:href="#m2a411425f1" x="227.71125" y="48.717399" style="fill-opacity: 0.1; stroke: #000000; stroke-opacity: 0.1"/>
     <use xlink:href="#m2a411425f1" x="303.802159" y="55.67654" style="fill-opacity: 0.1; stroke: #000000; stroke-opacity: 0.1"/>
    </g>
   </g>
   <g id="PathCollection_11">
    <g clip-path="url(#p736f8bded2)">
     <use xlink:href="#m2a411425f1" x="75.529432" y="287.85694" style="fill-opacity: 0.1; stroke: #000000; stroke-opacity: 0.1"/>
     <use xlink:href="#m2a411425f1" x="151.620341" y="285.754812" style="fill-opacity: 0.1; stroke: #000000; stroke-opacity: 0.1"/>
     <use xlink:href="#m2a411425f1" x="227.71125" y="277.418002" style="fill-opacity: 0.1; stroke: #000000; stroke-opacity: 0.1"/>
     <use xlink:href="#m2a411425f1" x="303.802159" y="283.167359" style="fill-opacity: 0.1; stroke: #000000; stroke-opacity: 0.1"/>
    </g>
   </g>
   <g id="PathCollection_12">
    <g clip-path="url(#p736f8bded2)">
     <use xlink:href="#m2a411425f1" x="75.529432" y="289.896524" style="fill-opacity: 0.1; stroke: #000000; stroke-opacity: 0.1"/>
     <use xlink:href="#m2a411425f1" x="151.620341" y="291.598241" style="fill-opacity: 0.1; stroke: #000000; stroke-opacity: 0.1"/>
     <use xlink:href="#m2a411425f1" x="227.71125" y="274.033315" style="fill-opacity: 0.1; stroke: #000000; stroke-opacity: 0.1"/>
     <use xlink:href="#m2a411425f1" x="303.802159" y="277.182684" style="fill-opacity: 0.1; stroke: #000000; stroke-opacity: 0.1"/>
    </g>
   </g>
   <g id="PathCollection_13">
    <g clip-path="url(#p736f8bded2)">
     <use xlink:href="#m2a411425f1" x="75.529432" y="279.389468" style="fill-opacity: 0.1; stroke: #000000; stroke-opacity: 0.1"/>
     <use xlink:href="#m2a411425f1" x="151.620341" y="47.867835" style="fill-opacity: 0.1; stroke: #000000; stroke-opacity: 0.1"/>
     <use xlink:href="#m2a411425f1" x="227.71125" y="53.584778" style="fill-opacity: 0.1; stroke: #000000; stroke-opacity: 0.1"/>
     <use xlink:href="#m2a411425f1" x="303.802159" y="51.01299" style="fill-opacity: 0.1; stroke: #000000; stroke-opacity: 0.1"/>
    </g>
   </g>
   <g id="PathCollection_14">
    <g clip-path="url(#p736f8bded2)">
     <use xlink:href="#m2a411425f1" x="75.529432" y="295.462875" style="fill-opacity: 0.1; stroke: #000000; stroke-opacity: 0.1"/>
     <use xlink:href="#m2a411425f1" x="151.620341" y="147.417004" style="fill-opacity: 0.1; stroke: #000000; stroke-opacity: 0.1"/>
     <use xlink:href="#m2a411425f1" x="227.71125" y="57.832677" style="fill-opacity: 0.1; stroke: #000000; stroke-opacity: 0.1"/>
     <use xlink:href="#m2a411425f1" x="303.802159" y="68.756488" style="fill-opacity: 0.1; stroke: #000000; stroke-opacity: 0.1"/>
    </g>
   </g>
   <g id="PathCollection_15">
    <g clip-path="url(#p736f8bded2)">
     <use xlink:href="#m2a411425f1" x="75.529432" y="287.642702" style="fill-opacity: 0.1; stroke: #000000; stroke-opacity: 0.1"/>
     <use xlink:href="#m2a411425f1" x="151.620341" y="144.535071" style="fill-opacity: 0.1; stroke: #000000; stroke-opacity: 0.1"/>
     <use xlink:href="#m2a411425f1" x="227.71125" y="47.248653" style="fill-opacity: 0.1; stroke: #000000; stroke-opacity: 0.1"/>
     <use xlink:href="#m2a411425f1" x="303.802159" y="55.990535" style="fill-opacity: 0.1; stroke: #000000; stroke-opacity: 0.1"/>
    </g>
   </g>
   <g id="PolyCollection_1">
    <path d="M 76.290341 362.744063 
L 76.290341 391.356934 
L 79.357035 289.735394 
L 82.423729 261.453035 
L 85.490424 244.540894 
L 88.557118 232.205452 
L 91.623812 222.489992 
L 94.690506 214.474224 
L 97.7572 207.65106 
L 100.823895 201.711154 
L 103.890589 196.451819 
L 106.957283 191.73301 
L 110.023977 187.453904 
L 113.090671 183.539496 
L 116.157366 179.932475 
L 119.22406 176.588059 
L 122.290754 173.470593 
L 125.357448 170.551222 
L 128.424143 167.806268 
L 131.490837 165.216061 
L 134.557531 162.764079 
L 137.624225 160.436314 
L 140.690919 158.220786 
L 143.757614 156.107166 
L 146.824308 154.086491 
L 149.891002 152.15093 
L 152.957696 150.293601 
L 156.02439 148.508425 
L 159.091085 146.790005 
L 162.157779 145.133528 
L 165.224473 143.534683 
L 168.291167 141.989594 
L 171.357862 140.494765 
L 174.424556 139.047027 
L 177.49125 137.643504 
L 180.557944 136.281576 
L 183.624638 134.958848 
L 186.691333 133.673126 
L 189.758027 132.422395 
L 192.824721 131.204803 
L 195.891415 130.018637 
L 198.95811 128.862316 
L 202.024804 127.734375 
L 205.091498 126.633455 
L 208.158192 125.558291 
L 211.224886 124.507705 
L 214.291581 123.480599 
L 217.358275 122.475946 
L 220.424969 121.492786 
L 223.491663 120.530218 
L 226.558357 119.587396 
L 229.625052 118.663528 
L 232.691746 117.757866 
L 235.75844 116.869707 
L 238.825134 115.998386 
L 241.891829 115.143278 
L 244.958523 114.303789 
L 248.025217 113.47936 
L 251.091911 112.669459 
L 254.158605 111.873584 
L 257.2253 111.091256 
L 260.291994 110.322023 
L 263.358688 109.565454 
L 266.425382 108.821137 
L 269.492076 108.088683 
L 272.558771 107.367719 
L 275.625465 106.65789 
L 278.692159 105.958858 
L 281.758853 105.2703 
L 284.825548 104.591905 
L 287.892242 103.923378 
L 290.958936 103.264436 
L 294.02563 102.614809 
L 297.092324 101.974236 
L 300.159019 101.342469 
L 303.225713 100.719268 
L 306.292407 100.104406 
L 309.359101 99.49766 
L 312.425795 98.898821 
L 315.49249 98.307684 
L 318.559184 97.724054 
L 321.625878 97.147743 
L 324.692572 96.578568 
L 327.759267 96.016357 
L 330.825961 95.46094 
L 333.892655 94.912155 
L 336.959349 94.369846 
L 340.026043 93.833861 
L 343.092738 93.304056 
L 346.159432 92.780288 
L 349.226126 92.262422 
L 352.29282 91.750326 
L 355.359514 91.243873 
L 358.426209 90.742941 
L 361.492903 90.24741 
L 364.559597 89.757164 
L 367.626291 89.272093 
L 370.692986 88.792088 
L 373.75968 88.317045 
L 376.826374 87.846861 
L 379.893068 87.381439 
L 379.893068 14.464761 
L 379.893068 14.464761 
L 376.826374 15.10179 
L 373.75968 15.745336 
L 370.692986 16.395534 
L 367.626291 17.052522 
L 364.559597 17.716445 
L 361.492903 18.38745 
L 358.426209 19.065689 
L 355.359514 19.751322 
L 352.29282 20.444509 
L 349.226126 21.145421 
L 346.159432 21.854231 
L 343.092738 22.571118 
L 340.026043 23.29627 
L 336.959349 24.029878 
L 333.892655 24.772144 
L 330.825961 25.523272 
L 327.759267 26.283478 
L 324.692572 27.052984 
L 321.625878 27.832019 
L 318.559184 28.620824 
L 315.49249 29.419645 
L 312.425795 30.228741 
L 309.359101 31.04838 
L 306.292407 31.87884 
L 303.225713 32.72041 
L 300.159019 33.573392 
L 297.092324 34.438099 
L 294.02563 35.314859 
L 290.958936 36.204012 
L 287.892242 37.105914 
L 284.825548 38.020934 
L 281.758853 38.949462 
L 278.692159 39.891901 
L 275.625465 40.848674 
L 272.558771 41.820225 
L 269.492076 42.807017 
L 266.425382 43.809536 
L 263.358688 44.828292 
L 260.291994 45.863818 
L 257.2253 46.916676 
L 254.158605 47.987457 
L 251.091911 49.076781 
L 248.025217 50.185302 
L 244.958523 51.313709 
L 241.891829 52.462727 
L 238.825134 53.633124 
L 235.75844 54.825712 
L 232.691746 56.041346 
L 229.625052 57.280937 
L 226.558357 58.545446 
L 223.491663 59.835897 
L 220.424969 61.153376 
L 217.358275 62.49904 
L 214.291581 63.87412 
L 211.224886 65.279933 
L 208.158192 66.717882 
L 205.091498 68.189473 
L 202.024804 69.696316 
L 198.95811 71.240142 
L 195.891415 72.822812 
L 192.824721 74.446332 
L 189.758027 76.112866 
L 186.691333 77.824755 
L 183.624638 79.584539 
L 180.557944 81.394973 
L 177.49125 83.259061 
L 174.424556 85.180079 
L 171.357862 87.161615 
L 168.291167 89.207607 
L 165.224473 91.322388 
L 162.157779 93.510747 
L 159.091085 95.777987 
L 156.02439 98.13001 
L 152.957696 100.573402 
L 149.891002 103.115551 
L 146.824308 105.764777 
L 143.757614 108.530499 
L 140.690919 111.423436 
L 137.624225 114.455857 
L 134.557531 117.641897 
L 131.490837 120.997954 
L 128.424143 124.543203 
L 125.357448 128.300254 
L 122.290754 132.296032 
L 119.22406 136.562947 
L 116.157366 141.140489 
L 113.090671 146.077463 
L 110.023977 151.43516 
L 106.957283 157.292025 
L 103.890589 163.750716 
L 100.823895 170.949232 
L 97.7572 179.079254 
L 94.690506 188.418202 
L 91.623812 199.38948 
L 88.557118 212.687148 
L 85.490424 229.570819 
L 82.423729 252.718672 
L 79.357035 288.497964 
L 76.290341 362.744063 
z
" clip-path="url(#p736f8bded2)" style="fill: #808080; fill-opacity: 0.2; stroke: #808080; stroke-opacity: 0.2"/>
   </g>
   <g id="line2d_1">
    <path d="M 75.529432 276.357856 
L 151.620341 181.509015 
L 227.71125 67.825828 
L 303.802159 68.853629 
" clip-path="url(#p736f8bded2)" style="fill: none; stroke: #000000; stroke-opacity: 0.2; stroke-width: 1.5; stroke-linecap: round"/>
   </g>
   <g id="line2d_2">
    <path d="M 75.529432 294.80047 
L 151.620341 273.835316 
L 227.71125 286.034546 
L 303.802159 292.830104 
" clip-path="url(#p736f8bded2)" style="fill: none; stroke: #000000; stroke-opacity: 0.2; stroke-width: 1.5; stroke-linecap: round"/>
   </g>
   <g id="line2d_3">
    <path d="M 75.529432 277.285746 
L 151.620341 59.008525 
L 227.71125 51.545914 
L 303.802159 56.579626 
" clip-path="url(#p736f8bded2)" style="fill: none; stroke: #000000; stroke-opacity: 0.2; stroke-width: 1.5; stroke-linecap: round"/>
   </g>
   <g id="line2d_4">
    <path d="M 75.529432 287.077927 
L 151.620341 293.88865 
L 227.71125 69.317132 
L 303.802159 65.489713 
" clip-path="url(#p736f8bded2)" style="fill: none; stroke: #000000; stroke-opacity: 0.2; stroke-width: 1.5; stroke-linecap: round"/>
   </g>
   <g id="line2d_5">
    <path d="M 75.529432 294.830761 
L 151.620341 212.857119 
L 227.71125 132.77264 
L 303.802159 53.991016 
" clip-path="url(#p736f8bded2)" style="fill: none; stroke: #000000; stroke-opacity: 0.2; stroke-width: 1.5; stroke-linecap: round"/>
   </g>
   <g id="line2d_6">
    <path d="M 75.529432 274.877489 
L 151.620341 65.465593 
L 227.71125 59.462438 
L 303.802159 48.889315 
" clip-path="url(#p736f8bded2)" style="fill: none; stroke: #000000; stroke-opacity: 0.2; stroke-width: 1.5; stroke-linecap: round"/>
   </g>
   <g id="line2d_7">
    <path d="M 75.529432 274.849281 
L 151.620341 199.295845 
L 227.71125 131.515108 
L 303.802159 61.759764 
" clip-path="url(#p736f8bded2)" style="fill: none; stroke: #000000; stroke-opacity: 0.2; stroke-width: 1.5; stroke-linecap: round"/>
   </g>
   <g id="line2d_8">
    <path d="M 75.529432 280.404217 
L 151.620341 55.944118 
L 227.71125 54.604166 
L 303.802159 60.21811 
" clip-path="url(#p736f8bded2)" style="fill: none; stroke: #000000; stroke-opacity: 0.2; stroke-width: 1.5; stroke-linecap: round"/>
   </g>
   <g id="line2d_9">
    <path d="M 75.529432 286.628276 
L 151.620341 151.710926 
L 227.71125 50.101473 
L 303.802159 60.191391 
" clip-path="url(#p736f8bded2)" style="fill: none; stroke: #000000; stroke-opacity: 0.2; stroke-width: 1.5; stroke-linecap: round"/>
   </g>
   <g id="line2d_10">
    <path d="M 75.529432 288.639837 
L 151.620341 206.31116 
L 227.71125 48.717399 
L 303.802159 55.67654 
" clip-path="url(#p736f8bded2)" style="fill: none; stroke: #000000; stroke-opacity: 0.2; stroke-width: 1.5; stroke-linecap: round"/>
   </g>
   <g id="line2d_11">
    <path d="M 75.529432 287.85694 
L 151.620341 285.754812 
L 227.71125 277.418002 
L 303.802159 283.167359 
" clip-path="url(#p736f8bded2)" style="fill: none; stroke: #000000; stroke-opacity: 0.2; stroke-width: 1.5; stroke-linecap: round"/>
   </g>
   <g id="line2d_12">
    <path d="M 75.529432 289.896524 
L 151.620341 291.598241 
L 227.71125 274.033315 
L 303.802159 277.182684 
" clip-path="url(#p736f8bded2)" style="fill: none; stroke: #000000; stroke-opacity: 0.2; stroke-width: 1.5; stroke-linecap: round"/>
   </g>
   <g id="line2d_13">
    <path d="M 75.529432 279.389468 
L 151.620341 47.867835 
L 227.71125 53.584778 
L 303.802159 51.01299 
" clip-path="url(#p736f8bded2)" style="fill: none; stroke: #000000; stroke-opacity: 0.2; stroke-width: 1.5; stroke-linecap: round"/>
   </g>
   <g id="line2d_14">
    <path d="M 75.529432 295.462875 
L 151.620341 147.417004 
L 227.71125 57.832677 
L 303.802159 68.756488 
" clip-path="url(#p736f8bded2)" style="fill: none; stroke: #000000; stroke-opacity: 0.2; stroke-width: 1.5; stroke-linecap: round"/>
   </g>
   <g id="line2d_15">
    <path d="M 75.529432 287.642702 
L 151.620341 144.535071 
L 227.71125 47.248653 
L 303.802159 55.990535 
" clip-path="url(#p736f8bded2)" style="fill: none; stroke: #000000; stroke-opacity: 0.2; stroke-width: 1.5; stroke-linecap: round"/>
   </g>
   <g id="line2d_16">
    <path d="M 77.524956 341.649375 
L 79.357035 289.116679 
L 82.423729 257.085854 
L 85.490424 237.055857 
L 88.557118 222.4463 
L 91.623812 210.939736 
L 94.690506 201.446213 
L 97.7572 193.365157 
L 100.823895 186.330193 
L 103.890589 180.101268 
L 106.957283 174.512517 
L 110.023977 169.444532 
L 113.090671 164.80848 
L 116.157366 160.536482 
L 119.22406 156.575503 
L 122.290754 152.883313 
L 125.357448 149.425738 
L 128.424143 146.174735 
L 131.490837 143.107007 
L 134.557531 140.202988 
L 137.624225 137.446086 
L 140.690919 134.822111 
L 143.757614 132.318833 
L 146.824308 129.925634 
L 149.891002 127.63324 
L 152.957696 125.433501 
L 156.02439 123.319217 
L 159.091085 121.283996 
L 162.157779 119.322137 
L 165.224473 117.428536 
L 168.291167 115.598601 
L 171.357862 113.82819 
L 174.424556 112.113553 
L 177.49125 110.451283 
L 180.557944 108.838275 
L 183.624638 107.271693 
L 186.691333 105.748941 
L 189.758027 104.267631 
L 192.824721 102.825567 
L 195.891415 101.420724 
L 198.95811 100.051229 
L 202.024804 98.715345 
L 205.091498 97.411464 
L 208.158192 96.138087 
L 211.224886 94.893819 
L 214.291581 93.67736 
L 217.358275 92.487493 
L 220.424969 91.323081 
L 223.491663 90.183057 
L 226.558357 89.066421 
L 229.625052 87.972232 
L 232.691746 86.899606 
L 235.75844 85.847709 
L 238.825134 84.815755 
L 241.891829 83.803002 
L 244.958523 82.808749 
L 248.025217 81.832331 
L 251.091911 80.87312 
L 254.158605 79.93052 
L 257.2253 79.003966 
L 260.291994 78.092921 
L 263.358688 77.196873 
L 266.425382 76.315337 
L 269.492076 75.44785 
L 272.558771 74.593972 
L 275.625465 73.753282 
L 278.692159 72.92538 
L 281.758853 72.109881 
L 284.825548 71.306419 
L 287.892242 70.514646 
L 290.958936 69.734224 
L 294.02563 68.964834 
L 297.092324 68.206168 
L 300.159019 67.45793 
L 303.225713 66.719839 
L 306.292407 65.991623 
L 309.359101 65.27302 
L 312.425795 64.563781 
L 315.49249 63.863665 
L 318.559184 63.172439 
L 321.625878 62.489881 
L 324.692572 61.815776 
L 327.759267 61.149918 
L 330.825961 60.492106 
L 333.892655 59.842149 
L 336.959349 59.199862 
L 340.026043 58.565066 
L 343.092738 57.937587 
L 346.159432 57.317259 
L 349.226126 56.703921 
L 352.29282 56.097418 
L 355.359514 55.497598 
L 358.426209 54.904315 
L 361.492903 54.31743 
L 364.559597 53.736805 
L 367.626291 53.162308 
L 370.692986 52.593811 
L 373.75968 52.03119 
L 376.826374 51.474326 
L 379.893068 50.9231 
" clip-path="url(#p736f8bded2)" style="fill: none; stroke: #808080; stroke-width: 1.5; stroke-linecap: round"/>
   </g>
   <g id="patch_3">
    <path d="M 60.31125 285.141875 
L 60.31125 35.661875 
" style="fill: none; stroke: #262626; stroke-width: 0.8; stroke-linejoin: miter; stroke-linecap: square"/>
   </g>
   <g id="patch_4">
    <path d="M 60.31125 285.141875 
L 395.11125 285.141875 
" style="fill: none; stroke: #262626; stroke-width: 0.8; stroke-linejoin: miter; stroke-linecap: square"/>
   </g>
   <g id="text_13">
    <!-- Cumulative proportion of tweets shared over three model iterations -->
    <g style="fill: #262626" transform="translate(50.191875 15.661875) scale(0.12 -0.12)">
     <defs>
      <path id="Cmr10-43" d="M 1459 684 
Q 1678 406 2006 245 
Q 2334 84 2688 84 
Q 2984 84 3237 201 
Q 3491 319 3680 528 
Q 3869 738 3970 1003 
Q 4072 1269 4072 1563 
Q 4072 1613 4128 1613 
L 4206 1613 
Q 4256 1613 4256 1550 
Q 4256 1216 4128 905 
Q 4000 594 3765 358 
Q 3531 122 3226 -9 
Q 2922 -141 2591 -141 
Q 2131 -141 1720 45 
Q 1309 231 1004 554 
Q 700 878 529 1303 
Q 359 1728 359 2188 
Q 359 2647 529 3072 
Q 700 3497 1004 3822 
Q 1309 4147 1720 4330 
Q 2131 4513 2591 4513 
Q 2919 4513 3219 4370 
Q 3519 4228 3744 3969 
L 4116 4494 
Q 4153 4513 4159 4513 
L 4206 4513 
Q 4225 4513 4240 4497 
Q 4256 4481 4256 4459 
L 4256 2731 
Q 4256 2675 4206 2675 
L 4091 2675 
Q 4031 2675 4031 2731 
Q 4031 2916 3957 3144 
Q 3884 3372 3770 3576 
Q 3656 3781 3506 3938 
Q 3147 4288 2681 4288 
Q 2328 4288 2004 4128 
Q 1681 3969 1459 3688 
Q 1225 3388 1134 3005 
Q 1044 2622 1044 2188 
Q 1044 1753 1134 1368 
Q 1225 984 1459 684 
z
" transform="scale(0.015625)"/>
      <path id="Cmr10-75" d="M 691 763 
L 691 2175 
Q 691 2347 639 2423 
Q 588 2500 491 2517 
Q 394 2534 191 2534 
L 191 2759 
L 1159 2828 
L 1159 763 
Q 1159 513 1195 373 
Q 1231 234 1348 165 
Q 1466 97 1722 97 
Q 2066 97 2269 384 
Q 2472 672 2472 1038 
L 2472 2175 
Q 2472 2347 2419 2423 
Q 2366 2500 2270 2517 
Q 2175 2534 1972 2534 
L 1972 2759 
L 2938 2828 
L 2938 581 
Q 2938 413 2989 336 
Q 3041 259 3137 242 
Q 3234 225 3438 225 
L 3438 0 
L 2491 -72 
L 2491 469 
Q 2372 228 2159 78 
Q 1947 -72 1691 -72 
Q 1231 -72 961 123 
Q 691 319 691 763 
z
" transform="scale(0.015625)"/>
      <path id="Cmr10-6d" d="M 191 0 
L 191 225 
Q 409 225 550 259 
Q 691 294 691 428 
L 691 2175 
Q 691 2347 639 2423 
Q 588 2500 491 2517 
Q 394 2534 191 2534 
L 191 2759 
L 1119 2828 
L 1119 2203 
Q 1247 2478 1498 2653 
Q 1750 2828 2047 2828 
Q 2784 2828 2913 2228 
Q 3041 2497 3287 2662 
Q 3534 2828 3828 2828 
Q 4119 2828 4317 2734 
Q 4516 2641 4616 2448 
Q 4716 2256 4716 1966 
L 4716 428 
Q 4716 294 4858 259 
Q 5000 225 5216 225 
L 5216 0 
L 3750 0 
L 3750 225 
Q 3969 225 4109 259 
Q 4250 294 4250 428 
L 4250 1947 
Q 4250 2269 4159 2466 
Q 4069 2663 3788 2663 
Q 3419 2663 3178 2366 
Q 2938 2069 2938 1691 
L 2938 428 
Q 2938 294 3078 259 
Q 3219 225 3438 225 
L 3438 0 
L 1972 0 
L 1972 225 
Q 2191 225 2331 259 
Q 2472 294 2472 428 
L 2472 1947 
Q 2472 2259 2381 2461 
Q 2291 2663 2009 2663 
Q 1638 2663 1398 2366 
Q 1159 2069 1159 1691 
L 1159 428 
Q 1159 294 1300 259 
Q 1441 225 1656 225 
L 1656 0 
L 191 0 
z
" transform="scale(0.015625)"/>
      <path id="Cmr10-76" d="M 1563 0 
L 628 2350 
Q 569 2469 445 2501 
Q 322 2534 122 2534 
L 122 2759 
L 1466 2759 
L 1466 2534 
Q 1106 2534 1106 2381 
Q 1106 2356 1113 2344 
L 1831 538 
L 2478 2169 
Q 2497 2219 2497 2272 
Q 2497 2394 2405 2464 
Q 2313 2534 2188 2534 
L 2188 2759 
L 3250 2759 
L 3250 2534 
Q 3053 2534 2904 2443 
Q 2756 2353 2675 2175 
L 1813 0 
Q 1788 -72 1709 -72 
L 1663 -72 
Q 1584 -72 1563 0 
z
" transform="scale(0.015625)"/>
      <path id="Cmr10-68" d="M 191 0 
L 191 225 
Q 409 225 550 259 
Q 691 294 691 428 
L 691 3788 
Q 691 3959 639 4036 
Q 588 4113 491 4130 
Q 394 4147 191 4147 
L 191 4372 
L 1141 4441 
L 1141 2241 
Q 1275 2506 1515 2667 
Q 1756 2828 2047 2828 
Q 2491 2828 2714 2615 
Q 2938 2403 2938 1966 
L 2938 428 
Q 2938 294 3078 259 
Q 3219 225 3438 225 
L 3438 0 
L 1972 0 
L 1972 225 
Q 2191 225 2331 259 
Q 2472 294 2472 428 
L 2472 1947 
Q 2472 2259 2381 2461 
Q 2291 2663 2009 2663 
Q 1638 2663 1398 2366 
Q 1159 2069 1159 1691 
L 1159 428 
Q 1159 294 1300 259 
Q 1441 225 1656 225 
L 1656 0 
L 191 0 
z
" transform="scale(0.015625)"/>
     </defs>
     <use xlink:href="#Cmr10-43"/>
     <use xlink:href="#Cmr10-75" x="72.216797"/>
     <use xlink:href="#Cmr10-6d" x="127.734375"/>
     <use xlink:href="#Cmr10-75" x="211.035156"/>
     <use xlink:href="#Cmr10-6c" x="266.552734"/>
     <use xlink:href="#Cmr10-61" x="294.238281"/>
     <use xlink:href="#Cmr10-74" x="344.238281"/>
     <use xlink:href="#Cmr10-69" x="383.056641"/>
     <use xlink:href="#Cmr10-76" x="410.742188"/>
     <use xlink:href="#Cmr10-65" x="463.427734"/>
     <use xlink:href="#Cmr10-20" x="507.8125"/>
     <use xlink:href="#Cmr10-70" x="541.113281"/>
     <use xlink:href="#Cmr10-72" x="596.630859"/>
     <use xlink:href="#Cmr10-6f" x="635.742188"/>
     <use xlink:href="#Cmr10-70" x="685.742188"/>
     <use xlink:href="#Cmr10-6f" x="741.259766"/>
     <use xlink:href="#Cmr10-72" x="791.259766"/>
     <use xlink:href="#Cmr10-74" x="830.371094"/>
     <use xlink:href="#Cmr10-69" x="869.189453"/>
     <use xlink:href="#Cmr10-6f" x="896.875"/>
     <use xlink:href="#Cmr10-6e" x="946.875"/>
     <use xlink:href="#Cmr10-20" x="1002.392578"/>
     <use xlink:href="#Cmr10-6f" x="1035.693359"/>
     <use xlink:href="#Cmr10-66" x="1085.693359"/>
     <use xlink:href="#Cmr10-20" x="1116.210938"/>
     <use xlink:href="#Cmr10-74" x="1149.511719"/>
     <use xlink:href="#Cmr10-77" x="1188.330078"/>
     <use xlink:href="#Cmr10-65" x="1260.546875"/>
     <use xlink:href="#Cmr10-65" x="1304.931641"/>
     <use xlink:href="#Cmr10-74" x="1349.316406"/>
     <use xlink:href="#Cmr10-73" x="1388.134766"/>
     <use xlink:href="#Cmr10-20" x="1427.539062"/>
     <use xlink:href="#Cmr10-73" x="1460.839844"/>
     <use xlink:href="#Cmr10-68" x="1500.244141"/>
     <use xlink:href="#Cmr10-61" x="1555.761719"/>
     <use xlink:href="#Cmr10-72" x="1605.761719"/>
     <use xlink:href="#Cmr10-65" x="1644.873047"/>
     <use xlink:href="#Cmr10-64" x="1689.257812"/>
     <use xlink:href="#Cmr10-20" x="1744.775391"/>
     <use xlink:href="#Cmr10-6f" x="1778.076172"/>
     <use xlink:href="#Cmr10-76" x="1828.076172"/>
     <use xlink:href="#Cmr10-65" x="1880.761719"/>
     <use xlink:href="#Cmr10-72" x="1925.146484"/>
     <use xlink:href="#Cmr10-20" x="1964.257812"/>
     <use xlink:href="#Cmr10-74" x="1997.558594"/>
     <use xlink:href="#Cmr10-68" x="2036.376953"/>
     <use xlink:href="#Cmr10-72" x="2091.894531"/>
     <use xlink:href="#Cmr10-65" x="2131.005859"/>
     <use xlink:href="#Cmr10-65" x="2175.390625"/>
     <use xlink:href="#Cmr10-20" x="2219.775391"/>
     <use xlink:href="#Cmr10-6d" x="2253.076172"/>
     <use xlink:href="#Cmr10-6f" x="2336.376953"/>
     <use xlink:href="#Cmr10-64" x="2386.376953"/>
     <use xlink:href="#Cmr10-65" x="2441.894531"/>
     <use xlink:href="#Cmr10-6c" x="2486.279297"/>
     <use xlink:href="#Cmr10-20" x="2513.964844"/>
     <use xlink:href="#Cmr10-69" x="2547.265625"/>
     <use xlink:href="#Cmr10-74" x="2574.951172"/>
     <use xlink:href="#Cmr10-65" x="2613.769531"/>
     <use xlink:href="#Cmr10-72" x="2658.154297"/>
     <use xlink:href="#Cmr10-61" x="2697.265625"/>
     <use xlink:href="#Cmr10-74" x="2747.265625"/>
     <use xlink:href="#Cmr10-69" x="2786.083984"/>
     <use xlink:href="#Cmr10-6f" x="2813.769531"/>
     <use xlink:href="#Cmr10-6e" x="2863.769531"/>
     <use xlink:href="#Cmr10-73" x="2919.287109"/>
    </g>
   </g>
   <g id="legend_1">
    <g id="patch_5">
     <path d="M 135.808125 279.141875 
L 386.71125 279.141875 
Q 389.11125 279.141875 389.11125 276.741875 
L 389.11125 244.28 
Q 389.11125 241.88 386.71125 241.88 
L 135.808125 241.88 
Q 133.408125 241.88 133.408125 244.28 
L 133.408125 276.741875 
Q 133.408125 279.141875 135.808125 279.141875 
z
" style="fill: #ffffff; opacity: 0.8; stroke: #cccccc; stroke-linejoin: miter"/>
    </g>
    <g id="PathCollection_16">
     <g>
      <use xlink:href="#m2a411425f1" x="150.208125" y="251.991875" style="fill-opacity: 0.1; stroke: #000000; stroke-opacity: 0.1"/>
     </g>
    </g>
    <g id="text_14">
     <!-- Proportion of tweets in current iteration -->
     <g style="fill: #262626" transform="translate(171.808125 255.141875) scale(0.12 -0.12)">
      <defs>
       <path id="Cmr10-63" d="M 1594 -72 
Q 1206 -72 890 129 
Q 575 331 394 667 
Q 213 1003 213 1381 
Q 213 1759 392 2106 
Q 572 2453 889 2661 
Q 1206 2869 1594 2869 
Q 1969 2869 2276 2722 
Q 2584 2575 2584 2241 
Q 2584 2116 2495 2023 
Q 2406 1931 2278 1931 
Q 2150 1931 2061 2023 
Q 1972 2116 1972 2241 
Q 1972 2353 2044 2436 
Q 2116 2519 2222 2541 
Q 2000 2681 1600 2681 
Q 1294 2681 1106 2478 
Q 919 2275 844 1975 
Q 769 1675 769 1381 
Q 769 1072 861 783 
Q 953 494 1158 305 
Q 1363 116 1672 116 
Q 1975 116 2187 302 
Q 2400 488 2478 788 
Q 2478 825 2528 825 
L 2606 825 
Q 2625 825 2640 808 
Q 2656 791 2656 769 
L 2656 750 
Q 2559 372 2271 150 
Q 1984 -72 1594 -72 
z
" transform="scale(0.015625)"/>
      </defs>
      <use xlink:href="#Cmr10-50"/>
      <use xlink:href="#Cmr10-72" x="68.017578"/>
      <use xlink:href="#Cmr10-6f" x="107.128906"/>
      <use xlink:href="#Cmr10-70" x="157.128906"/>
      <use xlink:href="#Cmr10-6f" x="212.646484"/>
      <use xlink:href="#Cmr10-72" x="262.646484"/>
      <use xlink:href="#Cmr10-74" x="301.757812"/>
      <use xlink:href="#Cmr10-69" x="340.576172"/>
      <use xlink:href="#Cmr10-6f" x="368.261719"/>
      <use xlink:href="#Cmr10-6e" x="418.261719"/>
      <use xlink:href="#Cmr10-20" x="473.779297"/>
      <use xlink:href="#Cmr10-6f" x="507.080078"/>
      <use xlink:href="#Cmr10-66" x="557.080078"/>
      <use xlink:href="#Cmr10-20" x="587.597656"/>
      <use xlink:href="#Cmr10-74" x="620.898438"/>
      <use xlink:href="#Cmr10-77" x="659.716797"/>
      <use xlink:href="#Cmr10-65" x="731.933594"/>
      <use xlink:href="#Cmr10-65" x="776.318359"/>
      <use xlink:href="#Cmr10-74" x="820.703125"/>
      <use xlink:href="#Cmr10-73" x="859.521484"/>
      <use xlink:href="#Cmr10-20" x="898.925781"/>
      <use xlink:href="#Cmr10-69" x="932.226562"/>
      <use xlink:href="#Cmr10-6e" x="959.912109"/>
      <use xlink:href="#Cmr10-20" x="1015.429688"/>
      <use xlink:href="#Cmr10-63" x="1048.730469"/>
      <use xlink:href="#Cmr10-75" x="1093.115234"/>
      <use xlink:href="#Cmr10-72" x="1148.632812"/>
      <use xlink:href="#Cmr10-72" x="1187.744141"/>
      <use xlink:href="#Cmr10-65" x="1226.855469"/>
      <use xlink:href="#Cmr10-6e" x="1271.240234"/>
      <use xlink:href="#Cmr10-74" x="1326.757812"/>
      <use xlink:href="#Cmr10-20" x="1365.576172"/>
      <use xlink:href="#Cmr10-69" x="1398.876953"/>
      <use xlink:href="#Cmr10-74" x="1426.5625"/>
      <use xlink:href="#Cmr10-65" x="1465.380859"/>
      <use xlink:href="#Cmr10-72" x="1509.765625"/>
      <use xlink:href="#Cmr10-61" x="1548.876953"/>
      <use xlink:href="#Cmr10-74" x="1598.876953"/>
      <use xlink:href="#Cmr10-69" x="1637.695312"/>
      <use xlink:href="#Cmr10-6f" x="1665.380859"/>
      <use xlink:href="#Cmr10-6e" x="1715.380859"/>
     </g>
    </g>
    <g id="line2d_17">
     <path d="M 138.208125 267.66875 
L 150.208125 267.66875 
L 162.208125 267.66875 
" style="fill: none; stroke: #000000; stroke-opacity: 0.2; stroke-width: 1.5; stroke-linecap: round"/>
    </g>
    <g id="text_15">
     <!-- Model progress -->
     <g style="fill: #262626" transform="translate(171.808125 271.86875) scale(0.12 -0.12)">
      <defs>
       <path id="Cmr10-67" d="M 178 -500 
Q 178 -272 343 -101 
Q 509 69 738 141 
Q 609 238 542 384 
Q 475 531 475 697 
Q 475 997 666 1228 
Q 372 1516 372 1888 
Q 372 2088 458 2263 
Q 544 2438 697 2566 
Q 850 2694 1037 2761 
Q 1225 2828 1422 2828 
Q 1803 2828 2106 2606 
Q 2238 2747 2417 2823 
Q 2597 2900 2791 2900 
Q 2928 2900 3015 2801 
Q 3103 2703 3103 2566 
Q 3103 2488 3043 2428 
Q 2984 2369 2906 2369 
Q 2825 2369 2765 2428 
Q 2706 2488 2706 2566 
Q 2706 2684 2784 2731 
Q 2453 2731 2216 2503 
Q 2331 2388 2401 2220 
Q 2472 2053 2472 1888 
Q 2472 1616 2322 1398 
Q 2172 1181 1926 1061 
Q 1681 941 1422 941 
Q 1072 941 781 1131 
Q 691 1006 691 850 
Q 691 681 802 554 
Q 913 428 1081 428 
L 1606 428 
Q 1988 428 2294 359 
Q 2600 291 2808 84 
Q 3016 -122 3016 -500 
Q 3016 -781 2778 -967 
Q 2541 -1153 2211 -1236 
Q 1881 -1319 1600 -1319 
Q 1316 -1319 984 -1236 
Q 653 -1153 415 -967 
Q 178 -781 178 -500 
z
M 538 -500 
Q 538 -716 713 -861 
Q 888 -1006 1134 -1076 
Q 1381 -1147 1600 -1147 
Q 1816 -1147 2062 -1076 
Q 2309 -1006 2482 -861 
Q 2656 -716 2656 -500 
Q 2656 -166 2350 -67 
Q 2044 31 1606 31 
L 1081 31 
Q 934 31 811 -39 
Q 688 -109 613 -236 
Q 538 -363 538 -500 
z
M 1422 1113 
Q 1966 1113 1966 1888 
Q 1966 2222 1850 2439 
Q 1734 2656 1422 2656 
Q 1109 2656 993 2439 
Q 878 2222 878 1888 
Q 878 1675 922 1503 
Q 966 1331 1084 1222 
Q 1203 1113 1422 1113 
z
" transform="scale(0.015625)"/>
      </defs>
      <use xlink:href="#Cmr10-4d"/>
      <use xlink:href="#Cmr10-6f" x="91.601562"/>
      <use xlink:href="#Cmr10-64" x="141.601562"/>
      <use xlink:href="#Cmr10-65" x="197.119141"/>
      <use xlink:href="#Cmr10-6c" x="241.503906"/>
      <use xlink:href="#Cmr10-20" x="269.189453"/>
      <use xlink:href="#Cmr10-70" x="302.490234"/>
      <use xlink:href="#Cmr10-72" x="358.007812"/>
      <use xlink:href="#Cmr10-6f" x="397.119141"/>
      <use xlink:href="#Cmr10-67" x="447.119141"/>
      <use xlink:href="#Cmr10-72" x="497.119141"/>
      <use xlink:href="#Cmr10-65" x="536.230469"/>
      <use xlink:href="#Cmr10-73" x="580.615234"/>
      <use xlink:href="#Cmr10-73" x="620.019531"/>
     </g>
    </g>
   </g>
  </g>
 </g>
 <defs>
  <clipPath id="p736f8bded2">
   <rect x="60.31125" y="35.661875" width="334.8" height="249.48"/>
  </clipPath>
 </defs>
</svg>
